<?xml version="1.0" standalone="no"?>
<!DOCTYPE svg PUBLIC "-//W3C//DTD SVG 1.1//EN" "http://www.w3.org/Graphics/SVG/1.1/DTD/svg11.dtd" >
<svg xmlns="http://www.w3.org/2000/svg">
<metadata></metadata>
<defs>
<font id="museo_sans_cyrl300" horiz-adv-x="780" >
<font-face units-per-em="2048" ascent="1536" descent="-512" />
<missing-glyph horiz-adv-x="512" />
<glyph unicode="ff" horiz-adv-x="1314" d="M76 913v117h129v39q0 70 14 127.5t36 96t53.5 68t63 46t68 27t64.5 13.5t57 3q41 0 64 -6v-123q-16 4 -50 4q-29 0 -55.5 -4.5t-60 -20.5t-57.5 -42.5t-41 -76t-17 -114.5v-37h518v39q0 70 14 127.5t36 96t53.5 68t63 46t68 27t64.5 13.5t56 3q43 0 63 -6v-123 q-12 4 -49 4q-28 0 -54.5 -4.5t-60 -20.5t-57.5 -42.5t-41 -76t-17 -114.5v-37h263v-117h-263v-913h-139v913h-518v-913h-139v913h-129z" />
<glyph unicode="fi" horiz-adv-x="1118" d="M76 913v117h129v39q0 70 14 127.5t36 96t53.5 68t63 46t68 27t64.5 13.5t57 3q34 0 64 -6v-123q-16 4 -50 4q-29 0 -55.5 -4.5t-60 -20.5t-57.5 -42.5t-41 -76t-17 -114.5v-37h608v-1030h-137v913h-471v-913h-139v913h-129zM809 1266v174h149v-174h-149z" />
<glyph unicode="fl" horiz-adv-x="1142" d="M76 905v117h129v47q0 70 14 127.5t36.5 96t54 68t63 46t68 27t64.5 13.5t56 3q34 0 64 -6v-123q-16 4 -50 4q-29 0 -55 -4.5t-59.5 -20.5t-57.5 -42.5t-40.5 -76t-16.5 -114.5v-45h262v-117h-262v-905h-141v905h-129zM803 244v1196h139v-1166q0 -48 10.5 -80.5t29 -48 t36.5 -21t41 -5.5q21 0 33 2v-125q-24 -4 -52 -4q-30 0 -57.5 4.5t-62 20t-59 41.5t-41.5 74t-17 112z" />
<glyph unicode="ffi" horiz-adv-x="1775" d="M76 913v117h129v39q0 70 14 127.5t36 96t53.5 68t63 46t68 27t64.5 13.5t57 3q34 0 64 -6v-123q-16 4 -50 4q-29 0 -55.5 -4.5t-60 -20.5t-57.5 -42.5t-41 -76t-17 -114.5v-37h518v39q0 70 14 127.5t36 96t53.5 68t63 46t68 27t64.5 13.5t56 3q33 0 63 -6v-123 q-16 4 -49 4q-28 0 -54.5 -4.5t-60 -20.5t-57.5 -42.5t-41 -76t-17 -114.5v-37h609v-1030h-140v913h-469v-913h-139v913h-518v-913h-139v913h-129zM1466 1266v174h150v-174h-150z" />
<glyph unicode="ffl" horiz-adv-x="1798" d="M76 913v117h129v39q0 70 14 127.5t36 96t53.5 68t63 46t68 27t64.5 13.5t57 3q34 0 64 -6v-123q-16 4 -50 4q-29 0 -55.5 -4.5t-60 -20.5t-57.5 -42.5t-41 -76t-17 -114.5v-37h518v39q0 70 14 127.5t36 96t53.5 68t63 46t68 27t64.5 13.5t56 3q33 0 63 -6v-123 q-16 4 -49 4q-28 0 -54.5 -4.5t-60 -20.5t-57.5 -42.5t-41 -76t-17 -114.5v-37h263v-117h-263v-913h-139v913h-518v-913h-139v913h-129zM1460 244v1196h139v-1166q0 -48 10.5 -80.5t29 -48t36.5 -21t41 -5.5q21 0 33 2v-125q-24 -4 -51 -4q-30 0 -57.5 4.5t-62 20 t-59.5 41.5t-42 74t-17 112z" />
<glyph unicode="fj" horiz-adv-x="1118" d="M76 913v117h129v39q0 70 14 127.5t36 96t53.5 68t63 46t68 27t64.5 13.5t57 3q34 0 64 -6v-123q-16 4 -50 4q-29 0 -55.5 -4.5t-60 -20.5t-57.5 -42.5t-41 -76t-17 -114.5v-37h608v-1067q0 -98 -26.5 -171.5t-65 -113t-91 -63.5t-93 -30.5t-82.5 -6.5q-29 0 -59 6v123 q16 -4 45 -4t55.5 4.5t61 21t59 43.5t42 77.5t17.5 117.5v946h-471v-913h-139v913h-129zM809 1266v174h149v-174h-149z" />
<glyph unicode=" "  horiz-adv-x="512" />
<glyph unicode="&#x09;" horiz-adv-x="512" />
<glyph unicode="&#xa0;" horiz-adv-x="512" />
<glyph unicode="!" horiz-adv-x="536" d="M188 0v162h160v-162h-160zM195 1440h143l-6 -1063h-131z" />
<glyph unicode="&#x22;" horiz-adv-x="692" d="M162 1116v344h121v-344h-121zM410 1116v344h120v-344h-120z" />
<glyph unicode="#" horiz-adv-x="1486" d="M96 399l21 115h291l71 401h-291l21 115h289l71 410h125l-71 -410h354l72 410h125l-72 -410h287l-19 -115h-287l-71 -401h286l-20 -115h-287l-69 -399h-125l69 399h-354l-70 -399h-125l70 399h-291zM532 514h355l71 401h-356z" />
<glyph unicode="$" horiz-adv-x="1163" d="M135 160l84 108q69 -70 171.5 -113.5t205.5 -43.5q122 0 204.5 67.5t82.5 181.5q0 71 -40 126.5t-104 93t-141 71t-154.5 71t-141.5 82.5t-104 114.5t-40 158.5q0 143 104.5 251.5t272.5 129.5v195h114v-193q205 -10 342 -135l-69 -119q-60 55 -145.5 89t-170.5 34 q-133 0 -218 -74.5t-85 -173.5q0 -53 25 -96.5t67 -74.5t96 -58.5t114.5 -53t120.5 -52.5t114 -62.5t96 -78.5t67 -104.5t25 -135.5q0 -153 -102 -260.5t-277 -124.5v-191h-114v191q-112 8 -219 54.5t-181 125.5z" />
<glyph unicode="%" horiz-adv-x="1490" d="M113 1180q0 118 83.5 201t202.5 83t204 -83.5t85 -200.5q0 -118 -85 -201.5t-204 -83.5q-120 0 -203 83t-83 202zM125 0l1096 1440h147l-1096 -1440h-147zM233 1180q0 -71 48 -120.5t118 -49.5t118 49.5t48 120.5q0 70 -48 120t-118 50t-118 -50t-48 -120zM805 258 q0 119 83.5 203t203.5 84t204 -84t84 -203q0 -117 -84 -200t-204 -83t-203.5 83t-83.5 200zM926 260q0 -71 48 -120.5t118 -49.5t119 49.5t49 120.5q0 70 -49 120t-119 50t-118 -50t-48 -120z" />
<glyph unicode="&#x26;" horiz-adv-x="1361" d="M123 397q0 129 70 235.5t192 143.5v4q-90 38 -144.5 118t-54.5 202q0 166 117 265t313 99q81 0 164 -22l-39 -117q-58 14 -118 14q-127 0 -209 -66.5t-82 -180.5q0 -33 6 -64.5t26 -68.5t52 -64t90 -45.5t135 -18.5h303v203h141v-203h197v-126h-197v-211 q0 -253 -127 -386t-350 -133q-213 0 -349 120t-136 302zM270 406q0 -127 92 -212t246 -85q159 0 247.5 94.5t88.5 294.5v207h-303q-182 0 -276.5 -80t-94.5 -219z" />
<glyph unicode="'" horiz-adv-x="444" d="M162 1116v344h121v-344h-121z" />
<glyph unicode="(" horiz-adv-x="569" d="M119 690q0 426 229 805h131q-231 -385 -231 -807q0 -474 231 -883h-131q-108 188 -168.5 417.5t-60.5 467.5z" />
<glyph unicode=")" horiz-adv-x="569" d="M90 -195q232 416 232 883q0 412 -232 807h129q232 -379 232 -805q0 -239 -61.5 -468t-170.5 -417h-129z" />
<glyph unicode="*" horiz-adv-x="1015" d="M115 1104l39 129l297 -109l-13 316h137l-12 -316l297 107l43 -125l-303 -88v-4l193 -246l-109 -80l-174 260h-4l-176 -258l-109 78l195 246v4z" />
<glyph unicode="+" horiz-adv-x="1163" d="M47 522v119h473v522h125v-522h471v-119h-471v-522h-125v522h-473z" />
<glyph unicode="," horiz-adv-x="536" d="M90 -199l117 367h160l-156 -367h-121z" />
<glyph unicode="-" horiz-adv-x="884" d="M152 518v127h581v-127h-581z" />
<glyph unicode="." horiz-adv-x="471" d="M152 0v170h167v-170h-167z" />
<glyph unicode="/" horiz-adv-x="823" d="M86 -86l520 1606h131l-520 -1606h-131z" />
<glyph unicode="0" horiz-adv-x="1263" d="M135 721q0 129 15.5 237t52 203t92.5 161t141.5 104t194.5 38q110 0 195.5 -38t141.5 -104t92.5 -161t52 -203t15.5 -237t-15.5 -237.5t-52 -204.5t-92.5 -162t-141.5 -104t-195.5 -38q-109 0 -194.5 38t-141.5 104.5t-92.5 162t-52 204t-15.5 237.5zM283 721 q0 -109 10 -197t34.5 -167t63.5 -132.5t99.5 -84.5t140.5 -31t141.5 31t100.5 84.5t63.5 132.5t34.5 167t10 197q0 108 -10 195.5t-34.5 166t-63.5 131.5t-100.5 84t-141.5 31t-140.5 -31t-99.5 -84t-63.5 -131.5t-34.5 -166t-10 -195.5z" />
<glyph unicode="1" horiz-adv-x="966" d="M117 0v127h323v1057l2 80h-4q-14 -29 -71 -86l-154 -152l-90 90l326 324h131v-1313h317v-127h-780z" />
<glyph unicode="2" horiz-adv-x="1155" d="M119 92q0 103 41 191.5t106 153t143.5 123t157.5 112t144 108.5t106 124.5t41 148.5q0 120 -83 198t-216 78q-98 0 -183 -54t-140 -142l-105 71q63 114 179 187t257 73q199 0 319 -115t120 -288q0 -77 -25 -146t-67 -122.5t-97 -102.5t-115 -91.5t-121 -83t-115.5 -83.5 t-97 -88t-68 -100.5t-26.5 -116.5h754v-127h-901q-8 66 -8 92z" />
<glyph unicode="3" horiz-adv-x="1150" d="M100 172l88 109q65 -71 164 -119.5t205 -48.5q133 0 230.5 87.5t97.5 221.5q0 97 -52 168.5t-132.5 105t-176.5 33.5h-100l-35 84l361 422l75 80v4q-40 -6 -116 -6h-541v127h842v-94l-428 -496q58 -3 116 -17t119 -46.5t107.5 -79t76 -119.5t29.5 -162q0 -122 -61 -225 t-170 -164.5t-242 -61.5q-126 0 -247 52.5t-210 144.5z" />
<glyph unicode="4" horiz-adv-x="1230" d="M78 399v93l706 948h154v-918h205v-123h-205v-399h-141v399h-719zM248 522h549v604q0 27 2 61.5t4 55.5l2 21h-4q-35 -60 -72 -111l-481 -627v-4z" />
<glyph unicode="5" horiz-adv-x="1136" d="M111 178l92 101q48 -70 130 -118t193 -48q151 0 255 95t104 241q0 147 -104.5 243t-260.5 96q-66 0 -137 -21t-125 -58l-90 32l78 699h696v-127h-571l-43 -369l-13 -82h4q32 21 95.5 38.5t122.5 17.5q214 0 354.5 -136.5t140.5 -332.5q0 -131 -66 -240t-181 -171.5 t-253 -62.5q-126 0 -238 53.5t-183 149.5z" />
<glyph unicode="6" horiz-adv-x="1206" d="M127 649q0 112 22.5 224t72.5 219t121.5 189.5t179 132.5t235.5 50q148 0 266 -59l-53 -125q-84 49 -213 49q-107 0 -195 -50t-145 -133.5t-91 -183.5t-44 -208h4q52 76 151.5 122t212.5 46q197 0 322 -130.5t125 -340.5q0 -214 -129 -345t-322 -131q-154 0 -273 88 t-183 241t-64 345zM281 532q0 -46 14.5 -100.5t46 -112t74.5 -104t105.5 -76.5t133.5 -30q134 0 216.5 97.5t82.5 248.5q0 155 -88.5 247.5t-236.5 92.5q-137 0 -242.5 -75t-105.5 -188z" />
<glyph unicode="7" horiz-adv-x="1079" d="M90 1313v127h936v-99l-668 -1341h-147l582 1180q17 35 36.5 68t30.5 49l10 16v4q-34 -4 -106 -4h-674z" />
<glyph unicode="8" horiz-adv-x="1218" d="M121 406q0 66 21 128t48.5 104.5t65.5 81t62 56.5t47 33q-175 115 -175 287q0 74 28 139.5t81 117t137.5 81.5t190.5 30q199 0 319.5 -103t120.5 -269q0 -68 -22 -136t-56 -120.5t-59.5 -84t-48.5 -53.5q97 -56 150.5 -129t53.5 -178q0 -172 -135 -294t-342 -122 q-97 0 -185 31t-155 86t-107 136.5t-40 177.5zM268 416q0 -134 102.5 -222t235.5 -88q132 0 233 81t101 202q0 47 -21 88t-51 69t-81.5 57t-94 47t-108 46t-105.5 47q-22 -14 -41.5 -28.5t-53 -46.5t-57 -65.5t-41.5 -83.5t-18 -103zM334 1098q0 -46 19.5 -85.5t46 -66.5 t76.5 -56.5t86.5 -45.5t102.5 -44.5t99 -43.5q160 160 160 325q0 116 -83 184t-216 68q-134 0 -212.5 -67.5t-78.5 -167.5z" />
<glyph unicode="9" horiz-adv-x="1206" d="M109 985q0 109 35 200t96.5 151.5t144 94t176.5 33.5q153 0 271.5 -87.5t182.5 -241.5t64 -347q0 -92 -16.5 -185.5t-48.5 -185t-84.5 -171t-120.5 -140.5t-161.5 -96t-201.5 -35q-141 0 -264 60l56 125q92 -51 208 -51q108 0 197 50t146.5 134t91.5 183.5t45 209.5h-4 q-54 -76 -154 -122t-211 -46q-198 0 -323 130.5t-125 336.5zM252 985q0 -154 89 -247t237 -93q142 0 246 77.5t104 168.5q0 73 -27.5 150t-74 141.5t-116.5 105.5t-147 41q-145 0 -228 -95.5t-83 -248.5z" />
<glyph unicode=":" horiz-adv-x="464" d="M152 0v164h159v-164h-159zM152 866v164h159v-164h-159z" />
<glyph unicode=";" horiz-adv-x="575" d="M135 -199l101 367h153l-135 -367h-119zM238 866v164h157v-164h-157z" />
<glyph unicode="&#x3c;" horiz-adv-x="1163" d="M92 530v103l926 414v-138l-754 -325v-4l754 -326v-137z" />
<glyph unicode="=" horiz-adv-x="1163" d="M104 344v119h955v-119h-955zM104 700v119h955v-119h-955z" />
<glyph unicode="&#x3e;" horiz-adv-x="1163" d="M145 117v137l752 326v4l-752 325v138l924 -414v-103z" />
<glyph unicode="?" horiz-adv-x="921" d="M86 1350q57 51 147 83.5t183 32.5q176 0 292.5 -101.5t116.5 -260.5q0 -69 -20 -128t-52.5 -101t-71.5 -80t-78 -73t-71.5 -71t-52.5 -83.5t-20 -102.5v-88h-137v92q0 66 19.5 122.5t51 97.5t69.5 78t76 72t69.5 71.5t51 84.5t19.5 103q0 100 -75.5 167.5t-192.5 67.5 q-131 0 -246 -86zM309 0v162h162v-162h-162z" />
<glyph unicode="@" horiz-adv-x="1593" d="M123 496q0 205 97.5 378.5t265 274t364.5 100.5q108 0 195 -21.5t143.5 -58t94 -87t53.5 -105.5t16 -117v-645h145v-115h-551q-174 0 -290.5 116t-116.5 278t116 277.5t291 115.5h266q-3 103 -92 172t-260 69q-165 0 -302.5 -86t-215.5 -231t-78 -315q0 -172 77.5 -315.5 t217 -227.5t311.5 -84v-123q-209 0 -381 100t-269 271.5t-97 378.5zM682 496q0 -118 79 -199.5t197 -81.5h254v563h-249q-120 0 -200.5 -82.5t-80.5 -199.5z" />
<glyph unicode="A" horiz-adv-x="1294" d="M43 0l528 1440h152l528 -1440h-149l-166 459h-580l-163 -459h-150zM399 582h494l-188 522q-11 30 -25 77t-22 79l-9 32h-4q-30 -120 -55 -188z" />
<glyph unicode="B" horiz-adv-x="1261" d="M207 0v1440h491q172 0 280.5 -98.5t108.5 -264.5q0 -110 -48.5 -190.5t-133.5 -122.5v-4q110 -31 176 -129t66 -228q0 -187 -122.5 -295t-309.5 -108h-508zM348 127h369q130 0 206 76t76 205q0 128 -78.5 206t-205.5 78h-367v-565zM348 815h350q109 0 176.5 70t67.5 182 q0 111 -67 178.5t-181 67.5h-346v-498z" />
<glyph unicode="C" horiz-adv-x="1470" d="M113 729q0 207 92 375t258 264t373 96q146 0 284 -46t236 -140l-76 -104q-84 73 -203 115t-237 42q-171 0 -304.5 -79.5t-204.5 -215.5t-71 -305q0 -171 71 -312t206.5 -225.5t308.5 -84.5q128 0 250.5 50t214.5 140l82 -100q-228 -224 -551 -224q-214 0 -381.5 101 t-257.5 272t-90 381z" />
<glyph unicode="D" horiz-adv-x="1511" d="M207 0v1440h463q330 0 526.5 -191t196.5 -528q0 -338 -196.5 -529.5t-526.5 -191.5h-463zM348 127h307q271 0 430.5 154.5t159.5 439.5q0 282 -159.5 437t-430.5 155h-307v-1186z" />
<glyph unicode="E" horiz-adv-x="1146" d="M207 0v1440h809v-127h-668v-525h547v-126h-547v-535h707v-127h-848z" />
<glyph unicode="F" horiz-adv-x="1036" d="M207 0v1440h756v-127h-615v-541h529v-127h-529v-645h-141z" />
<glyph unicode="G" horiz-adv-x="1552" d="M113 721q0 205 94.5 375.5t262 269t370.5 98.5q141 0 275.5 -42.5t236.5 -125.5l-78 -108q-75 63 -194 103t-234 40q-171 0 -306 -81t-207.5 -219.5t-72.5 -307.5q0 -131 43.5 -245t119.5 -195t182.5 -127.5t228.5 -46.5q127 0 246.5 55.5t205.5 152.5v244h-246v127h379 v-688h-129v109l2 61h-4q-79 -87 -204.5 -141t-264.5 -54q-146 0 -276.5 57t-225 155t-149.5 237t-55 297z" />
<glyph unicode="H" horiz-adv-x="1529" d="M207 0v1440h141v-656h834v656h143v-1440h-143v657h-834v-657h-141z" />
<glyph unicode="I" horiz-adv-x="555" d="M207 0v1440h141v-1440h-141z" />
<glyph unicode="J" horiz-adv-x="1064" d="M66 403v58h141v-53q0 -128 65.5 -213.5t194.5 -85.5q112 0 188 71t76 223v910h-352v127h493v-1037q0 -112 -34.5 -197.5t-93 -134t-128 -72.5t-147.5 -24q-62 0 -118.5 14.5t-109 47.5t-91 81.5t-61.5 121.5t-23 163z" />
<glyph unicode="K" horiz-adv-x="1210" d="M207 0v1440h141v-625h242l389 625h162l-432 -680v-4l460 -756h-165l-414 688h-242v-688h-141z" />
<glyph unicode="L" horiz-adv-x="1058" d="M207 0v1440h141v-1313h668v-127h-809z" />
<glyph unicode="M" horiz-adv-x="1724" d="M152 0l114 1440h146l379 -846q15 -33 32 -77t27 -71l10 -28h4q37 102 70 176l379 846h145l115 -1440h-141l-80 1008q-3 35 -4 85v46v37v32h-5q-42 -126 -75 -200l-340 -740h-131l-338 740q-15 32 -34.5 83t-31.5 86l-12 35h-4q1 -32 1 -60q0 -86 -5 -144l-80 -1008h-141z " />
<glyph unicode="N" horiz-adv-x="1538" d="M207 0v1440h137l735 -1037q22 -32 51.5 -80.5t48.5 -80.5l19 -33h4q-12 118 -12 194v1037h141v-1440h-137l-735 1036q-22 32 -51.5 81t-48.5 81l-19 33h-4q12 -119 12 -195v-1036h-141z" />
<glyph unicode="O" horiz-adv-x="1689" d="M111 731q0 204 95 371.5t263.5 264.5t374.5 97q207 0 375.5 -97t263 -264.5t94.5 -371.5q0 -210 -94.5 -383t-263 -273t-375.5 -100q-206 0 -374.5 100t-263.5 273t-95 383zM258 731q0 -174 76 -316.5t210.5 -224t299.5 -81.5q166 0 300.5 81.5t210 224t75.5 316.5 q0 168 -75.5 305.5t-210 216t-300.5 78.5q-165 0 -299.5 -78.5t-210.5 -216t-76 -305.5z" />
<glyph unicode="P" horiz-adv-x="1222" d="M207 0v1440h498q195 0 319.5 -118.5t124.5 -315.5q0 -199 -125 -320t-319 -121h-357v-565h-141zM348 692h338q146 0 232 83.5t86 230.5q0 144 -86 225.5t-230 81.5h-340v-621z" />
<glyph unicode="Q" horiz-adv-x="1689" d="M113 729q0 204 95 372.5t262.5 265.5t373.5 97q157 0 294 -57t233.5 -155t152 -234t55.5 -289q0 -142 -47 -270.5t-133 -225.5l178 -178l-86 -90l-174 180q-201 -170 -473 -170q-207 0 -375 100.5t-262 273t-94 380.5zM260 729q0 -172 76.5 -314t211 -224t296.5 -82 q104 0 201.5 34.5t171.5 98.5l-179 180l86 88l174 -178q64 79 99 182t35 215q0 169 -77 307.5t-211.5 216.5t-299.5 78q-122 0 -230 -46t-186 -125.5t-123 -191.5t-45 -239z" />
<glyph unicode="R" horiz-adv-x="1263" d="M207 0v1440h436q174 0 264 -41q99 -47 156 -140t57 -221q0 -146 -75.5 -254.5t-198.5 -142.5v-4q16 -18 39 -57l313 -580h-164l-323 606h-363v-606h-141zM348 733h342q130 0 207.5 82.5t77.5 218.5q0 86 -40 153t-112 99q-62 27 -188 27h-287v-580z" />
<glyph unicode="S" horiz-adv-x="1093" d="M96 160l84 108q71 -69 170.5 -113t202.5 -44q129 0 210 67t81 178q0 73 -39.5 130t-103 94.5t-139.5 71t-152.5 70.5t-140 81.5t-103 115t-39.5 160.5q0 115 60.5 203.5t163 135t229.5 46.5q105 0 207.5 -36t173.5 -103l-70 -119q-59 56 -145.5 89.5t-172.5 33.5 q-128 0 -214.5 -65.5t-86.5 -176.5q0 -70 39.5 -123.5t103 -89t139.5 -68t152.5 -69t140 -82t103 -118t39.5 -166.5q0 -171 -118.5 -283.5t-321.5 -112.5q-126 0 -245.5 48.5t-207.5 136.5z" />
<glyph unicode="T" horiz-adv-x="1243" d="M35 1313v127h1175v-127h-518v-1313h-141v1313h-516z" />
<glyph unicode="U" horiz-adv-x="1480" d="M190 502v938h142v-936q0 -184 110.5 -289.5t296.5 -105.5q188 0 299 106t111 293v932h143v-938q0 -238 -152.5 -382.5t-398.5 -144.5t-398.5 144.5t-152.5 382.5z" />
<glyph unicode="V" horiz-adv-x="1294" d="M39 1440h151l400 -1094l55 -184h4q29 110 56 184l399 1094h151l-532 -1440h-152z" />
<glyph unicode="W" horiz-adv-x="1898" d="M72 1440h149l279 -1118l32 -154h5q13 78 36 154l308 1118h135l307 -1118l35 -154h4q13 80 31 154l293 1118h147l-385 -1440h-168l-279 1014q-12 41 -25 94.5t-20 87.5l-6 33h-6q-24 -123 -51 -215l-279 -1014h-170z" />
<glyph unicode="X" horiz-adv-x="1179" d="M39 0l459 752l-420 688h166l252 -426l94 -166h4q43 92 88 166l254 426h166l-422 -688l461 -752h-162l-301 498l-90 159h-4q-43 -85 -88 -161l-295 -496h-162z" />
<glyph unicode="Y" horiz-adv-x="1185" d="M35 1440h162l305 -522q19 -34 41 -77t35 -69l12 -27h4q45 97 88 173l305 522h162l-485 -822v-618h-142v618z" />
<glyph unicode="Z" horiz-adv-x="1185" d="M72 0v100l745 1082q23 35 48 67.5t39 48.5l14 15v4q-35 -4 -107 -4h-698v127h981v-101l-746 -1081q-23 -35 -48 -67.5t-38 -48.5l-14 -15v-4q34 4 106 4h746v-127h-1028z" />
<glyph unicode="[" horiz-adv-x="577" d="M188 -195v1690h279v-115h-150v-1460h150v-115h-279z" />
<glyph unicode="\" horiz-adv-x="823" d="M86 1520h131l520 -1606h-131z" />
<glyph unicode="]" horiz-adv-x="577" d="M111 -80h149v1460h-149v115h278v-1690h-278v115z" />
<glyph unicode="^" horiz-adv-x="1241" d="M150 512l407 928h94l408 -928h-135l-320 758l-319 -758h-135z" />
<glyph unicode="_" horiz-adv-x="1206" d="M76 0h1057v-119h-1057v119z" />
<glyph unicode="`" horiz-adv-x="1032" d="M365 1784h161l142 -244h-127z" />
<glyph unicode="a" horiz-adv-x="1058" d="M76 276q0 359 626 359h62v29q0 266 -254 266q-157 0 -293 -99l-63 107q62 53 161.5 85t202.5 32q187 0 286 -101.5t99 -294.5v-659h-133v121q0 23 1.5 44.5t2.5 31.5l2 10h-4q-42 -99 -135.5 -165.5t-212.5 -66.5q-66 0 -127.5 19.5t-111.5 56t-79.5 95t-29.5 130.5z M217 289q0 -79 61.5 -138t170.5 -59q58 0 109 22.5t88 61t64 88t40.5 104.5t13.5 109v47h-59q-45 0 -78 -1t-87.5 -6t-94.5 -13.5t-85.5 -26t-74.5 -41.5t-48.5 -62t-19.5 -85z" />
<glyph unicode="b" horiz-adv-x="1206" d="M166 0v1440h139v-508q0 -22 -1.5 -43.5t-3.5 -32.5l-1 -10h4q46 96 140 152.5t212 56.5q207 0 328 -149t121 -390q0 -244 -129.5 -392.5t-335.5 -148.5q-108 0 -200 57t-142 154h-4q6 -35 6 -84v-102h-133zM301 512q0 -107 35 -198.5t111.5 -152.5t181.5 -61 q142 0 238 112t96 302q0 188 -91 301t-237 113q-67 0 -125.5 -24.5t-106 -73t-75 -130.5t-27.5 -188z" />
<glyph unicode="c" horiz-adv-x="1110" d="M96 514q0 155 72 279.5t195.5 193t273.5 68.5q106 0 208.5 -38t168.5 -110l-72 -104q-55 57 -136 92t-165 35q-171 0 -286 -117t-115 -299q0 -180 116 -296t289 -116q91 0 180 38t150 104l63 -105q-68 -75 -175.5 -119.5t-225.5 -44.5q-152 0 -275 67.5t-194.5 191.5 t-71.5 280z" />
<glyph unicode="d" horiz-adv-x="1206" d="M100 516q0 243 129.5 391t335.5 148q108 0 199.5 -55t138.5 -148h4q-6 35 -6 78v510h139v-1440h-135v117q0 20 1.5 38t3.5 27l1 8h-4q-46 -94 -138.5 -154.5t-219.5 -60.5q-204 0 -326.5 150t-122.5 391zM244 516q0 -189 90.5 -302.5t236.5 -113.5q67 0 125 24.5 t105 73.5t74.5 131t27.5 189q0 108 -34.5 198.5t-110 151t-180.5 60.5q-142 0 -238 -111t-96 -301z" />
<glyph unicode="e" horiz-adv-x="1132" d="M96 514q0 124 40.5 227t110 171t162 105.5t197.5 37.5q137 0 236.5 -66t146.5 -172t47 -237q0 -24 -4 -70h-790q3 -127 58.5 -221t144 -140.5t196.5 -46.5q84 0 166.5 33t146.5 90l64 -106q-72 -66 -175.5 -105t-205.5 -39q-152 0 -275.5 68t-194.5 191.5t-71 279.5z M248 621h647q-6 154 -88.5 236.5t-204.5 82.5q-134 0 -232 -84t-122 -235z" />
<glyph unicode="f" horiz-adv-x="659" d="M76 905v117h129v47q0 70 14 127.5t36.5 96t54 68t63 46t68 27t64.5 13.5t56 3q34 0 64 -6v-123q-16 4 -50 4q-29 0 -55 -4.5t-59.5 -20.5t-57.5 -42.5t-40.5 -76t-16.5 -114.5v-45h262v-117h-262v-905h-141v905h-129z" />
<glyph unicode="g" horiz-adv-x="1191" d="M102 535q0 234 121 377t326 143q110 0 203.5 -45.5t138.5 -135.5h4q-4 12 -4 35v121h135v-1005q0 -95 -27.5 -172.5t-74 -129.5t-110.5 -87t-135 -50.5t-149 -15.5q-177 0 -335 84l51 113q137 -70 280 -70q161 0 260 79t99 242v103q0 17 2 36t4 29l2 11h-4 q-100 -191 -328 -191q-206 0 -332.5 148t-126.5 381zM244 537q0 -185 92.5 -295.5t245.5 -110.5q64 0 117.5 21t97 66.5t68 126t24.5 190.5q0 395 -326 395q-151 0 -235 -104t-84 -289z" />
<glyph unicode="h" horiz-adv-x="1216" d="M166 0v1440h139v-566q0 -21 -1.5 -41.5t-3.5 -30.5l-1 -11h4q16 40 49 82.5t83 85t124 69.5t156 27q185 0 265.5 -100.5t80.5 -299.5v-655h-139v618q0 54 -4 94.5t-18 82.5t-38 68.5t-66 43.5t-100 17q-165 0 -278 -121t-113 -305v-498h-139z" />
<glyph unicode="i" horiz-adv-x="471" d="M160 1266v174h151v-174h-151zM166 0v1030h139v-1030h-139z" />
<glyph unicode="j" horiz-adv-x="471" d="M-113 -293q16 -4 45 -4q28 0 54.5 4.5t61 21t59 43.5t42 77.5t17.5 117.5v1063h139v-1067q0 -98 -26.5 -171.5t-65 -113t-91 -63.5t-93 -30.5t-82.5 -6.5q-30 0 -60 6v123zM160 1266v174h151v-174h-151z" />
<glyph unicode="k" horiz-adv-x="1015" d="M166 0v1440h139v-803h166l307 393h168l-358 -448v-4l395 -578h-168l-342 514h-168v-514h-139z" />
<glyph unicode="l" horiz-adv-x="503" d="M166 244v1196h139v-1166q0 -48 10.5 -80.5t29 -48t36.5 -21t41 -5.5q21 0 33 2v-125q-24 -4 -52 -4q-30 0 -57.5 4.5t-62 20t-59 41.5t-41.5 74t-17 112z" />
<glyph unicode="m" horiz-adv-x="1875" d="M166 0v1030h137v-162q0 -20 -2 -40.5t-4 -31.5l-2 -10h4q39 107 149.5 188t229.5 81q140 0 217.5 -65t99.5 -193h4q46 105 151 181.5t228 76.5q181 0 261.5 -101t80.5 -299v-655h-139v621q0 55 -5 97.5t-19.5 83t-38.5 66.5t-64 42t-94 16q-100 0 -180.5 -63t-123 -160 t-42.5 -205v-498h-140v621q0 53 -3.5 92t-16.5 82t-36 69.5t-63.5 44t-97.5 17.5q-100 0 -182.5 -63.5t-126 -161t-43.5 -203.5v-498h-139z" />
<glyph unicode="n" horiz-adv-x="1216" d="M166 0v1030h137v-162q0 -20 -2 -40.5t-4 -31.5l-2 -10h4q13 31 35 64.5t59 71t82 66.5t108 48t132 19q185 0 265.5 -100.5t80.5 -299.5v-655h-139v618q0 54 -4 94.5t-18 82.5t-38 68.5t-66 43.5t-100 17q-165 0 -278 -120.5t-113 -299.5v-504h-139z" />
<glyph unicode="o" horiz-adv-x="1277" d="M96 520q0 150 72.5 273t197 192.5t273.5 69.5t274 -69.5t198 -192.5t73 -273q0 -114 -43 -216t-116.5 -173.5t-174 -113.5t-211.5 -42t-211.5 42t-173 113.5t-115.5 173.5t-43 216zM240 520q0 -180 115.5 -299t283.5 -119t284.5 119.5t116.5 298.5q0 174 -117 292 t-284 118t-283 -118t-116 -292z" />
<glyph unicode="p" horiz-adv-x="1206" d="M166 -410v1440h133v-108l-6 -80h4q47 100 142.5 156.5t215.5 56.5q207 0 328 -149t121 -390q0 -244 -129 -392.5t-332 -148.5q-109 0 -199 54t-141 151h-4q6 -37 6 -90v-500h-139zM301 512q0 -106 37 -198.5t113.5 -153t177.5 -60.5q142 0 238 112t96 302q0 188 -91 301 t-237 113q-67 0 -125.5 -24.5t-106 -73t-75 -130.5t-27.5 -188z" />
<glyph unicode="q" horiz-adv-x="1206" d="M100 516q0 243 129.5 391t335.5 148q109 0 201 -55.5t141 -151.5h4q-6 33 -6 78v104h135v-1440h-139v504q0 24 1.5 46.5t3.5 33.5l1 10h-4q-45 -87 -134 -148t-220 -61q-204 0 -326.5 150t-122.5 391zM244 516q0 -189 90.5 -302.5t236.5 -113.5q67 0 125 24.5t105 73.5 t74.5 131t27.5 189q0 108 -34.5 198.5t-110 151t-180.5 60.5q-142 0 -238 -111t-96 -301z" />
<glyph unicode="r" horiz-adv-x="731" d="M166 0v1030h137v-190q0 -20 -2 -40.5t-4 -31.5l-2 -10h4q40 123 127.5 202.5t202.5 79.5q31 0 55 -6v-137q-12 4 -51 4q-83 0 -148 -43t-103 -113t-57.5 -149t-19.5 -160v-436h-139z" />
<glyph unicode="s" horiz-adv-x="897" d="M76 125l74 98q58 -59 141.5 -92t169.5 -33q90 0 148.5 43.5t58.5 122.5q0 46 -30.5 81.5t-78.5 59.5t-106.5 46.5t-117.5 49t-107 59.5t-78.5 86t-30.5 122q0 135 100.5 211t249.5 76q198 0 317 -113l-65 -104q-43 43 -115 68.5t-143 25.5q-89 0 -148 -40t-59 -120 q0 -48 30.5 -84t79 -60.5t107 -46.5t117.5 -48t107.5 -59t79 -86t30.5 -122q0 -127 -98 -209t-250 -82q-108 0 -210 38t-173 112z" />
<glyph unicode="t" horiz-adv-x="665" d="M68 905v117h137v293h137v-293h260v-117h-260v-516q0 -68 17 -120t41.5 -80t58.5 -45t61 -22t55 -5q30 0 48 4v-125q-24 -4 -60 -4q-43 0 -83.5 6.5t-93.5 30t-91 62.5t-65 112.5t-27 171.5v530h-135z" />
<glyph unicode="u" horiz-adv-x="1204" d="M154 375v655h141v-618q0 -55 4 -95t17.5 -82t37 -68.5t65 -43.5t99.5 -17q114 0 202.5 61.5t133.5 159t45 210.5v493h139v-1030h-137v162q0 20 2 40.5t4 31.5l2 10h-4q-13 -32 -35.5 -66.5t-59 -71.5t-81 -65.5t-104.5 -47t-125 -18.5q-181 0 -263.5 98t-82.5 302z" />
<glyph unicode="v" horiz-adv-x="1046" d="M51 1030h150l284 -756q8 -23 16.5 -54t13.5 -50l5 -20h4q19 73 37 124l285 756h147l-393 -1030h-151z" />
<glyph unicode="w" horiz-adv-x="1689" d="M59 1030h150l248 -766l30 -110h5q16 59 32 110l252 762h139l252 -762l33 -110h4q13 57 31 110l248 766h147l-346 -1030h-154l-251 733l-31 113h-4q-17 -62 -33 -113l-250 -733h-153z" />
<glyph unicode="x" horiz-adv-x="980" d="M41 0l360 537l-331 493h163l222 -346l34 -59h5q18 32 34 59l222 346h161l-331 -493l362 -537h-164l-250 387l-34 57h-5q-16 -28 -34 -57l-252 -387h-162z" />
<glyph unicode="y" horiz-adv-x="1077" d="M39 -369l53 111q6 -5 17.5 -13t44 -21t61.5 -13q64 0 114 46t83 122l61 147l-428 1020h154l301 -751l39 -109h4q15 58 35 109l296 751h150l-508 -1245q-41 -100 -117.5 -157.5t-177.5 -57.5q-47 0 -92.5 15t-67.5 31z" />
<glyph unicode="z" horiz-adv-x="1019" d="M76 0v90l575 723q17 22 37.5 45.5t32.5 35.5l12 13v4q-34 -4 -102 -4h-531v123h822v-92l-576 -721q-17 -23 -38 -46.5t-34 -35.5l-12 -12v-4q35 4 103 4h577v-123h-866z" />
<glyph unicode="{" horiz-adv-x="696" d="M90 598v127q83 17 128.5 79t45.5 157v167q0 70 13 126.5t33 94t48.5 65.5t55.5 43t58.5 24t53.5 11.5t43 2.5h31v-115h-18q-20 0 -39.5 -3.5t-48.5 -18.5t-49.5 -40.5t-36 -75.5t-15.5 -118v-200q0 -87 -43.5 -157t-120.5 -103v-5q75 -29 119.5 -95.5t44.5 -164.5v-225 q0 -68 15.5 -118t36 -75.5t49.5 -40.5t48.5 -18.5t39.5 -3.5h18v-115q-13 -2 -31 -2q-32 0 -64 5t-78 27.5t-80 59.5t-58.5 109t-24.5 168v195q0 92 -44.5 154t-129.5 79z" />
<glyph unicode="|" horiz-adv-x="499" d="M184 -322v1936h129v-1936h-129z" />
<glyph unicode="}" horiz-adv-x="696" d="M96 -82h19q20 0 39 3.5t48 18.5t49.5 40.5t36 76t15.5 117.5v225q0 93 42.5 162t121.5 98v5q-71 28 -117.5 97.5t-46.5 162.5v200q0 67 -15.5 117.5t-36 76t-49.5 40.5t-48 18.5t-39 3.5h-19v115h31q21 0 43 -2.5t53.5 -11.5t58.5 -24t55.5 -43t48.5 -65.5t33 -94 t13 -126.5v-167q0 -93 44.5 -157t129.5 -79v-127q-83 -13 -128.5 -77.5t-45.5 -155.5v-195q0 -96 -24.5 -168t-58.5 -109t-80 -59.5t-78 -27.5t-64 -5l-31 2v115z" />
<glyph unicode="~" horiz-adv-x="1232" d="M152 428q0 162 68.5 239.5t189.5 77.5q62 0 111 -22t81 -53.5t61.5 -62.5t68.5 -53t87 -22q43 0 74 20.5t45.5 54.5t20.5 65.5t6 64.5h118q0 -161 -68.5 -239t-189.5 -78q-62 0 -111 22t-80.5 53t-61 62.5t-69 53.5t-87.5 22q-43 0 -73 -20.5t-44.5 -54t-20.5 -65.5 t-6 -65h-120z" />
<glyph unicode="&#xa1;" horiz-adv-x="491" d="M162 866v162h160v-162h-160zM172 -412l6 1063h131l6 -1063h-143z" />
<glyph unicode="&#xa2;" horiz-adv-x="1163" d="M117 721q0 231 113 389.5t317 181.5v172h115v-172q130 -15 226.5 -94.5t153.5 -208.5l-129 -49q-100 219 -305 219q-115 0 -195 -59t-116.5 -156t-36.5 -223q0 -197 88.5 -318.5t259.5 -121.5q205 0 305 219l129 -49q-58 -128 -153.5 -210.5t-226.5 -93.5v-174h-115v174 q-204 23 -317 182t-113 392z" />
<glyph unicode="&#xa3;" horiz-adv-x="1163" d="M100 0v127h129v541h-90v112h90v305q0 162 119.5 270.5t302.5 108.5q88 0 172.5 -30.5t149.5 -85.5l-88 -103q-43 37 -108 61.5t-124 24.5q-130 0 -205 -73t-75 -181v-297h391v-112h-391v-541h694v-127h-967z" />
<glyph unicode="&#xa4;" horiz-adv-x="1222" d="M117 369v112h147v154h-147v121h147v684h438q200 0 321.5 -109.5t121.5 -296.5q0 -184 -125.5 -291.5t-321.5 -107.5h-292v-154h518v-112h-518v-369h-142v369h-147zM406 756h278q145 0 229 76t84 208q0 131 -83.5 205t-229.5 74h-278v-563z" />
<glyph unicode="&#xa5;" horiz-adv-x="1163" d="M35 1440h162l295 -512q19 -36 41 -82t35 -74l12 -27h4q43 101 88 183l295 512h161l-360 -619h215v-104h-272l-58 -99v-81h330v-105h-330v-432h-143v432h-334v105h334v81l-57 99h-277v104h219z" />
<glyph unicode="&#xa7;" horiz-adv-x="849" d="M117 -41l71 98q31 -26 77.5 -43.5t90.5 -17.5q96 0 160 60t64 163q0 31 -9 66l-133 878h123l139 -889q7 -47 7 -71q0 -144 -98 -237t-255 -93q-134 0 -237 86zM143 1135q0 143 97.5 236t255.5 93q62 0 127 -23.5t110 -62.5l-71 -96q-76 59 -166 59q-97 0 -161.5 -59 t-64.5 -160q0 -31 9 -61l135 -887h-123l-141 889q-7 44 -7 72z" />
<glyph unicode="&#xa8;" horiz-adv-x="1032" d="M299 1608v176h125v-176h-125zM608 1608v176h127v-176h-127z" />
<glyph unicode="&#xa9;" horiz-adv-x="1697" d="M123 721q0 152 57.5 290t154 237t230.5 157.5t281 58.5q150 0 285.5 -58.5t233 -157.5t155 -236.5t57.5 -290.5t-57.5 -291.5t-155 -238t-233 -158t-285.5 -58.5q-197 0 -363 99t-263 271t-97 376zM242 721q0 -176 79.5 -322t218.5 -229.5t306 -83.5q170 0 310.5 83.5 t221 229.5t80.5 322q0 175 -80 320t-221 229t-311 84q-167 0 -306 -84t-218.5 -229.5t-79.5 -319.5zM444 717q0 111 48 205.5t146 155.5t228 61q102 0 191.5 -52t142.5 -139l-94 -63q-37 60 -101.5 100.5t-134.5 40.5q-142 0 -223.5 -90.5t-81.5 -216.5q0 -127 81 -217 t224 -90q70 0 133.5 39t102.5 102l94 -64q-48 -80 -140 -135t-194 -55q-131 0 -229 60.5t-145.5 154t-47.5 203.5z" />
<glyph unicode="&#xaa;" horiz-adv-x="870" d="M162 541v94h538v-94h-538zM164 977q0 227 393 227h25v8q0 152 -144 152q-89 0 -174 -57l-51 77q44 36 109 56t127 20q120 0 182.5 -64.5t62.5 -187.5v-413h-108v100h-4q-25 -47 -77 -80t-116 -33q-90 0 -157.5 51.5t-67.5 143.5zM281 985q0 -44 32.5 -75t92.5 -31 q78 0 127 67.5t49 149.5v18h-27q-274 0 -274 -129z" />
<glyph unicode="&#xab;" horiz-adv-x="1077" d="M102 578l336 421h152l-336 -421l336 -420h-152zM471 578l336 421h151l-335 -421l335 -420h-151z" />
<glyph unicode="&#xac;" horiz-adv-x="1284" d="M166 700v119h956v-495h-125v376h-831z" />
<glyph unicode="&#xad;" horiz-adv-x="884" d="M152 518v127h581v-127h-581z" />
<glyph unicode="&#xae;" horiz-adv-x="1697" d="M123 721q0 152 57.5 290t154 237t230.5 157.5t281 58.5q150 0 285.5 -58.5t233 -157.5t155 -236.5t57.5 -290.5t-57.5 -291.5t-155 -238t-233 -158t-285.5 -58.5q-197 0 -363 99t-263 271t-97 376zM242 721q0 -176 79.5 -322t218.5 -229.5t306 -83.5q170 0 310.5 83.5 t221 229.5t80.5 322q0 175 -80 320t-221 229t-311 84q-167 0 -306 -84t-218.5 -229.5t-79.5 -319.5zM602 322v798h285q108 0 174.5 -65t66.5 -172q0 -84 -44.5 -140t-106.5 -71v-4q9 -10 27 -45l155 -301h-129l-158 323h-153v-323h-117zM719 735h149q65 0 103.5 40.5 t38.5 107.5t-38.5 104t-103.5 37h-149v-289z" />
<glyph unicode="&#xaf;" horiz-adv-x="1032" d="M264 1608v112h504v-112h-504z" />
<glyph unicode="&#xb0;" horiz-adv-x="815" d="M121 1178q0 117 83.5 200.5t203.5 83.5q119 0 203.5 -83.5t84.5 -200.5q0 -118 -84.5 -201.5t-203.5 -83.5q-120 0 -203.5 83t-83.5 202zM242 1178q0 -71 48 -120.5t118 -49.5t117.5 49.5t47.5 120.5q0 70 -47.5 120t-117.5 50t-118 -50t-48 -120z" />
<glyph unicode="&#xb1;" horiz-adv-x="1163" d="M47 522v119h473v522h125v-522h471v-119h-471v-522h-125v522h-473zM84 -213h995v-119h-995v119z" />
<glyph unicode="&#xb2;" d="M98 930q0 69 24.5 127t64 98.5t86.5 75.5t94.5 66t87 62t64 71t24.5 86q0 65 -48 111t-120 46q-100 0 -185 -100l-71 72q38 57 109.5 96t148.5 39q127 0 203.5 -74t76.5 -186q0 -61 -23.5 -113t-61.5 -88.5t-84 -69t-92.5 -62t-85 -60t-64 -71t-27.5 -87.5h455v-103h-570 q-6 34 -6 64z" />
<glyph unicode="&#xb3;" d="M78 981l72 78q31 -44 90 -75.5t129 -31.5q73 0 131.5 53t58.5 130q0 79 -61 125.5t-140 46.5h-67l-29 61l203 238l51 51v4q-37 -6 -76 -6h-313v104h537v-76l-244 -284q47 -5 90 -21.5t81.5 -47t61.5 -81t23 -114.5q0 -119 -88.5 -204t-216.5 -85q-84 0 -164 34.5 t-129 100.5z" />
<glyph unicode="&#xb4;" horiz-adv-x="1032" d="M365 1540l141 244h162l-179 -244h-124z" />
<glyph unicode="&#xb6;" horiz-adv-x="1163" d="M82 969q0 129 66.5 238t178.5 171t242 62h490v-127h-371v-1415h-117v596q-130 0 -242.5 62.5t-179.5 172.5t-67 240zM815 -102v1292h119v-1292h-119z" />
<glyph unicode="&#xb7;" horiz-adv-x="468" d="M152 506v170h163v-170h-163z" />
<glyph unicode="&#xb8;" horiz-adv-x="1032" d="M367 -311q33 -13 86 -13q104 0 104 70q0 33 -31 51.5t-86 18.5l-30 -2l53 227l82 -14v-17l-23 -123q65 -9 104.5 -47t39.5 -98q0 -83 -56.5 -122.5t-140.5 -39.5q-61 0 -102 10v99z" />
<glyph unicode="&#xb9;" d="M158 1556l202 203h107v-790h188v-103h-495v103h194v592l2 49h-2q-8 -16 -43 -49l-82 -80z" />
<glyph unicode="&#xba;" horiz-adv-x="995" d="M154 1126q0 142 100 239t242 97t242 -97t100 -239q0 -145 -100 -243.5t-242 -98.5t-242 98.5t-100 243.5zM188 541v94h621v-94h-621zM266 1126q0 -102 67 -169.5t163 -67.5t162.5 67.5t66.5 169.5q0 100 -66.5 167t-162.5 67t-163 -67t-67 -167z" />
<glyph unicode="&#xbb;" horiz-adv-x="1077" d="M119 158l336 420l-336 421h151l336 -421l-336 -420h-151zM485 158l336 420l-336 421h152l336 -421l-336 -420h-152z" />
<glyph unicode="&#xbc;" horiz-adv-x="1906" d="M125 1239l203 203h106v-791h189v-102h-496v102h195v592l2 49h-2q-8 -16 -43 -49l-82 -80zM522 0l688 1440h119l-686 -1440h-121zM1141 233v78l434 582h111v-557h133v-103h-133v-233h-113v233h-432zM1280 336h293v278q0 24 2 56t4 52l2 19h-4q-33 -55 -68 -100l-229 -301 v-4z" />
<glyph unicode="&#xbd;" horiz-adv-x="1884" d="M125 1239l203 203h106v-791h189v-102h-496v102h195v592l2 49h-2q-8 -16 -43 -49l-82 -80zM522 0l688 1440h119l-686 -1440h-121zM1198 63q0 69 24.5 127t63.5 98.5t86.5 75.5t95 66t86.5 62t63.5 71t24.5 86q0 66 -47.5 112t-119.5 46q-100 0 -185 -100l-71 71 q38 57 109.5 96t148.5 39q127 0 203.5 -74t76.5 -186q0 -61 -23.5 -113t-61.5 -88.5t-84 -69t-92.5 -62t-85 -60t-64 -71t-27.5 -87.5h455v-102h-570q-6 34 -6 63z" />
<glyph unicode="&#xbe;" horiz-adv-x="1947" d="M96 664l72 77q30 -44 89.5 -75t129.5 -31q74 0 132.5 52.5t58.5 129.5q0 79 -61 125.5t-140 46.5h-68l-28 62l202 237l52 51v4q-37 -6 -76 -6h-314v105h537v-76l-244 -285q47 -5 90 -21.5t81.5 -47t61.5 -81t23 -114.5q0 -119 -88.5 -204t-216.5 -85q-84 0 -164 35 t-129 101zM561 0l688 1440h119l-686 -1440h-121zM1182 233v78l434 582h110v-557h134v-103h-134v-233h-112v233h-432zM1321 336h293v278q0 24 2 56t4 52l2 19h-4q-33 -55 -68 -100l-229 -301v-4z" />
<glyph unicode="&#xbf;" horiz-adv-x="901" d="M84 -76q0 69 20 128t52.5 101t72 80t78.5 73t71.5 71t52.5 83.5t20 102.5v88h137v-92q0 -66 -19.5 -122.5t-51 -97.5t-69.5 -78t-76.5 -72t-70 -71.5t-51 -84.5t-19.5 -103q0 -99 76 -167t193 -68q130 0 245 86l78 -103q-57 -51 -146.5 -83.5t-182.5 -32.5 q-176 0 -293 102t-117 260zM438 866v162h162v-162h-162z" />
<glyph unicode="&#xc0;" horiz-adv-x="1294" d="M43 0l528 1440h152l528 -1440h-149l-166 459h-580l-163 -459h-150zM399 582h494l-188 522q-11 30 -25 77t-22 79l-9 32h-4q-30 -120 -55 -188zM408 1784h161l142 -244h-127z" />
<glyph unicode="&#xc1;" horiz-adv-x="1294" d="M43 0l528 1440h152l528 -1440h-149l-166 459h-580l-163 -459h-150zM399 582h494l-188 522q-11 30 -25 77t-22 79l-9 32h-4q-30 -120 -55 -188zM580 1540l141 244h162l-178 -244h-125z" />
<glyph unicode="&#xc2;" horiz-adv-x="1294" d="M43 0l528 1440h152l528 -1440h-149l-166 459h-580l-163 -459h-150zM399 582h494l-188 522q-11 30 -25 77t-22 79l-9 32h-4q-30 -120 -55 -188zM399 1540l170 244h154l172 -244h-135l-111 164h-4l-110 -164h-136z" />
<glyph unicode="&#xc3;" horiz-adv-x="1294" d="M43 0l528 1440h152l528 -1440h-149l-166 459h-580l-163 -459h-150zM328 1546q0 238 188 238q46 0 85 -23t61 -50t52 -50t60 -23q24 0 41 14t25.5 37t12 45t3.5 44h111q0 -238 -189 -238q-46 0 -85 23t-61 50t-52 50t-60 23q-24 0 -41 -14t-25 -37t-11 -44.5t-3 -44.5 h-112zM399 582h494l-188 522q-11 30 -25 77t-22 79l-9 32h-4q-30 -120 -55 -188z" />
<glyph unicode="&#xc4;" horiz-adv-x="1294" d="M43 0l528 1440h152l528 -1440h-149l-166 459h-580l-163 -459h-150zM399 582h494l-188 522q-11 30 -25 77t-22 79l-9 32h-4q-30 -120 -55 -188zM430 1608v176h125v-176h-125zM739 1608v176h127v-176h-127z" />
<glyph unicode="&#xc5;" horiz-adv-x="1294" d="M43 0l528 1440h152l528 -1440h-149l-166 459h-580l-163 -459h-150zM399 582h494l-188 522q-11 30 -25 77t-22 79l-9 32h-4q-30 -120 -55 -188zM492 1663q0 64 44.5 104.5t110.5 40.5q63 0 108.5 -41t45.5 -104t-45.5 -103t-108.5 -40q-66 0 -110.5 40t-44.5 103z M580 1663q0 -30 18.5 -49t48.5 -19q29 0 47.5 19.5t18.5 48.5q0 31 -18.5 50.5t-47.5 19.5q-30 0 -48.5 -19.5t-18.5 -50.5z" />
<glyph unicode="&#xc6;" horiz-adv-x="1740" d="M35 0l592 1440h985v-127h-670v-525h547v-126h-547v-535h707v-127h-848v664h-350l-267 -664h-149zM502 786h299v527h-84z" />
<glyph unicode="&#xc7;" horiz-adv-x="1472" d="M113 729q0 207 92 375t258 264t373 96q146 0 284 -46t236 -140l-76 -104q-84 73 -203 115t-237 42q-171 0 -304.5 -79.5t-204.5 -215.5t-71 -305q0 -171 71 -312t206.5 -225.5t308.5 -84.5q128 0 250.5 50t214.5 140l82 -100q-220 -216 -529 -224l-16 -88q65 -9 104 -47 t39 -98q0 -83 -56 -122.5t-140 -39.5q-62 0 -103 10v99q32 -13 86 -13q105 0 105 70q0 33 -31 51.5t-86 18.5l-31 -2l39 163q-148 12 -272 75.5t-209 163.5t-132.5 232t-47.5 281z" />
<glyph unicode="&#xc8;" horiz-adv-x="1146" d="M207 0v1440h809v-127h-668v-525h547v-126h-547v-535h707v-127h-848zM395 1784h162l141 -244h-127z" />
<glyph unicode="&#xc9;" horiz-adv-x="1146" d="M207 0v1440h809v-127h-668v-525h547v-126h-547v-535h707v-127h-848zM567 1540l142 244h161l-178 -244h-125z" />
<glyph unicode="&#xca;" horiz-adv-x="1146" d="M207 0v1440h809v-127h-668v-525h547v-126h-547v-535h707v-127h-848zM387 1540l170 244h154l172 -244h-135l-111 164h-4l-111 -164h-135z" />
<glyph unicode="&#xcb;" horiz-adv-x="1146" d="M207 0v1440h809v-127h-668v-525h547v-126h-547v-535h707v-127h-848zM418 1608v176h125v-176h-125zM727 1608v176h127v-176h-127z" />
<glyph unicode="&#xcc;" horiz-adv-x="555" d="M41 1784h162l141 -244h-127zM207 0v1440h141v-1440h-141z" />
<glyph unicode="&#xcd;" horiz-adv-x="555" d="M207 0v1440h141v-1440h-141zM213 1540l141 244h162l-178 -244h-125z" />
<glyph unicode="&#xce;" horiz-adv-x="555" d="M33 1540l170 244h153l172 -244h-135l-110 164h-4l-111 -164h-135zM207 0v1440h141v-1440h-141z" />
<glyph unicode="&#xcf;" horiz-adv-x="555" d="M63 1608v176h125v-176h-125zM207 0v1440h141v-1440h-141zM373 1608v176h127v-176h-127z" />
<glyph unicode="&#xd0;" horiz-adv-x="1523" d="M96 662v122h123v656h463q330 0 526.5 -191t196.5 -528q0 -338 -196.5 -529.5t-526.5 -191.5h-463v662h-123zM360 127h308q271 0 430 154.5t159 439.5q0 282 -159.5 437t-429.5 155h-308v-529h342v-122h-342v-535z" />
<glyph unicode="&#xd1;" horiz-adv-x="1538" d="M207 0v1440h137l735 -1037q22 -32 51.5 -80.5t48.5 -80.5l19 -33h4q-12 118 -12 194v1037h141v-1440h-137l-735 1036q-22 32 -51.5 81t-48.5 81l-19 33h-4q12 -119 12 -195v-1036h-141zM449 1546q0 238 188 238q46 0 85 -23t61 -50t52 -50t60 -23q24 0 41 14t25.5 37 t12 45t3.5 44h110q0 -238 -188 -238q-46 0 -85 23t-61 50t-52 50t-60 23q-24 0 -41 -14t-25 -37t-11 -44.5t-3 -44.5h-112z" />
<glyph unicode="&#xd2;" horiz-adv-x="1689" d="M111 731q0 204 95 371.5t263.5 264.5t374.5 97q207 0 375.5 -97t263 -264.5t94.5 -371.5q0 -210 -94.5 -383t-263 -273t-375.5 -100q-206 0 -374.5 100t-263.5 273t-95 383zM258 731q0 -174 76 -316.5t210.5 -224t299.5 -81.5q166 0 300.5 81.5t210 224t75.5 316.5 q0 168 -75.5 305.5t-210 216t-300.5 78.5q-165 0 -299.5 -78.5t-210.5 -216t-76 -305.5zM604 1784h162l141 -244h-127z" />
<glyph unicode="&#xd3;" horiz-adv-x="1689" d="M111 731q0 204 95 371.5t263.5 264.5t374.5 97q207 0 375.5 -97t263 -264.5t94.5 -371.5q0 -210 -94.5 -383t-263 -273t-375.5 -100q-206 0 -374.5 100t-263.5 273t-95 383zM258 731q0 -174 76 -316.5t210.5 -224t299.5 -81.5q166 0 300.5 81.5t210 224t75.5 316.5 q0 168 -75.5 305.5t-210 216t-300.5 78.5q-165 0 -299.5 -78.5t-210.5 -216t-76 -305.5zM776 1540l142 244h161l-178 -244h-125z" />
<glyph unicode="&#xd4;" horiz-adv-x="1689" d="M111 731q0 204 95 371.5t263.5 264.5t374.5 97q207 0 375.5 -97t263 -264.5t94.5 -371.5q0 -210 -94.5 -383t-263 -273t-375.5 -100q-206 0 -374.5 100t-263.5 273t-95 383zM258 731q0 -174 76 -316.5t210.5 -224t299.5 -81.5q166 0 300.5 81.5t210 224t75.5 316.5 q0 168 -75.5 305.5t-210 216t-300.5 78.5q-165 0 -299.5 -78.5t-210.5 -216t-76 -305.5zM596 1540l170 244h154l172 -244h-136l-110 164h-4l-111 -164h-135z" />
<glyph unicode="&#xd5;" horiz-adv-x="1689" d="M111 731q0 204 95 371.5t263.5 264.5t374.5 97q207 0 375.5 -97t263 -264.5t94.5 -371.5q0 -210 -94.5 -383t-263 -273t-375.5 -100q-206 0 -374.5 100t-263.5 273t-95 383zM258 731q0 -174 76 -316.5t210.5 -224t299.5 -81.5q166 0 300.5 81.5t210 224t75.5 316.5 q0 168 -75.5 305.5t-210 216t-300.5 78.5q-165 0 -299.5 -78.5t-210.5 -216t-76 -305.5zM524 1546q0 238 189 238q46 0 85 -23t61 -50t52 -50t60 -23q24 0 41 14t25.5 37t12 45t3.5 44h110q0 -238 -188 -238q-46 0 -85 23t-61 50t-52 50t-60 23q-24 0 -41 -14t-25 -37 t-11 -44.5t-3 -44.5h-113z" />
<glyph unicode="&#xd6;" horiz-adv-x="1689" d="M111 731q0 204 95 371.5t263.5 264.5t374.5 97q207 0 375.5 -97t263 -264.5t94.5 -371.5q0 -210 -94.5 -383t-263 -273t-375.5 -100q-206 0 -374.5 100t-263.5 273t-95 383zM258 731q0 -174 76 -316.5t210.5 -224t299.5 -81.5q166 0 300.5 81.5t210 224t75.5 316.5 q0 168 -75.5 305.5t-210 216t-300.5 78.5q-165 0 -299.5 -78.5t-210.5 -216t-76 -305.5zM627 1608v176h125v-176h-125zM936 1608v176h127v-176h-127z" />
<glyph unicode="&#xd7;" horiz-adv-x="1163" d="M57 84l443 498l-443 497l86 84l439 -491l436 491l88 -84l-444 -497l444 -498l-88 -84l-436 492l-439 -492z" />
<glyph unicode="&#xd8;" horiz-adv-x="1687" d="M111 729q0 153 57.5 290t155.5 234t233.5 154t286.5 57q209 0 387 -110l98 137l84 -61l-96 -136q123 -102 191.5 -248t68.5 -317q0 -208 -97 -381t-265.5 -273t-370.5 -100q-212 0 -391 115l-101 -139l-84 59l101 142q-121 105 -189.5 255t-68.5 322zM258 729 q0 -137 53 -258t142 -203l698 975q-136 88 -307 88q-120 0 -228 -46t-186.5 -125.5t-125 -191.5t-46.5 -239zM530 201q140 -92 314 -92q161 0 295.5 81t212.5 223t78 314q0 137 -52 254t-145 201z" />
<glyph unicode="&#xd9;" horiz-adv-x="1480" d="M190 502v938h142v-936q0 -184 110.5 -289.5t296.5 -105.5q188 0 299 106t111 293v932h143v-938q0 -238 -152.5 -382.5t-398.5 -144.5t-398.5 144.5t-152.5 382.5zM500 1784h162l141 -244h-127z" />
<glyph unicode="&#xda;" horiz-adv-x="1480" d="M190 502v938h142v-936q0 -184 110.5 -289.5t296.5 -105.5q188 0 299 106t111 293v932h143v-938q0 -238 -152.5 -382.5t-398.5 -144.5t-398.5 144.5t-152.5 382.5zM672 1540l141 244h162l-178 -244h-125z" />
<glyph unicode="&#xdb;" horiz-adv-x="1480" d="M190 502v938h142v-936q0 -184 110.5 -289.5t296.5 -105.5q188 0 299 106t111 293v932h143v-938q0 -238 -152.5 -382.5t-398.5 -144.5t-398.5 144.5t-152.5 382.5zM492 1540l170 244h153l172 -244h-135l-111 164h-4l-110 -164h-135z" />
<glyph unicode="&#xdc;" horiz-adv-x="1480" d="M190 502v938h142v-936q0 -184 110.5 -289.5t296.5 -105.5q188 0 299 106t111 293v932h143v-938q0 -238 -152.5 -382.5t-398.5 -144.5t-398.5 144.5t-152.5 382.5zM522 1608v176h125v-176h-125zM831 1608v176h127v-176h-127z" />
<glyph unicode="&#xdd;" horiz-adv-x="1185" d="M35 1440h162l305 -522q19 -34 41 -77t35 -69l12 -27h4q45 97 88 173l305 522h162l-485 -822v-618h-142v618zM524 1540l142 244h161l-178 -244h-125z" />
<glyph unicode="&#xde;" horiz-adv-x="1228" d="M207 0v1440h141v-256h357q195 0 319.5 -119t124.5 -317q0 -197 -126 -318t-323 -121h-352v-309h-141zM348 436h338q146 0 232 83.5t86 228.5q0 146 -85.5 227.5t-230.5 81.5h-340v-621z" />
<glyph unicode="&#xdf;" horiz-adv-x="1175" d="M166 0v1087q0 89 35.5 162t94 119t132 71t152.5 25q159 0 257.5 -89.5t98.5 -215.5q0 -58 -23.5 -109.5t-57 -87.5t-66.5 -68.5t-56.5 -67.5t-23.5 -70q0 -28 22 -56t57.5 -54t78 -54t85.5 -60.5t78.5 -68.5t57.5 -83.5t22 -100.5q0 -94 -48 -162.5t-121.5 -99.5 t-162.5 -31q-184 0 -303 65v133q58 -34 137.5 -52.5t155.5 -18.5q85 0 142 43t57 127q0 53 -41.5 101t-100.5 86t-118 77.5t-100.5 92t-41.5 112.5q0 49 23.5 93.5t57.5 79t68 68.5t57.5 76t23.5 88q0 71 -59.5 126.5t-162.5 55.5q-108 0 -188 -70t-80 -192v-1077h-139z" />
<glyph unicode="&#xe0;" horiz-adv-x="1058" d="M76 276q0 359 626 359h62v29q0 266 -254 266q-157 0 -293 -99l-63 107q62 53 161.5 85t202.5 32q187 0 286 -101.5t99 -294.5v-659h-133v121q0 23 1.5 44.5t2.5 31.5l2 10h-4q-42 -99 -135.5 -165.5t-212.5 -66.5q-66 0 -127.5 19.5t-111.5 56t-79.5 95t-29.5 130.5z M217 289q0 -79 61.5 -138t170.5 -59q58 0 109 22.5t88 61t64 88t40.5 104.5t13.5 109v47h-59q-45 0 -78 -1t-87.5 -6t-94.5 -13.5t-85.5 -26t-74.5 -41.5t-48.5 -62t-19.5 -85zM285 1442h161l142 -244h-127z" />
<glyph unicode="&#xe1;" horiz-adv-x="1058" d="M76 276q0 359 626 359h62v29q0 266 -254 266q-157 0 -293 -99l-63 107q62 53 161.5 85t202.5 32q187 0 286 -101.5t99 -294.5v-659h-133v121q0 23 1.5 44.5t2.5 31.5l2 10h-4q-42 -99 -135.5 -165.5t-212.5 -66.5q-66 0 -127.5 19.5t-111.5 56t-79.5 95t-29.5 130.5z M217 289q0 -79 61.5 -138t170.5 -59q58 0 109 22.5t88 61t64 88t40.5 104.5t13.5 109v47h-59q-45 0 -78 -1t-87.5 -6t-94.5 -13.5t-85.5 -26t-74.5 -41.5t-48.5 -62t-19.5 -85zM453 1198l141 244h162l-178 -244h-125z" />
<glyph unicode="&#xe2;" horiz-adv-x="1058" d="M76 276q0 359 626 359h62v29q0 266 -254 266q-157 0 -293 -99l-63 107q62 53 161.5 85t202.5 32q187 0 286 -101.5t99 -294.5v-659h-133v121q0 23 1.5 44.5t2.5 31.5l2 10h-4q-42 -99 -135.5 -165.5t-212.5 -66.5q-66 0 -127.5 19.5t-111.5 56t-79.5 95t-29.5 130.5z M217 289q0 -79 61.5 -138t170.5 -59q58 0 109 22.5t88 61t64 88t40.5 104.5t13.5 109v47h-59q-45 0 -78 -1t-87.5 -6t-94.5 -13.5t-85.5 -26t-74.5 -41.5t-48.5 -62t-19.5 -85zM272 1198l170 244h154l172 -244h-135l-111 164h-4l-110 -164h-136z" />
<glyph unicode="&#xe3;" horiz-adv-x="1058" d="M76 276q0 359 626 359h62v29q0 266 -254 266q-157 0 -293 -99l-63 107q62 53 161.5 85t202.5 32q187 0 286 -101.5t99 -294.5v-659h-133v121q0 23 1.5 44.5t2.5 31.5l2 10h-4q-42 -99 -135.5 -165.5t-212.5 -66.5q-66 0 -127.5 19.5t-111.5 56t-79.5 95t-29.5 130.5z M201 1204q0 238 188 238q46 0 85 -23t61 -50t52 -50t60 -23q24 0 41 14t25.5 37t12 45t3.5 44h111q0 -238 -189 -238q-38 0 -70 15t-54 36t-42 42.5t-43.5 36.5t-48.5 15q-31 0 -50.5 -25t-24.5 -53t-5 -61h-112zM217 289q0 -79 61.5 -138t170.5 -59q58 0 109 22.5t88 61 t64 88t40.5 104.5t13.5 109v47h-59q-45 0 -78 -1t-87.5 -6t-94.5 -13.5t-85.5 -26t-74.5 -41.5t-48.5 -62t-19.5 -85z" />
<glyph unicode="&#xe4;" horiz-adv-x="1058" d="M76 276q0 359 626 359h62v29q0 266 -254 266q-157 0 -293 -99l-63 107q62 53 161.5 85t202.5 32q187 0 286 -101.5t99 -294.5v-659h-133v121q0 23 1.5 44.5t2.5 31.5l2 10h-4q-42 -99 -135.5 -165.5t-212.5 -66.5q-66 0 -127.5 19.5t-111.5 56t-79.5 95t-29.5 130.5z M217 289q0 -79 61.5 -138t170.5 -59q58 0 109 22.5t88 61t64 88t40.5 104.5t13.5 109v47h-59q-45 0 -78 -1t-87.5 -6t-94.5 -13.5t-85.5 -26t-74.5 -41.5t-48.5 -62t-19.5 -85zM303 1266v176h125v-176h-125zM612 1266v176h127v-176h-127z" />
<glyph unicode="&#xe5;" horiz-adv-x="1058" d="M76 276q0 359 626 359h62v29q0 266 -254 266q-157 0 -293 -99l-63 107q62 53 161.5 85t202.5 32q187 0 286 -101.5t99 -294.5v-659h-133v121q0 23 1.5 44.5t2.5 31.5l2 10h-4q-42 -99 -135.5 -165.5t-212.5 -66.5q-66 0 -127.5 19.5t-111.5 56t-79.5 95t-29.5 130.5z M217 289q0 -79 61.5 -138t170.5 -59q58 0 109 22.5t88 61t64 88t40.5 104.5t13.5 109v47h-59q-45 0 -78 -1t-87.5 -6t-94.5 -13.5t-85.5 -26t-74.5 -41.5t-48.5 -62t-19.5 -85zM365 1321q0 64 44.5 104.5t110.5 40.5q63 0 108.5 -41t45.5 -104t-45.5 -103t-108.5 -40 q-66 0 -110.5 40t-44.5 103zM453 1321q0 -30 18.5 -49t48.5 -19q29 0 47.5 19.5t18.5 48.5q0 31 -18.5 50.5t-47.5 19.5q-30 0 -48.5 -19.5t-18.5 -50.5z" />
<glyph unicode="&#xe6;" horiz-adv-x="1773" d="M78 281q0 55 14 100.5t37 78.5t59 59.5t71.5 44t85 30t89 18.5t93 10t87.5 4.5t82 0.5h68v37q0 142 -68.5 204t-193.5 62q-152 0 -285 -99l-65 105q62 55 160 87t198 32q277 0 348 -213h4q63 105 162.5 159t226.5 54q134 0 232.5 -64.5t147 -169.5t48.5 -235q0 -1 -6 -70 h-774q4 -197 111 -305.5t274 -108.5q84 0 167 32.5t144 90.5l64 -106q-67 -64 -172.5 -104t-208.5 -40q-157 0 -276.5 76.5t-176.5 210.5h-4q-7 -22 -20 -50.5t-45 -72.5t-73 -78.5t-107.5 -60t-143.5 -25.5q-149 0 -251.5 81.5t-102.5 224.5zM221 289q0 -81 61 -139 t169 -58q58 0 109 23t88 61.5t64 88.5t40.5 105t13.5 109v37h-121q-51 0 -92.5 -2.5t-94 -9.5t-91.5 -23t-74 -40t-53.5 -63t-18.5 -89zM907 627h629q-6 151 -89.5 230t-201.5 79q-133 0 -223.5 -79.5t-114.5 -229.5z" />
<glyph unicode="&#xe7;" horiz-adv-x="1114" d="M96 514q0 155 72 279.5t195.5 193t273.5 68.5q106 0 208.5 -38t168.5 -110l-72 -104q-55 57 -136 92t-165 35q-171 0 -286 -117t-115 -299q0 -180 116 -296t289 -116q91 0 180 38t150 104l63 -105q-66 -72 -167.5 -116t-215.5 -48l-16 -88q65 -9 104 -47t39 -98 q0 -83 -56 -122.5t-140 -39.5q-62 0 -103 10v99q33 -13 86 -13q105 0 105 70q0 33 -31 51.5t-86 18.5l-31 -2l39 166q-206 24 -337.5 170t-131.5 364z" />
<glyph unicode="&#xe8;" horiz-adv-x="1132" d="M96 514q0 124 40.5 227t110 171t162 105.5t197.5 37.5q137 0 236.5 -66t146.5 -172t47 -237q0 -24 -4 -70h-790q3 -127 58.5 -221t144 -140.5t196.5 -46.5q84 0 166.5 33t146.5 90l64 -106q-72 -66 -175.5 -105t-205.5 -39q-152 0 -275.5 68t-194.5 191.5t-71 279.5z M248 621h647q-6 154 -88.5 236.5t-204.5 82.5q-134 0 -232 -84t-122 -235zM369 1442h161l142 -244h-127z" />
<glyph unicode="&#xe9;" horiz-adv-x="1132" d="M96 514q0 124 40.5 227t110 171t162 105.5t197.5 37.5q137 0 236.5 -66t146.5 -172t47 -237q0 -24 -4 -70h-790q3 -127 58.5 -221t144 -140.5t196.5 -46.5q84 0 166.5 33t146.5 90l64 -106q-72 -66 -175.5 -105t-205.5 -39q-152 0 -275.5 68t-194.5 191.5t-71 279.5z M248 621h647q-6 154 -88.5 236.5t-204.5 82.5q-134 0 -232 -84t-122 -235zM539 1198l141 244h162l-178 -244h-125z" />
<glyph unicode="&#xea;" horiz-adv-x="1132" d="M96 514q0 124 40.5 227t110 171t162 105.5t197.5 37.5q137 0 236.5 -66t146.5 -172t47 -237q0 -24 -4 -70h-790q3 -127 58.5 -221t144 -140.5t196.5 -46.5q84 0 166.5 33t146.5 90l64 -106q-72 -66 -175.5 -105t-205.5 -39q-152 0 -275.5 68t-194.5 191.5t-71 279.5z M248 621h647q-6 154 -88.5 236.5t-204.5 82.5q-134 0 -232 -84t-122 -235zM358 1198l170 244h154l172 -244h-135l-111 164h-4l-110 -164h-136z" />
<glyph unicode="&#xeb;" horiz-adv-x="1132" d="M96 514q0 124 40.5 227t110 171t162 105.5t197.5 37.5q137 0 236.5 -66t146.5 -172t47 -237q0 -24 -4 -70h-790q3 -127 58.5 -221t144 -140.5t196.5 -46.5q84 0 166.5 33t146.5 90l64 -106q-72 -66 -175.5 -105t-205.5 -39q-152 0 -275.5 68t-194.5 191.5t-71 279.5z M248 621h647q-6 154 -88.5 236.5t-204.5 82.5q-134 0 -232 -84t-122 -235zM389 1266v176h125v-176h-125zM698 1266v176h127v-176h-127z" />
<glyph unicode="&#xec;" horiz-adv-x="471" d="M0 1442h162l141 -244h-127zM166 0v1030h139v-1030h-139z" />
<glyph unicode="&#xed;" horiz-adv-x="471" d="M166 0v1030h139v-1030h-139zM172 1198l141 244h162l-178 -244h-125z" />
<glyph unicode="&#xee;" horiz-adv-x="471" d="M-8 1198l170 244h153l172 -244h-135l-110 164h-4l-111 -164h-135zM166 0v1030h139v-1030h-139z" />
<glyph unicode="&#xef;" horiz-adv-x="471" d="M23 1266v176h124v-176h-124zM166 0v1030h139v-1030h-139zM332 1266v176h127v-176h-127z" />
<glyph unicode="&#xf0;" horiz-adv-x="1185" d="M100 475q0 94 32 179.5t91.5 153t154.5 108t212 40.5q55 0 106 -11.5t83.5 -28t57.5 -33t37 -27.5l11 -12h4q-70 201 -254 327l-361 -163l-28 98l278 129q-126 64 -291 104l39 117q235 -55 404 -156l268 121l27 -98l-199 -92q141 -111 224 -281t83 -393q0 -84 -18 -165 t-57.5 -157t-97 -133.5t-143.5 -92t-190 -34.5q-109 0 -200 42.5t-150 113t-91 160t-32 184.5zM244 473q0 -96 37.5 -180t115.5 -138.5t181 -54.5q91 0 162.5 39.5t113.5 104t63 139t21 152.5q0 132 -92.5 217.5t-241.5 85.5q-89 0 -159.5 -31t-113.5 -83.5t-65 -116.5 t-22 -134z" />
<glyph unicode="&#xf1;" horiz-adv-x="1216" d="M166 0v1030h137v-162q0 -20 -2 -40.5t-4 -31.5l-2 -10h4q13 31 35 64.5t59 71t82 66.5t108 48t132 19q185 0 265.5 -100.5t80.5 -299.5v-655h-139v618q0 54 -4 94.5t-18 82.5t-38 68.5t-66 43.5t-100 17q-165 0 -278 -120.5t-113 -299.5v-504h-139zM313 1204 q0 238 189 238q46 0 85 -23t61 -50t52 -50t60 -23q24 0 41 14t25.5 37t12 45t3.5 44h110q0 -238 -188 -238q-38 0 -70 15t-54 36t-42 42.5t-43.5 36.5t-48.5 15q-31 0 -50.5 -25t-24.5 -53t-5 -61h-113z" />
<glyph unicode="&#xf2;" horiz-adv-x="1277" d="M96 520q0 150 72.5 273t197 192.5t273.5 69.5t274 -69.5t198 -192.5t73 -273q0 -114 -43 -216t-116.5 -173.5t-174 -113.5t-211.5 -42t-211.5 42t-173 113.5t-115.5 173.5t-43 216zM240 520q0 -180 115.5 -299t283.5 -119t284.5 119.5t116.5 298.5q0 174 -117 292 t-284 118t-283 -118t-116 -292zM399 1442h162l141 -244h-127z" />
<glyph unicode="&#xf3;" horiz-adv-x="1277" d="M96 520q0 150 72.5 273t197 192.5t273.5 69.5t274 -69.5t198 -192.5t73 -273q0 -114 -43 -216t-116.5 -173.5t-174 -113.5t-211.5 -42t-211.5 42t-173 113.5t-115.5 173.5t-43 216zM240 520q0 -180 115.5 -299t283.5 -119t284.5 119.5t116.5 298.5q0 174 -117 292 t-284 118t-283 -118t-116 -292zM571 1198l142 244h161l-178 -244h-125z" />
<glyph unicode="&#xf4;" horiz-adv-x="1277" d="M96 520q0 150 72.5 273t197 192.5t273.5 69.5t274 -69.5t198 -192.5t73 -273q0 -114 -43 -216t-116.5 -173.5t-174 -113.5t-211.5 -42t-211.5 42t-173 113.5t-115.5 173.5t-43 216zM240 520q0 -180 115.5 -299t283.5 -119t284.5 119.5t116.5 298.5q0 174 -117 292 t-284 118t-283 -118t-116 -292zM391 1198l170 244h154l172 -244h-135l-111 164h-4l-111 -164h-135z" />
<glyph unicode="&#xf5;" horiz-adv-x="1277" d="M96 520q0 150 72.5 273t197 192.5t273.5 69.5t274 -69.5t198 -192.5t73 -273q0 -114 -43 -216t-116.5 -173.5t-174 -113.5t-211.5 -42t-211.5 42t-173 113.5t-115.5 173.5t-43 216zM240 520q0 -180 115.5 -299t283.5 -119t284.5 119.5t116.5 298.5q0 174 -117 292 t-284 118t-283 -118t-116 -292zM319 1204q0 238 189 238q46 0 85 -23t61 -50t52 -50t60 -23q24 0 41 14t25.5 37t12 45t3.5 44h110q0 -238 -188 -238q-38 0 -70 15t-54 36t-42 42.5t-43.5 36.5t-48.5 15q-31 0 -50.5 -25t-24.5 -53t-5 -61h-113z" />
<glyph unicode="&#xf6;" horiz-adv-x="1277" d="M96 520q0 150 72.5 273t197 192.5t273.5 69.5t274 -69.5t198 -192.5t73 -273q0 -114 -43 -216t-116.5 -173.5t-174 -113.5t-211.5 -42t-211.5 42t-173 113.5t-115.5 173.5t-43 216zM240 520q0 -180 115.5 -299t283.5 -119t284.5 119.5t116.5 298.5q0 174 -117 292 t-284 118t-283 -118t-116 -292zM422 1266v176h125v-176h-125zM731 1266v176h127v-176h-127z" />
<glyph unicode="&#xf7;" horiz-adv-x="1163" d="M80 522v119h1003v-119h-1003zM504 125v151h153v-151h-153zM504 887v151h153v-151h-153z" />
<glyph unicode="&#xf8;" horiz-adv-x="1280" d="M96 520q0 150 73 273t198 192.5t274 69.5q150 0 279 -74l79 109l84 -60l-79 -110q85 -74 133.5 -177.5t48.5 -222.5q0 -114 -43 -216t-116.5 -173.5t-174 -113.5t-211.5 -42q-146 0 -264 68l-78 -111l-84 62l76 106q-91 74 -143 183t-52 237zM240 520q0 -187 129 -309 l475 661q-98 58 -203 58q-167 0 -284 -118t-117 -292zM453 150q85 -48 188 -48q168 0 284.5 119.5t116.5 298.5q0 172 -118 287z" />
<glyph unicode="&#xf9;" horiz-adv-x="1204" d="M154 375v655h141v-618q0 -55 4 -95t17.5 -82t37 -68.5t65 -43.5t99.5 -17q114 0 202.5 61.5t133.5 159t45 210.5v493h139v-1030h-137v162q0 20 2 40.5t4 31.5l2 10h-4q-13 -32 -35.5 -66.5t-59 -71.5t-81 -65.5t-104.5 -47t-125 -18.5q-181 0 -263.5 98t-82.5 302z M360 1442h162l142 -244h-127z" />
<glyph unicode="&#xfa;" horiz-adv-x="1204" d="M154 375v655h141v-618q0 -55 4 -95t17.5 -82t37 -68.5t65 -43.5t99.5 -17q114 0 202.5 61.5t133.5 159t45 210.5v493h139v-1030h-137v162q0 20 2 40.5t4 31.5l2 10h-4q-13 -32 -35.5 -66.5t-59 -71.5t-81 -65.5t-104.5 -47t-125 -18.5q-181 0 -263.5 98t-82.5 302z M528 1198l142 244h161l-178 -244h-125z" />
<glyph unicode="&#xfb;" horiz-adv-x="1204" d="M154 375v655h141v-618q0 -55 4 -95t17.5 -82t37 -68.5t65 -43.5t99.5 -17q114 0 202.5 61.5t133.5 159t45 210.5v493h139v-1030h-137v162q0 20 2 40.5t4 31.5l2 10h-4q-13 -32 -35.5 -66.5t-59 -71.5t-81 -65.5t-104.5 -47t-125 -18.5q-181 0 -263.5 98t-82.5 302z M348 1198l170 244h154l172 -244h-135l-111 164h-4l-111 -164h-135z" />
<glyph unicode="&#xfc;" horiz-adv-x="1204" d="M154 375v655h141v-618q0 -55 4 -95t17.5 -82t37 -68.5t65 -43.5t99.5 -17q114 0 202.5 61.5t133.5 159t45 210.5v493h139v-1030h-137v162q0 20 2 40.5t4 31.5l2 10h-4q-13 -32 -35.5 -66.5t-59 -71.5t-81 -65.5t-104.5 -47t-125 -18.5q-181 0 -263.5 98t-82.5 302z M379 1266v176h125v-176h-125zM688 1266v176h127v-176h-127z" />
<glyph unicode="&#xfd;" horiz-adv-x="1077" d="M39 -369l53 111q6 -5 17.5 -13t44 -21t61.5 -13q64 0 114 46t83 122l61 147l-428 1020h154l301 -751l39 -109h4q15 58 35 109l296 751h150l-508 -1245q-41 -100 -117.5 -157.5t-177.5 -57.5q-47 0 -92.5 15t-67.5 31zM473 1196l141 244h162l-178 -244h-125z" />
<glyph unicode="&#xfe;" horiz-adv-x="1204" d="M166 -410v1850h139v-500l-2 -82h4q40 87 132 142t214 55q137 0 240 -69t157 -191t54 -279q0 -242 -128.5 -391.5t-330.5 -149.5q-107 0 -201.5 52.5t-138.5 144.5h-4q4 -37 4 -90v-492h-139zM301 514q0 -173 89.5 -293.5t240.5 -120.5q142 0 237 113.5t95 302.5 q0 185 -91.5 299.5t-234.5 114.5q-67 0 -126 -24t-107 -72.5t-75.5 -130.5t-27.5 -189z" />
<glyph unicode="&#xff;" horiz-adv-x="1077" d="M39 -369l53 111q6 -5 17.5 -13t44 -21t61.5 -13q64 0 114 46t83 122l61 147l-428 1020h154l301 -751l39 -109h4q15 58 35 109l296 751h150l-508 -1245q-41 -100 -117.5 -157.5t-177.5 -57.5q-47 0 -92.5 15t-67.5 31zM322 1264v176h124v-176h-124zM631 1264v176h127v-176 h-127z" />
<glyph unicode="&#x100;" horiz-adv-x="1294" d="M43 0l528 1440h152l528 -1440h-149l-166 459h-580l-163 -459h-150zM395 1608v112h504v-112h-504zM399 582h494l-188 522q-11 30 -25 77t-22 79l-9 32h-4q-30 -120 -55 -188z" />
<glyph unicode="&#x101;" horiz-adv-x="1058" d="M76 276q0 359 626 359h62v29q0 266 -254 266q-157 0 -293 -99l-63 107q62 53 161.5 85t202.5 32q187 0 286 -101.5t99 -294.5v-659h-133v121q0 23 1.5 44.5t2.5 31.5l2 10h-4q-42 -99 -135.5 -165.5t-212.5 -66.5q-66 0 -127.5 19.5t-111.5 56t-79.5 95t-29.5 130.5z M217 289q0 -79 61.5 -138t170.5 -59q58 0 109 22.5t88 61t64 88t40.5 104.5t13.5 109v47h-59q-45 0 -78 -1t-87.5 -6t-94.5 -13.5t-85.5 -26t-74.5 -41.5t-48.5 -62t-19.5 -85zM268 1266v112h504v-112h-504z" />
<glyph unicode="&#x102;" horiz-adv-x="1294" d="M43 0l528 1440h152l528 -1440h-149l-166 459h-580l-163 -459h-150zM399 582h494l-188 522q-11 30 -25 77t-22 79l-9 32h-4q-30 -120 -55 -188zM410 1753v31h112v-29q0 -63 35 -94t90 -31q51 0 87 32t36 95v27h113v-31q0 -103 -69.5 -161t-166.5 -58q-99 0 -168 58 t-69 161z" />
<glyph unicode="&#x103;" horiz-adv-x="1058" d="M76 276q0 359 626 359h62v29q0 266 -254 266q-157 0 -293 -99l-63 107q62 53 161.5 85t202.5 32q187 0 286 -101.5t99 -294.5v-659h-133v121q0 23 1.5 44.5t2.5 31.5l2 10h-4q-42 -99 -135.5 -165.5t-212.5 -66.5q-66 0 -127.5 19.5t-111.5 56t-79.5 95t-29.5 130.5z M217 289q0 -79 61.5 -138t170.5 -59q58 0 109 22.5t88 61t64 88t40.5 104.5t13.5 109v47h-59q-45 0 -78 -1t-87.5 -6t-94.5 -13.5t-85.5 -26t-74.5 -41.5t-48.5 -62t-19.5 -85zM283 1411v31h112v-29q0 -63 35 -94t90 -31q51 0 87 32t36 95v27h113v-31q0 -103 -69.5 -161 t-166.5 -58q-99 0 -168 58t-69 161z" />
<glyph unicode="&#x104;" horiz-adv-x="1294" d="M43 0l528 1440h152l528 -1440q-149 -116 -149 -203q0 -41 32 -66.5t64 -30.5l31 -5l-31 -115q-5 0 -13 1t-31.5 6t-44.5 12.5t-47 22t-44.5 33.5t-31.5 48.5t-13 65.5q0 124 135 231h-6l-166 459h-580l-163 -459h-150zM399 582h494l-188 522q-11 30 -25 77t-22 79l-9 32 h-4q-30 -120 -55 -188z" />
<glyph unicode="&#x105;" horiz-adv-x="1058" d="M76 276q0 359 626 359h62v29q0 266 -254 266q-157 0 -293 -99l-63 107q62 53 161.5 85t202.5 32q187 0 286 -101.5t99 -294.5v-659q-149 -116 -149 -203q0 -41 32 -66.5t64 -30.5l31 -5l-31 -115q-5 0 -13 1t-31.5 6t-44.5 12.5t-47 22t-44.5 33.5t-31.5 48.5t-13 65.5 q0 120 145 231v121q0 23 1.5 44.5t2.5 31.5l2 10h-4q-42 -99 -135.5 -165.5t-212.5 -66.5q-66 0 -127.5 19.5t-111.5 56t-79.5 95t-29.5 130.5zM217 289q0 -79 61.5 -138t170.5 -59q58 0 109 22.5t88 61t64 88t40.5 104.5t13.5 109v47h-59q-45 0 -78 -1t-87.5 -6 t-94.5 -13.5t-85.5 -26t-74.5 -41.5t-48.5 -62t-19.5 -85z" />
<glyph unicode="&#x106;" horiz-adv-x="1470" d="M113 729q0 207 92 375t258 264t373 96q146 0 284 -46t236 -140l-76 -104q-84 73 -203 115t-237 42q-171 0 -304.5 -79.5t-204.5 -215.5t-71 -305q0 -171 71 -312t206.5 -225.5t308.5 -84.5q128 0 250.5 50t214.5 140l82 -100q-228 -224 -551 -224q-214 0 -381.5 101 t-257.5 272t-90 381zM756 1540l141 244h162l-178 -244h-125z" />
<glyph unicode="&#x107;" horiz-adv-x="1110" d="M96 514q0 155 72 279.5t195.5 193t273.5 68.5q106 0 208.5 -38t168.5 -110l-72 -104q-55 57 -136 92t-165 35q-171 0 -286 -117t-115 -299q0 -180 116 -296t289 -116q91 0 180 38t150 104l63 -105q-68 -75 -175.5 -119.5t-225.5 -44.5q-152 0 -275 67.5t-194.5 191.5 t-71.5 280zM532 1198l142 244h162l-179 -244h-125z" />
<glyph unicode="&#x108;" horiz-adv-x="1470" d="M113 729q0 207 92 375t258 264t373 96q146 0 284 -46t236 -140l-76 -104q-84 73 -203 115t-237 42q-171 0 -304.5 -79.5t-204.5 -215.5t-71 -305q0 -171 71 -312t206.5 -225.5t308.5 -84.5q128 0 250.5 50t214.5 140l82 -100q-228 -224 -551 -224q-214 0 -381.5 101 t-257.5 272t-90 381zM575 1540l170 244h154l172 -244h-135l-111 164h-4l-110 -164h-136z" />
<glyph unicode="&#x109;" horiz-adv-x="1110" d="M96 514q0 155 72 279.5t195.5 193t273.5 68.5q106 0 208.5 -38t168.5 -110l-72 -104q-55 57 -136 92t-165 35q-171 0 -286 -117t-115 -299q0 -180 116 -296t289 -116q91 0 180 38t150 104l63 -105q-68 -75 -175.5 -119.5t-225.5 -44.5q-152 0 -275 67.5t-194.5 191.5 t-71.5 280zM350 1198l170 244h154l172 -244h-135l-111 164h-4l-111 -164h-135z" />
<glyph unicode="&#x10a;" horiz-adv-x="1470" d="M113 729q0 207 92 375t258 264t373 96q146 0 284 -46t236 -140l-76 -104q-84 73 -203 115t-237 42q-171 0 -304.5 -79.5t-204.5 -215.5t-71 -305q0 -171 71 -312t206.5 -225.5t308.5 -84.5q128 0 250.5 50t214.5 140l82 -100q-228 -224 -551 -224q-214 0 -381.5 101 t-257.5 272t-90 381zM756 1610v174h133v-174h-133z" />
<glyph unicode="&#x10b;" horiz-adv-x="1110" d="M96 514q0 155 72 279.5t195.5 193t273.5 68.5q106 0 208.5 -38t168.5 -110l-72 -104q-55 57 -136 92t-165 35q-171 0 -286 -117t-115 -299q0 -180 116 -296t289 -116q91 0 180 38t150 104l63 -105q-68 -75 -175.5 -119.5t-225.5 -44.5q-152 0 -275 67.5t-194.5 191.5 t-71.5 280zM532 1268v174h134v-174h-134z" />
<glyph unicode="&#x10c;" horiz-adv-x="1470" d="M113 729q0 207 92 375t258 264t373 96q146 0 284 -46t236 -140l-76 -104q-84 73 -203 115t-237 42q-171 0 -304.5 -79.5t-204.5 -215.5t-71 -305q0 -171 71 -312t206.5 -225.5t308.5 -84.5q128 0 250.5 50t214.5 140l82 -100q-228 -224 -551 -224q-214 0 -381.5 101 t-257.5 272t-90 381zM575 1784h136l110 -164h4l111 164h135l-172 -244h-154z" />
<glyph unicode="&#x10d;" horiz-adv-x="1110" d="M96 514q0 155 72 279.5t195.5 193t273.5 68.5q106 0 208.5 -38t168.5 -110l-72 -104q-55 57 -136 92t-165 35q-171 0 -286 -117t-115 -299q0 -180 116 -296t289 -116q91 0 180 38t150 104l63 -105q-68 -75 -175.5 -119.5t-225.5 -44.5q-152 0 -275 67.5t-194.5 191.5 t-71.5 280zM350 1442h135l111 -164h4l111 164h135l-172 -244h-154z" />
<glyph unicode="&#x10e;" horiz-adv-x="1511" d="M207 0v1440h463q330 0 526.5 -191t196.5 -528q0 -338 -196.5 -529.5t-526.5 -191.5h-463zM348 127h307q271 0 430.5 154.5t159.5 439.5q0 282 -159.5 437t-430.5 155h-307v-1186zM451 1784h135l110 -164h4l111 164h135l-172 -244h-153z" />
<glyph unicode="&#x10f;" horiz-adv-x="1214" d="M100 516q0 243 129.5 391t335.5 148q108 0 199.5 -55t138.5 -148h4q-6 35 -6 78v510h139v-1440h-135v117q0 20 1.5 38t3.5 27l1 8h-4q-46 -94 -138.5 -154.5t-219.5 -60.5q-204 0 -326.5 150t-122.5 391zM244 516q0 -189 90.5 -302.5t236.5 -113.5q67 0 125 24.5 t105 73.5t74.5 131t27.5 189q0 108 -34.5 198.5t-110 151t-180.5 60.5q-142 0 -238 -111t-96 -301zM1151 1153q39 95 39 166q0 54 -23 119h133q13 -60 13 -101q0 -81 -47 -184h-115z" />
<glyph unicode="&#x110;" horiz-adv-x="1523" d="M96 662v122h123v656h463q330 0 526.5 -191t196.5 -528q0 -338 -196.5 -529.5t-526.5 -191.5h-463v662h-123zM360 127h308q271 0 430 154.5t159 439.5q0 282 -159.5 437t-429.5 155h-308v-529h342v-122h-342v-535z" />
<glyph unicode="&#x111;" horiz-adv-x="1206" d="M100 516q0 243 129.5 391t335.5 148q105 0 196.5 -51.5t137.5 -143.5h4q-2 35 -2 78v221h-270v105h270v176h139v-176h162v-105h-162v-1159h-135v109l4 75h-4q-43 -91 -136 -150t-220 -59q-204 0 -326.5 150t-122.5 391zM244 516q0 -189 90.5 -302.5t236.5 -113.5 q67 0 125 24.5t105 73.5t74.5 131t27.5 189q0 108 -34.5 199t-110 152t-180.5 61q-142 0 -238 -112t-96 -302z" />
<glyph unicode="&#x112;" horiz-adv-x="1146" d="M207 0v1440h809v-127h-668v-525h547v-126h-547v-535h707v-127h-848zM383 1608v112h504v-112h-504z" />
<glyph unicode="&#x113;" horiz-adv-x="1132" d="M96 514q0 124 40.5 227t110 171t162 105.5t197.5 37.5q137 0 236.5 -66t146.5 -172t47 -237q0 -24 -4 -70h-790q3 -127 58.5 -221t144 -140.5t196.5 -46.5q84 0 166.5 33t146.5 90l64 -106q-72 -66 -175.5 -105t-205.5 -39q-152 0 -275.5 68t-194.5 191.5t-71 279.5z M248 621h647q-6 154 -88.5 236.5t-204.5 82.5q-134 0 -232 -84t-122 -235zM354 1266v112h504v-112h-504z" />
<glyph unicode="&#x114;" horiz-adv-x="1146" d="M207 0v1440h809v-127h-668v-525h547v-126h-547v-535h707v-127h-848zM397 1753v31h113v-29q0 -63 35 -94t90 -31q51 0 87 32t36 95v27h112v-31q0 -103 -69 -161t-166 -58q-99 0 -168.5 58t-69.5 161z" />
<glyph unicode="&#x115;" horiz-adv-x="1132" d="M96 514q0 124 40.5 227t110 171t162 105.5t197.5 37.5q137 0 236.5 -66t146.5 -172t47 -237q0 -24 -4 -70h-790q3 -127 58.5 -221t144 -140.5t196.5 -46.5q84 0 166.5 33t146.5 90l64 -106q-72 -66 -175.5 -105t-205.5 -39q-152 0 -275.5 68t-194.5 191.5t-71 279.5z M248 621h647q-6 154 -88.5 236.5t-204.5 82.5q-134 0 -232 -84t-122 -235zM369 1411v31h112v-29q0 -63 35 -94t90 -31q51 0 87 32t36 95v27h113v-31q0 -103 -69.5 -161t-166.5 -58q-99 0 -168 58t-69 161z" />
<glyph unicode="&#x116;" horiz-adv-x="1146" d="M207 0v1440h809v-127h-668v-525h547v-126h-547v-535h707v-127h-848zM567 1610v174h133v-174h-133z" />
<glyph unicode="&#x117;" horiz-adv-x="1132" d="M96 514q0 124 40.5 227t110 171t162 105.5t197.5 37.5q137 0 236.5 -66t146.5 -172t47 -237q0 -24 -4 -70h-790q3 -127 58.5 -221t144 -140.5t196.5 -46.5q84 0 166.5 33t146.5 90l64 -106q-72 -66 -175.5 -105t-205.5 -39q-152 0 -275.5 68t-194.5 191.5t-71 279.5z M248 621h647q-6 154 -88.5 236.5t-204.5 82.5q-134 0 -232 -84t-122 -235zM539 1268v174h133v-174h-133z" />
<glyph unicode="&#x118;" horiz-adv-x="1146" d="M207 0v1440h809v-127h-668v-525h547v-126h-547v-535h707v-127q-150 -117 -150 -203q0 -26 13 -46t31.5 -30t37.5 -16.5t32 -8.5l13 -1l-33 -115q-9 1 -24 3t-53.5 14t-68 30t-53.5 55.5t-24 86.5q0 123 150 231h-719z" />
<glyph unicode="&#x119;" horiz-adv-x="1132" d="M96 514q0 124 40.5 227t110 171t162 105.5t197.5 37.5q137 0 236.5 -66t146.5 -172t47 -237l-4 -70h-790q3 -127 58.5 -221t144 -140.5t196.5 -46.5q171 0 313 123l64 -104q-24 -23 -81.5 -65t-100.5 -75.5t-79 -83.5t-36 -100q0 -26 13 -46t31.5 -30t37.5 -16.5t32 -8.5 l13 -1l-31 -115q-5 0 -13 1t-31.5 6t-44.5 12.5t-47 22t-44.5 33.5t-31.5 48.5t-13 65.5q0 112 119 215q-52 -9 -74 -9q-152 0 -275.5 68t-194.5 191.5t-71 279.5zM248 621h647q-6 155 -88 237t-205 82q-133 0 -231.5 -84.5t-122.5 -234.5z" />
<glyph unicode="&#x11a;" horiz-adv-x="1146" d="M207 0v1440h809v-127h-668v-525h547v-126h-547v-535h707v-127h-848zM387 1784h135l111 -164h4l111 164h135l-172 -244h-154z" />
<glyph unicode="&#x11b;" horiz-adv-x="1132" d="M96 514q0 124 40.5 227t110 171t162 105.5t197.5 37.5q137 0 236.5 -66t146.5 -172t47 -237q0 -24 -4 -70h-790q3 -127 58.5 -221t144 -140.5t196.5 -46.5q84 0 166.5 33t146.5 90l64 -106q-72 -66 -175.5 -105t-205.5 -39q-152 0 -275.5 68t-194.5 191.5t-71 279.5z M248 621h647q-6 154 -88.5 236.5t-204.5 82.5q-134 0 -232 -84t-122 -235zM358 1442h136l110 -164h4l111 164h135l-172 -244h-154z" />
<glyph unicode="&#x11c;" horiz-adv-x="1552" d="M113 721q0 205 94.5 375.5t262 269t370.5 98.5q141 0 275.5 -42.5t236.5 -125.5l-78 -108q-75 63 -194 103t-234 40q-171 0 -306 -81t-207.5 -219.5t-72.5 -307.5q0 -131 43.5 -245t119.5 -195t182.5 -127.5t228.5 -46.5q127 0 246.5 55.5t205.5 152.5v244h-246v127h379 v-688h-129v109l2 61h-4q-79 -87 -204.5 -141t-264.5 -54q-146 0 -276.5 57t-225 155t-149.5 237t-55 297zM567 1540l170 244h154l172 -244h-135l-111 164h-4l-111 -164h-135z" />
<glyph unicode="&#x11d;" horiz-adv-x="1191" d="M102 535q0 234 121 377t326 143q110 0 203.5 -45.5t138.5 -135.5h4q-4 12 -4 35v121h135v-1005q0 -95 -27.5 -172.5t-74 -129.5t-110.5 -87t-135 -50.5t-149 -15.5q-177 0 -335 84l51 113q137 -70 280 -70q161 0 260 79t99 242v103q0 17 2 36t4 29l2 11h-4 q-100 -191 -328 -191q-206 0 -332.5 148t-126.5 381zM244 537q0 -185 92.5 -295.5t245.5 -110.5q64 0 117.5 21t97 66.5t68 126t24.5 190.5q0 395 -326 395q-151 0 -235 -104t-84 -289zM334 1198l170 244h153l172 -244h-135l-110 164h-4l-111 -164h-135z" />
<glyph unicode="&#x11e;" horiz-adv-x="1552" d="M113 721q0 205 94.5 375.5t262 269t370.5 98.5q141 0 275.5 -42.5t236.5 -125.5l-78 -108q-75 63 -194 103t-234 40q-171 0 -306 -81t-207.5 -219.5t-72.5 -307.5q0 -131 43.5 -245t119.5 -195t182.5 -127.5t228.5 -46.5q127 0 246.5 55.5t205.5 152.5v244h-246v127h379 v-688h-129v109l2 61h-4q-79 -87 -204.5 -141t-264.5 -54q-146 0 -276.5 57t-225 155t-149.5 237t-55 297zM580 1753v31h112v-29q0 -63 35 -94t90 -31q51 0 87 32t36 95v27h113v-31q0 -103 -69.5 -161t-166.5 -58q-99 0 -168 58t-69 161z" />
<glyph unicode="&#x11f;" horiz-adv-x="1191" d="M102 535q0 234 121 377t326 143q110 0 203.5 -45.5t138.5 -135.5h4q-4 12 -4 35v121h135v-1005q0 -95 -27.5 -172.5t-74 -129.5t-110.5 -87t-135 -50.5t-149 -15.5q-177 0 -335 84l51 113q137 -70 280 -70q161 0 260 79t99 242v103q0 17 2 36t4 29l2 11h-4 q-100 -191 -328 -191q-206 0 -332.5 148t-126.5 381zM244 537q0 -185 92.5 -295.5t245.5 -110.5q64 0 117.5 21t97 66.5t68 126t24.5 190.5q0 395 -326 395q-151 0 -235 -104t-84 -289zM344 1411v31h113v-29q0 -63 35 -94t90 -31q51 0 87 32t36 95v27h112v-31 q0 -103 -69 -161t-166 -58q-99 0 -168.5 58t-69.5 161z" />
<glyph unicode="&#x120;" horiz-adv-x="1552" d="M113 721q0 205 94.5 375.5t262 269t370.5 98.5q141 0 275.5 -42.5t236.5 -125.5l-78 -108q-75 63 -194 103t-234 40q-171 0 -306 -81t-207.5 -219.5t-72.5 -307.5q0 -131 43.5 -245t119.5 -195t182.5 -127.5t228.5 -46.5q127 0 246.5 55.5t205.5 152.5v244h-246v127h379 v-688h-129v109l2 61h-4q-79 -87 -204.5 -141t-264.5 -54q-146 0 -276.5 57t-225 155t-149.5 237t-55 297zM750 1610v174h133v-174h-133z" />
<glyph unicode="&#x121;" horiz-adv-x="1191" d="M102 535q0 234 121 377t326 143q110 0 203.5 -45.5t138.5 -135.5h4q-4 12 -4 35v121h135v-1005q0 -95 -27.5 -172.5t-74 -129.5t-110.5 -87t-135 -50.5t-149 -15.5q-177 0 -335 84l51 113q137 -70 280 -70q161 0 260 79t99 242v103q0 17 2 36t4 29l2 11h-4 q-100 -191 -328 -191q-206 0 -332.5 148t-126.5 381zM244 537q0 -185 92.5 -295.5t245.5 -110.5q64 0 117.5 21t97 66.5t68 126t24.5 190.5q0 395 -326 395q-151 0 -235 -104t-84 -289zM514 1268v174h133v-174h-133z" />
<glyph unicode="&#x122;" horiz-adv-x="1552" d="M113 721q0 205 94.5 375.5t262 269t370.5 98.5q141 0 275.5 -42.5t236.5 -125.5l-78 -108q-75 63 -194 103t-234 40q-171 0 -306 -81t-207.5 -219.5t-72.5 -307.5q0 -131 43.5 -245t119.5 -195t182.5 -127.5t228.5 -46.5q127 0 246.5 55.5t205.5 152.5v244h-246v127h379 v-688h-129v109l2 61h-4q-79 -87 -204.5 -141t-264.5 -54q-146 0 -276.5 57t-225 155t-149.5 237t-55 297zM733 -414q39 95 39 166q0 57 -22 119h133q12 -55 12 -100q0 -82 -47 -185h-115z" />
<glyph unicode="&#x123;" horiz-adv-x="1191" d="M102 535q0 234 121 377t326 143q110 0 203.5 -45.5t138.5 -135.5h4q-4 12 -4 35v121h135v-1005q0 -95 -27.5 -172.5t-74 -129.5t-110.5 -87t-135 -50.5t-149 -15.5q-177 0 -335 84l51 113q137 -70 280 -70q161 0 260 79t99 242v103q0 17 2 36t4 29l2 11h-4 q-100 -191 -328 -191q-206 0 -332.5 148t-126.5 381zM244 537q0 -185 92.5 -295.5t245.5 -110.5q64 0 117.5 21t97 66.5t68 126t24.5 190.5q0 395 -326 395q-151 0 -235 -104t-84 -289zM506 1255q0 82 47 185h115q-39 -95 -39 -166q0 -58 22 -117h-133q-12 52 -12 98z" />
<glyph unicode="&#x124;" horiz-adv-x="1529" d="M207 0v1440h141v-656h834v656h143v-1440h-143v657h-834v-657h-141zM516 1540l170 244h154l172 -244h-135l-111 164h-4l-111 -164h-135z" />
<glyph unicode="&#x125;" horiz-adv-x="1216" d="M-8 1540l170 244h153l172 -244h-135l-110 164h-4l-111 -164h-135zM166 0v1440h139v-566q0 -21 -1.5 -41.5t-3.5 -30.5l-1 -11h4q16 40 49 82.5t83 85t124 69.5t156 27q185 0 265.5 -100.5t80.5 -299.5v-655h-139v618q0 54 -4 94.5t-18 82.5t-38 68.5t-66 43.5t-100 17 q-165 0 -278 -121t-113 -305v-498h-139z" />
<glyph unicode="&#x126;" horiz-adv-x="1552" d="M86 1049v108h133v283h143v-283h828v283h143v-283h133v-108h-133v-1049h-143v657h-828v-657h-143v1049h-133zM362 784h828v265h-828v-265z" />
<glyph unicode="&#x127;" horiz-adv-x="1216" d="M10 1159v105h156v176h139v-176h275v-105h-275v-276l-4 -84h4q17 40 49.5 81t82 82t123 67t155.5 26q185 0 265.5 -100.5t80.5 -299.5v-655h-139v618q0 54 -4 94.5t-18 82.5t-38 68.5t-66 43.5t-100 17q-111 0 -201 -57.5t-140 -153.5t-50 -209v-504h-139v1159h-156z" />
<glyph unicode="&#x128;" horiz-adv-x="555" d="M-39 1546q0 238 189 238q46 0 85 -23t61 -50t52 -50t60 -23q24 0 41 14t25 37t11.5 45t3.5 44h111q0 -238 -188 -238q-46 0 -85 23t-61 50t-52 50t-60 23q-24 0 -41 -14t-25 -37t-11 -44.5t-3 -44.5h-113zM207 0v1440h141v-1440h-141z" />
<glyph unicode="&#x129;" horiz-adv-x="471" d="M-80 1204q0 238 189 238q46 0 85 -23t61 -50t52 -50t60 -23q24 0 41 14t25.5 37t12 45t3.5 44h110q0 -238 -188 -238q-38 0 -70 15t-54 36t-42 42.5t-43.5 36.5t-48.5 15q-31 0 -50.5 -25t-24.5 -53t-5 -61h-113zM166 0v1030h139v-1030h-139z" />
<glyph unicode="&#x12a;" horiz-adv-x="555" d="M29 1608v112h503v-112h-503zM207 0v1440h141v-1440h-141z" />
<glyph unicode="&#x12b;" horiz-adv-x="471" d="M-14 1266v112h503v-112h-503zM166 0v1030h139v-1030h-139z" />
<glyph unicode="&#x12c;" horiz-adv-x="555" d="M43 1753v31h113v-29q0 -63 35 -94t90 -31q51 0 86.5 32t35.5 95v27h113v-31q0 -103 -69 -161t-166 -58q-99 0 -168.5 58t-69.5 161zM207 0v1440h141v-1440h-141z" />
<glyph unicode="&#x12d;" horiz-adv-x="471" d="M2 1411v31h113v-29q0 -63 35 -94t90 -31q51 0 86.5 32t35.5 95v27h113v-31q0 -103 -69 -161t-166 -58q-99 0 -168.5 58t-69.5 161zM166 0v1030h139v-1030h-139z" />
<glyph unicode="&#x12e;" horiz-adv-x="555" d="M70 -231q0 66 43 126.5t100 104.5h-6v1440h141v-1440q-149 -116 -149 -203q0 -26 13 -46t31.5 -30t37.5 -16.5t32 -8.5l13 -1l-31 -115q-5 0 -13 1t-31.5 6t-44.5 12.5t-47 22t-44.5 33.5t-31.5 48.5t-13 65.5z" />
<glyph unicode="&#x12f;" horiz-adv-x="473" d="M29 -229q0 67 44 126.5t103 102.5h-10v1030h139v-1028l2 -2q-149 -116 -149 -203q0 -41 32 -66.5t64 -30.5l31 -5l-31 -115q-5 0 -13 1t-31.5 6t-44.5 12.5t-47 22.5t-44.5 34t-31.5 49t-13 66zM160 1266v174h151v-174h-151z" />
<glyph unicode="&#x130;" horiz-adv-x="555" d="M207 0v1440h141v-1440h-141zM213 1610v174h133v-174h-133z" />
<glyph unicode="&#x131;" horiz-adv-x="471" d="M166 0v1030h139v-1030h-139z" />
<glyph unicode="&#x132;" horiz-adv-x="1189" d="M207 0v1440h141v-1440h-141zM555 -10v133q299 0 299 344v973h143v-973q0 -115 -27 -202.5t-69.5 -138.5t-103 -82.5t-118 -42.5t-124.5 -11z" />
<glyph unicode="&#x133;" horiz-adv-x="944" d="M160 1266v174h151v-174h-151zM166 0v1030h139v-1030h-139zM358 -293q16 -4 45 -4q28 0 54.5 4.5t61 21t59 43.5t42 77.5t17.5 117.5v1063h139v-1067q0 -98 -26.5 -171.5t-65 -113t-91 -63.5t-93 -30.5t-82.5 -6.5q-30 0 -60 6v123zM631 1266v174h151v-174h-151z" />
<glyph unicode="&#x134;" horiz-adv-x="1064" d="M66 403v58h141v-53q0 -128 65.5 -213.5t194.5 -85.5q112 0 188 71t76 223v910h-352v127h493v-1037q0 -112 -34.5 -197.5t-93 -134t-128 -72.5t-147.5 -24q-62 0 -118.5 14.5t-109 47.5t-91 81.5t-61.5 121.5t-23 163zM377 1540l170 244h153l172 -244h-135l-110 164h-4 l-111 -164h-135z" />
<glyph unicode="&#x135;" horiz-adv-x="471" d="M-113 -293q24 -4 45 -4q28 0 54.5 4.5t61 21t59 43.5t42 77.5t17.5 117.5v1063h139v-1067q0 -98 -26.5 -171.5t-65 -113t-91 -63.5t-93 -30.5t-82.5 -6.5q-30 0 -60 6v123zM-16 1196l172 244h147l172 -244h-133l-111 166h-4l-110 -166h-133z" />
<glyph unicode="&#x136;" horiz-adv-x="1210" d="M207 0v1440h141v-625h242l389 625h162l-432 -680v-4l460 -756h-165l-414 688h-242v-688h-141zM547 -414q39 95 39 166q0 54 -23 119h133q13 -60 13 -100q0 -82 -47 -185h-115z" />
<glyph unicode="&#x137;" horiz-adv-x="1015" d="M166 0v1440h139v-803h166l307 393h168l-358 -448v-4l395 -578h-168l-342 514h-168v-514h-139zM446 -414q39 95 39 166q0 57 -22 119h133q12 -55 12 -100q0 -82 -47 -185h-115z" />
<glyph unicode="&#x138;" horiz-adv-x="1011" d="M166 0v1030h139v-422h162l326 422h170l-375 -477v-4l377 -549h-172l-324 487h-164v-487h-139z" />
<glyph unicode="&#x139;" horiz-adv-x="1058" d="M207 0v1440h141v-1313h668v-127h-809zM213 1540l141 244h162l-178 -244h-125z" />
<glyph unicode="&#x13a;" horiz-adv-x="503" d="M166 244v1196h139v-1166q0 -48 10.5 -80.5t29 -48t36.5 -21t41 -5.5q21 0 33 2v-125q-24 -4 -52 -4q-30 0 -57.5 4.5t-62 20t-59 41.5t-41.5 74t-17 112zM174 1540l141 244h162l-178 -244h-125z" />
<glyph unicode="&#x13b;" horiz-adv-x="1058" d="M207 0v1440h141v-1313h668v-127h-809zM539 -414q39 95 39 166q0 54 -23 119h133q12 -55 12 -100q0 -82 -47 -185h-114z" />
<glyph unicode="&#x13c;" horiz-adv-x="503" d="M166 244v1196h139v-1166q0 -48 10.5 -80.5t29 -48t36.5 -21t41 -5.5q21 0 33 2v-125q-24 -4 -52 -4q-30 0 -57.5 4.5t-62 20t-59 41.5t-41.5 74t-17 112zM221 -414q39 95 39 166q0 57 -22 119h133q12 -55 12 -100q0 -82 -47 -185h-115z" />
<glyph unicode="&#x13d;" horiz-adv-x="1058" d="M207 0v1440h141v-1313h668v-127h-809zM518 1153q39 95 39 166q0 57 -22 119h133q12 -55 12 -101q0 -81 -47 -184h-115z" />
<glyph unicode="&#x13e;" horiz-adv-x="512" d="M166 244v1196h139v-1166q0 -48 10.5 -80.5t29 -48t36.5 -21t41 -5.5q21 0 33 2v-125q-24 -4 -52 -4q-30 0 -57.5 4.5t-62 20t-59 41.5t-41.5 74t-17 112zM420 1153q39 95 39 166q0 54 -23 119h133q13 -60 13 -101q0 -81 -47 -184h-115z" />
<glyph unicode="&#x13f;" horiz-adv-x="1058" d="M207 0v1440h141v-1313h668v-127h-809zM602 676v170h164v-170h-164z" />
<glyph unicode="&#x140;" horiz-adv-x="583" d="M166 244v1196h139v-1166q0 -48 10.5 -80.5t29 -48t36.5 -21t41 -5.5q21 0 33 2v-125q-24 -4 -52 -4q-30 0 -57.5 4.5t-62 20t-59 41.5t-41.5 74t-17 112zM444 676v170h164v-170h-164z" />
<glyph unicode="&#x141;" horiz-adv-x="1069" d="M90 618v144l127 74v604h141v-522l232 133v-146l-232 -133v-645h668v-127h-809v690z" />
<glyph unicode="&#x142;" horiz-adv-x="548" d="M33 627v143l166 96v574h139v-494l178 105v-146l-178 -104v-527q0 -48 10.5 -80.5t29 -48t36.5 -21t41 -5.5l32 2v-125q-24 -4 -51 -4q-31 0 -58.5 4.5t-61.5 20t-58.5 41.5t-41.5 74t-17 112v477z" />
<glyph unicode="&#x143;" horiz-adv-x="1538" d="M207 0v1440h137l735 -1037q22 -32 51.5 -80.5t48.5 -80.5l19 -33h4q-12 118 -12 194v1037h141v-1440h-137l-735 1036q-22 32 -51.5 81t-48.5 81l-19 33h-4q12 -119 12 -195v-1036h-141zM700 1540l142 244h162l-179 -244h-125z" />
<glyph unicode="&#x144;" horiz-adv-x="1216" d="M166 0v1030h137v-162q0 -20 -2 -40.5t-4 -31.5l-2 -10h4q13 31 35 64.5t59 71t82 66.5t108 48t132 19q185 0 265.5 -100.5t80.5 -299.5v-655h-139v618q0 54 -4 94.5t-18 82.5t-38 68.5t-66 43.5t-100 17q-165 0 -278 -120.5t-113 -299.5v-504h-139zM565 1198l142 244h161 l-178 -244h-125z" />
<glyph unicode="&#x145;" horiz-adv-x="1538" d="M207 0v1440h137l735 -1037q22 -32 51.5 -80.5t48.5 -80.5l19 -33h4q-12 118 -12 194v1037h141v-1440h-137l-735 1036q-22 32 -51.5 81t-48.5 81l-19 33h-4q12 -119 12 -195v-1036h-141zM682 -414q39 95 39 166q0 54 -23 119h133q13 -60 13 -100q0 -82 -47 -185h-115z" />
<glyph unicode="&#x146;" horiz-adv-x="1216" d="M166 0v1030h137v-162q0 -20 -2 -40.5t-4 -31.5l-2 -10h4q13 31 35 64.5t59 71t82 66.5t108 48t132 19q185 0 265.5 -100.5t80.5 -299.5v-655h-139v618q0 54 -4 94.5t-18 82.5t-38 68.5t-66 43.5t-100 17q-165 0 -278 -120.5t-113 -299.5v-504h-139zM526 -414 q39 95 39 166q0 57 -22 119h133q12 -55 12 -100q0 -82 -47 -185h-115z" />
<glyph unicode="&#x147;" horiz-adv-x="1538" d="M207 0v1440h137l735 -1037q22 -32 51.5 -80.5t48.5 -80.5l19 -33h4q-12 118 -12 194v1037h141v-1440h-137l-735 1036q-22 32 -51.5 81t-48.5 81l-19 33h-4q12 -119 12 -195v-1036h-141zM520 1784h135l111 -164h4l111 164h135l-172 -244h-154z" />
<glyph unicode="&#x148;" horiz-adv-x="1216" d="M166 0v1030h137v-162q0 -20 -2 -40.5t-4 -31.5l-2 -10h4q13 31 35 64.5t59 71t82 66.5t108 48t132 19q185 0 265.5 -100.5t80.5 -299.5v-655h-139v618q0 54 -4 94.5t-18 82.5t-38 68.5t-66 43.5t-100 17q-165 0 -278 -120.5t-113 -299.5v-504h-139zM385 1442h135 l111 -164h4l110 164h136l-172 -244h-154z" />
<glyph unicode="&#x149;" horiz-adv-x="1216" d="M23 1153q38 93 38 166q0 57 -22 119h133q12 -55 12 -101q0 -81 -47 -184h-114zM166 0v1030h137v-162q0 -20 -2 -40.5t-4 -31.5l-2 -10h4q13 31 35 64.5t59 71t82 66.5t108 48t132 19q185 0 265.5 -100.5t80.5 -299.5v-655h-139v618q0 54 -4 94.5t-18 82.5t-38 68.5 t-66 43.5t-100 17q-165 0 -278 -120.5t-113 -299.5v-504h-139z" />
<glyph unicode="&#x14a;" horiz-adv-x="1538" d="M207 0v1440h137l735 -1037q22 -32 51.5 -80.5t48.5 -80.5l19 -33h4q-12 118 -12 194v1037h141v-1415q0 -98 -25 -176.5t-66 -127.5t-97.5 -81.5t-115 -46t-122.5 -13.5v133q50 0 96.5 15.5t88.5 48.5t68.5 93t27.5 140l-727 1026q-22 32 -51.5 81t-48.5 81l-19 33h-4 q12 -119 12 -195v-1036h-141z" />
<glyph unicode="&#x14b;" horiz-adv-x="1216" d="M166 0v1030h137v-164l-4 -71h4q17 40 48 81t80.5 83.5t124 69t159.5 26.5q185 0 265.5 -100.5t80.5 -299.5v-702q0 -97 -27 -170.5t-65.5 -112.5t-91.5 -63t-93.5 -30.5t-83.5 -6.5q-16 0 -30.5 1.5t-21.5 2.5l-7 2v121q18 -2 45 -2q29 0 56 4.5t61.5 21t59 43.5t42 77.5 t17.5 117.5v659q0 54 -4 94.5t-18 82.5t-38 68.5t-66 43.5t-100 17q-112 0 -202 -57.5t-139.5 -153.5t-49.5 -209v-504h-139z" />
<glyph unicode="&#x14c;" horiz-adv-x="1689" d="M111 731q0 204 95 371.5t263.5 264.5t374.5 97q207 0 375.5 -97t263 -264.5t94.5 -371.5q0 -210 -94.5 -383t-263 -273t-375.5 -100q-206 0 -374.5 100t-263.5 273t-95 383zM258 731q0 -174 76 -316.5t210.5 -224t299.5 -81.5q166 0 300.5 81.5t210 224t75.5 316.5 q0 168 -75.5 305.5t-210 216t-300.5 78.5q-165 0 -299.5 -78.5t-210.5 -216t-76 -305.5zM592 1608v112h504v-112h-504z" />
<glyph unicode="&#x14d;" horiz-adv-x="1277" d="M96 520q0 150 72.5 273t197 192.5t273.5 69.5t274 -69.5t198 -192.5t73 -273q0 -114 -43 -216t-116.5 -173.5t-174 -113.5t-211.5 -42t-211.5 42t-173 113.5t-115.5 173.5t-43 216zM240 520q0 -180 115.5 -299t283.5 -119t284.5 119.5t116.5 298.5q0 174 -117 292 t-284 118t-283 -118t-116 -292zM387 1266v112h504v-112h-504z" />
<glyph unicode="&#x14e;" horiz-adv-x="1689" d="M111 731q0 204 95 371.5t263.5 264.5t374.5 97q207 0 375.5 -97t263 -264.5t94.5 -371.5q0 -210 -94.5 -383t-263 -273t-375.5 -100q-206 0 -374.5 100t-263.5 273t-95 383zM258 731q0 -174 76 -316.5t210.5 -224t299.5 -81.5q166 0 300.5 81.5t210 224t75.5 316.5 q0 168 -75.5 305.5t-210 216t-300.5 78.5q-165 0 -299.5 -78.5t-210.5 -216t-76 -305.5zM606 1753v31h113v-29q0 -63 35 -94t90 -31q51 0 87 32t36 95v27h112v-31q0 -103 -69 -161t-166 -58q-99 0 -168.5 58t-69.5 161z" />
<glyph unicode="&#x14f;" horiz-adv-x="1277" d="M96 520q0 150 72.5 273t197 192.5t273.5 69.5t274 -69.5t198 -192.5t73 -273q0 -114 -43 -216t-116.5 -173.5t-174 -113.5t-211.5 -42t-211.5 42t-173 113.5t-115.5 173.5t-43 216zM240 520q0 -180 115.5 -299t283.5 -119t284.5 119.5t116.5 298.5q0 174 -117 292 t-284 118t-283 -118t-116 -292zM401 1411v31h113v-29q0 -63 35 -94t90 -31q51 0 87 32t36 95v27h112v-31q0 -103 -69 -161t-166 -58q-99 0 -168.5 58t-69.5 161z" />
<glyph unicode="&#x150;" horiz-adv-x="1689" d="M111 731q0 204 95 371.5t263.5 264.5t374.5 97q207 0 375.5 -97t263 -264.5t94.5 -371.5q0 -210 -94.5 -383t-263 -273t-375.5 -100q-206 0 -374.5 100t-263.5 273t-95 383zM258 731q0 -174 76 -316.5t210.5 -224t299.5 -81.5q166 0 300.5 81.5t210 224t75.5 316.5 q0 168 -75.5 305.5t-210 216t-300.5 78.5q-165 0 -299.5 -78.5t-210.5 -216t-76 -305.5zM612 1540l133 244h140l-140 -244h-133zM887 1540l143 244h158l-178 -244h-123z" />
<glyph unicode="&#x151;" horiz-adv-x="1277" d="M96 520q0 150 72.5 273t197 192.5t273.5 69.5t274 -69.5t198 -192.5t73 -273q0 -114 -43 -216t-116.5 -173.5t-174 -113.5t-211.5 -42t-211.5 42t-173 113.5t-115.5 173.5t-43 216zM240 520q0 -180 115.5 -299t283.5 -119t284.5 119.5t116.5 298.5q0 174 -117 292 t-284 118t-283 -118t-116 -292zM408 1198l133 244h139l-139 -244h-133zM682 1198l143 244h158l-178 -244h-123z" />
<glyph unicode="&#x152;" horiz-adv-x="1931" d="M113 721q0 153 55.5 289.5t152 234.5t233.5 155.5t294 57.5q43 0 128 -9t116 -9h710v-127h-669v-525h546v-126h-546v-535h706v-127h-747q-29 0 -115 -10t-129 -10q-157 0 -294 57.5t-233.5 156.5t-152 236t-55.5 291zM260 721q0 -172 73 -311.5t208 -220t307 -80.5 q35 0 70.5 4t53.5 8l19 4v1190q-65 16 -143 16q-172 0 -307 -80.5t-208 -219.5t-73 -310z" />
<glyph unicode="&#x153;" horiz-adv-x="2074" d="M96 514q0 159 74.5 284t197 191t269.5 66q154 0 277 -74t188 -203h4q60 132 176 204.5t264 72.5q138 0 238 -66t147 -172t47 -237l-4 -70h-790q9 -193 122.5 -300.5t276.5 -107.5q174 0 313 123l64 -106q-72 -66 -175.5 -105t-207.5 -39q-159 0 -282 75t-187 206h-4 q-65 -131 -188 -206t-279 -75q-147 0 -269.5 65.5t-197 190t-74.5 283.5zM240 514q0 -183 116 -297.5t283 -114.5q168 0 284.5 115.5t116.5 302.5q0 182 -118 296t-283 114q-166 0 -282.5 -117t-116.5 -299zM1190 621h645q-6 153 -87.5 235t-203.5 82q-133 0 -231.5 -84 t-122.5 -233z" />
<glyph unicode="&#x154;" horiz-adv-x="1263" d="M207 0v1440h436q174 0 264 -41q99 -47 156 -140t57 -221q0 -146 -75.5 -254.5t-198.5 -142.5v-4q16 -18 39 -57l313 -580h-164l-323 606h-363v-606h-141zM348 733h342q130 0 207.5 82.5t77.5 218.5q0 86 -40 153t-112 99q-62 27 -188 27h-287v-580zM549 1540l141 244h162 l-178 -244h-125z" />
<glyph unicode="&#x155;" horiz-adv-x="731" d="M166 0v1030h137v-190q0 -20 -2 -40.5t-4 -31.5l-2 -10h4q40 123 127.5 202.5t202.5 79.5q31 0 55 -6v-137q-12 4 -51 4q-83 0 -148 -43t-103 -113t-57.5 -149t-19.5 -160v-436h-139zM371 1196l141 244h162l-178 -244h-125z" />
<glyph unicode="&#x156;" horiz-adv-x="1263" d="M207 0v1440h436q174 0 264 -41q99 -47 156 -140t57 -221q0 -146 -75.5 -254.5t-198.5 -142.5v-4q16 -18 39 -57l313 -580h-164l-323 606h-363v-606h-141zM348 733h342q130 0 207.5 82.5t77.5 218.5q0 86 -40 153t-112 99q-62 27 -188 27h-287v-580zM571 -414 q39 95 39 166q0 57 -22 119h133q12 -55 12 -100q0 -82 -47 -185h-115z" />
<glyph unicode="&#x157;" horiz-adv-x="731" d="M156 -414q39 95 39 166q0 54 -23 119h133q12 -55 12 -100q0 -82 -47 -185h-114zM166 0v1030h137v-190q0 -20 -2 -40.5t-4 -31.5l-2 -10h4q40 123 127.5 202.5t202.5 79.5q31 0 55 -6v-137q-12 4 -51 4q-83 0 -148 -43t-103 -113t-57.5 -149t-19.5 -160v-436h-139z" />
<glyph unicode="&#x158;" horiz-adv-x="1263" d="M207 0v1440h436q174 0 264 -41q99 -47 156 -140t57 -221q0 -146 -75.5 -254.5t-198.5 -142.5v-4q16 -18 39 -57l313 -580h-164l-323 606h-363v-606h-141zM348 733h342q130 0 207.5 82.5t77.5 218.5q0 86 -40 153t-112 99q-62 27 -188 27h-287v-580zM369 1784h135 l110 -164h4l111 164h135l-172 -244h-153z" />
<glyph unicode="&#x159;" horiz-adv-x="731" d="M166 0v1030h137v-190q0 -20 -2 -40.5t-4 -31.5l-2 -10h4q40 123 127.5 202.5t202.5 79.5q31 0 55 -6v-137q-12 4 -51 4q-83 0 -148 -43t-103 -113t-57.5 -149t-19.5 -160v-436h-139zM193 1440h135l110 -164h4l111 164h135l-172 -244h-154z" />
<glyph unicode="&#x15a;" horiz-adv-x="1093" d="M96 160l84 108q71 -69 170.5 -113t202.5 -44q129 0 210 67t81 178q0 73 -39.5 130t-103 94.5t-139.5 71t-152.5 70.5t-140 81.5t-103 115t-39.5 160.5q0 115 60.5 203.5t163 135t229.5 46.5q105 0 207.5 -36t173.5 -103l-70 -119q-59 56 -145.5 89.5t-172.5 33.5 q-128 0 -214.5 -65.5t-86.5 -176.5q0 -70 39.5 -123.5t103 -89t139.5 -68t152.5 -69t140 -82t103 -118t39.5 -166.5q0 -171 -118.5 -283.5t-321.5 -112.5q-126 0 -245.5 48.5t-207.5 136.5zM483 1540l142 244h161l-178 -244h-125z" />
<glyph unicode="&#x15b;" horiz-adv-x="897" d="M76 125l74 98q58 -59 141.5 -92t169.5 -33q90 0 148.5 43.5t58.5 122.5q0 46 -30.5 81.5t-78.5 59.5t-106.5 46.5t-117.5 49t-107 59.5t-78.5 86t-30.5 122q0 135 100.5 211t249.5 76q198 0 317 -113l-65 -104q-43 43 -115 68.5t-143 25.5q-89 0 -148 -40t-59 -120 q0 -48 30.5 -84t79 -60.5t107 -46.5t117.5 -48t107.5 -59t79 -86t30.5 -122q0 -127 -98 -209t-250 -82q-108 0 -210 38t-173 112zM387 1198l141 244h162l-178 -244h-125z" />
<glyph unicode="&#x15c;" horiz-adv-x="1093" d="M96 160l84 108q71 -69 170.5 -113t202.5 -44q129 0 210 67t81 178q0 73 -39.5 130t-103 94.5t-139.5 71t-152.5 70.5t-140 81.5t-103 115t-39.5 160.5q0 115 60.5 203.5t163 135t229.5 46.5q105 0 207.5 -36t173.5 -103l-70 -119q-59 56 -145.5 89.5t-172.5 33.5 q-128 0 -214.5 -65.5t-86.5 -176.5q0 -70 39.5 -123.5t103 -89t139.5 -68t152.5 -69t140 -82t103 -118t39.5 -166.5q0 -171 -118.5 -283.5t-321.5 -112.5q-126 0 -245.5 48.5t-207.5 136.5zM303 1540l170 244h154l172 -244h-135l-111 164h-4l-111 -164h-135z" />
<glyph unicode="&#x15d;" horiz-adv-x="897" d="M76 125l74 98q58 -59 141.5 -92t169.5 -33q90 0 148.5 43.5t58.5 122.5q0 46 -30.5 81.5t-78.5 59.5t-106.5 46.5t-117.5 49t-107 59.5t-78.5 86t-30.5 122q0 135 100.5 211t249.5 76q198 0 317 -113l-65 -104q-43 43 -115 68.5t-143 25.5q-89 0 -148 -40t-59 -120 q0 -48 30.5 -84t79 -60.5t107 -46.5t117.5 -48t107.5 -59t79 -86t30.5 -122q0 -127 -98 -209t-250 -82q-108 0 -210 38t-173 112zM209 1198l170 244h153l173 -244h-136l-110 164h-4l-111 -164h-135z" />
<glyph unicode="&#x15e;" horiz-adv-x="1095" d="M96 160l84 108q71 -69 170.5 -113t202.5 -44q129 0 210 67t81 178q0 73 -39.5 130t-103 94.5t-139.5 71t-152.5 70.5t-140 81.5t-103 115t-39.5 160.5q0 115 60.5 203.5t163 135t229.5 46.5q105 0 207.5 -36t173.5 -103l-70 -119q-59 56 -145.5 89.5t-172.5 33.5 q-128 0 -214.5 -65.5t-86.5 -176.5q0 -70 39.5 -123.5t103 -89t139.5 -68t152.5 -69t140 -82t103 -118t39.5 -166.5q0 -161 -106 -271.5t-289 -122.5l-16 -90q65 -9 104 -47t39 -98q0 -83 -56.5 -122.5t-140.5 -39.5q-61 0 -102 10v99q32 -13 86 -13q104 0 104 70 q0 33 -31 51.5t-85 18.5l-31 -2l37 163q-115 9 -221.5 56t-184.5 127z" />
<glyph unicode="&#x15f;" horiz-adv-x="901" d="M78 125l74 98q58 -59 141.5 -92t169.5 -33q90 0 148.5 43.5t58.5 122.5q0 46 -30.5 81.5t-78.5 59.5t-106.5 46.5t-117.5 49t-107 59.5t-78.5 86t-30.5 122q0 135 100.5 211t249.5 76q198 0 317 -113l-65 -104q-43 43 -115 68.5t-143 25.5q-89 0 -148 -40t-59 -120 q0 -48 30.5 -84t79 -60.5t107 -46.5t117.5 -48t107.5 -59t79 -86t30.5 -122q0 -120 -87.5 -200t-225.5 -89l-17 -90q65 -9 104.5 -47t39.5 -98q0 -83 -56.5 -122.5t-140.5 -39.5q-61 0 -102 10v99q32 -13 86 -13q104 0 104 70q0 33 -31 51.5t-86 18.5l-30 -2l39 163 q-209 21 -328 148z" />
<glyph unicode="&#x160;" horiz-adv-x="1093" d="M96 160l84 108q71 -69 170.5 -113t202.5 -44q129 0 210 67t81 178q0 73 -39.5 130t-103 94.5t-139.5 71t-152.5 70.5t-140 81.5t-103 115t-39.5 160.5q0 115 60.5 203.5t163 135t229.5 46.5q105 0 207.5 -36t173.5 -103l-70 -119q-59 56 -145.5 89.5t-172.5 33.5 q-128 0 -214.5 -65.5t-86.5 -176.5q0 -70 39.5 -123.5t103 -89t139.5 -68t152.5 -69t140 -82t103 -118t39.5 -166.5q0 -171 -118.5 -283.5t-321.5 -112.5q-126 0 -245.5 48.5t-207.5 136.5zM303 1784h135l111 -164h4l111 164h135l-172 -244h-154z" />
<glyph unicode="&#x161;" horiz-adv-x="897" d="M76 125l74 98q58 -59 141.5 -92t169.5 -33q90 0 148.5 43.5t58.5 122.5q0 46 -30.5 81.5t-78.5 59.5t-106.5 46.5t-117.5 49t-107 59.5t-78.5 86t-30.5 122q0 135 100.5 211t249.5 76q198 0 317 -113l-65 -104q-43 43 -115 68.5t-143 25.5q-89 0 -148 -40t-59 -120 q0 -48 30.5 -84t79 -60.5t107 -46.5t117.5 -48t107.5 -59t79 -86t30.5 -122q0 -127 -98 -209t-250 -82q-108 0 -210 38t-173 112zM209 1442h135l111 -164h4l110 164h136l-173 -244h-153z" />
<glyph unicode="&#x162;" horiz-adv-x="1243" d="M35 1313v127h1175v-127h-518v-1313h-28l-21 -113q65 -9 104 -47t39 -98q0 -83 -56 -122.5t-140 -39.5q-62 0 -103 10v99q33 -13 86 -13q105 0 105 70q0 33 -31 51.5t-86 18.5l-31 -2l43 186h-22v1313h-516z" />
<glyph unicode="&#x163;" horiz-adv-x="665" d="M68 905v117h137v293h137v-293h260v-117h-260v-516q0 -68 17 -120t41.5 -80t58.5 -45t61 -22t55 -5q30 0 48 4v-125q-24 -4 -60 -4q-65 0 -117 12l-20 -117q65 -9 104 -47t39 -98q0 -83 -56 -122.5t-140 -39.5q-62 0 -103 10v99q32 -13 86 -13q105 0 105 70q0 33 -31 51.5 t-86 18.5l-31 -2l52 223q-162 92 -162 338v530h-135z" />
<glyph unicode="&#x164;" horiz-adv-x="1243" d="M35 1313v127h1175v-127h-518v-1313h-141v1313h-516zM373 1784h135l110 -164h5l110 164h135l-172 -244h-153z" />
<glyph unicode="&#x165;" horiz-adv-x="665" d="M68 905v117h137v293h137v-293h260v-117h-260v-516q0 -68 17 -120t41.5 -80t58.5 -45t61 -22t55 -5q30 0 48 4v-125q-24 -4 -60 -4q-43 0 -83.5 6.5t-93.5 30t-91 62.5t-65 112.5t-27 171.5v530h-135zM463 1155q39 95 39 164q0 54 -23 119h133q13 -60 13 -101 q0 -79 -47 -182h-115z" />
<glyph unicode="&#x166;" horiz-adv-x="1263" d="M45 1313v127h1176v-127h-519v-533h340v-116h-340v-664h-141v664h-330v116h330v533h-516z" />
<glyph unicode="&#x167;" horiz-adv-x="675" d="M68 569v109h141v227h-135v117h135v293h137v-293h260v-117h-260v-227h256v-109h-256v-184q0 -67 17 -118t42 -78.5t58.5 -44.5t61 -22t55.5 -5l47 4v-125q-25 -4 -60 -4q-43 0 -83.5 6.5t-93 30t-90.5 62.5t-64.5 112.5t-26.5 171.5v194h-141z" />
<glyph unicode="&#x168;" horiz-adv-x="1480" d="M190 502v938h142v-936q0 -184 110.5 -289.5t296.5 -105.5q188 0 299 106t111 293v932h143v-938q0 -238 -152.5 -382.5t-398.5 -144.5t-398.5 144.5t-152.5 382.5zM420 1546q0 238 188 238q46 0 85 -23t61 -50t52 -50t60 -23q24 0 41 14t25.5 37t12 45t3.5 44h111 q0 -238 -189 -238q-46 0 -85 23t-61 50t-52 50t-60 23q-24 0 -41 -14t-25 -37t-11 -44.5t-3 -44.5h-112z" />
<glyph unicode="&#x169;" horiz-adv-x="1204" d="M154 375v655h141v-618q0 -55 4 -95t17.5 -82t37 -68.5t65 -43.5t99.5 -17q114 0 202.5 61.5t133.5 159t45 210.5v493h139v-1030h-137v162q0 20 2 40.5t4 31.5l2 10h-4q-13 -32 -35.5 -66.5t-59 -71.5t-81 -65.5t-104.5 -47t-125 -18.5q-181 0 -263.5 98t-82.5 302z M276 1204q0 238 189 238q46 0 85 -23t61 -50t52 -50t60 -23q24 0 41 14t25.5 37t12 45t3.5 44h110q0 -238 -188 -238q-38 0 -70 15t-54 36t-42 42.5t-43.5 36.5t-48.5 15q-31 0 -50.5 -25t-24.5 -53t-5 -61h-113z" />
<glyph unicode="&#x16a;" horiz-adv-x="1480" d="M190 502v938h142v-936q0 -184 110.5 -289.5t296.5 -105.5q188 0 299 106t111 293v932h143v-938q0 -238 -152.5 -382.5t-398.5 -144.5t-398.5 144.5t-152.5 382.5zM487 1608v112h504v-112h-504z" />
<glyph unicode="&#x16b;" horiz-adv-x="1204" d="M154 375v655h141v-618q0 -55 4 -95t17.5 -82t37 -68.5t65 -43.5t99.5 -17q114 0 202.5 61.5t133.5 159t45 210.5v493h139v-1030h-137v162q0 20 2 40.5t4 31.5l2 10h-4q-13 -32 -35.5 -66.5t-59 -71.5t-81 -65.5t-104.5 -47t-125 -18.5q-181 0 -263.5 98t-82.5 302z M344 1266v112h504v-112h-504z" />
<glyph unicode="&#x16c;" horiz-adv-x="1480" d="M190 502v938h142v-936q0 -184 110.5 -289.5t296.5 -105.5q188 0 299 106t111 293v932h143v-938q0 -238 -152.5 -382.5t-398.5 -144.5t-398.5 144.5t-152.5 382.5zM502 1753v31h112v-29q0 -63 35 -94t90 -31q51 0 87 32t36 95v27h113v-31q0 -103 -69.5 -161t-166.5 -58 q-99 0 -168 58t-69 161z" />
<glyph unicode="&#x16d;" horiz-adv-x="1204" d="M154 375v655h141v-618q0 -55 4 -95t17.5 -82t37 -68.5t65 -43.5t99.5 -17q114 0 202.5 61.5t133.5 159t45 210.5v493h139v-1030h-137v162q0 20 2 40.5t4 31.5l2 10h-4q-13 -32 -35.5 -66.5t-59 -71.5t-81 -65.5t-104.5 -47t-125 -18.5q-181 0 -263.5 98t-82.5 302z M358 1411v31h113v-29q0 -63 35 -94t90 -31q51 0 87 32t36 95v27h112v-31q0 -103 -69 -161t-166 -58q-99 0 -168.5 58t-69.5 161z" />
<glyph unicode="&#x16e;" horiz-adv-x="1480" d="M190 502v938h142v-936q0 -184 110.5 -289.5t296.5 -105.5q188 0 299 106t111 293v932h143v-938q0 -238 -152.5 -382.5t-398.5 -144.5t-398.5 144.5t-152.5 382.5zM584 1663q0 64 44.5 104.5t110.5 40.5q63 0 108.5 -41t45.5 -104t-45.5 -103t-108.5 -40q-66 0 -110.5 40 t-44.5 103zM672 1663q0 -30 18.5 -49t48.5 -19q29 0 47.5 19.5t18.5 48.5q0 31 -18.5 50.5t-47.5 19.5q-30 0 -48.5 -19.5t-18.5 -50.5z" />
<glyph unicode="&#x16f;" horiz-adv-x="1204" d="M154 375v655h141v-618q0 -55 4 -95t17.5 -82t37 -68.5t65 -43.5t99.5 -17q114 0 202.5 61.5t133.5 159t45 210.5v493h139v-1030h-137v162q0 20 2 40.5t4 31.5l2 10h-4q-13 -32 -35.5 -66.5t-59 -71.5t-81 -65.5t-104.5 -47t-125 -18.5q-181 0 -263.5 98t-82.5 302z M440 1321q0 63 45 104t111 41q63 0 108.5 -41t45.5 -104t-45.5 -103t-108.5 -40q-66 0 -111 40t-45 103zM528 1321q0 -30 19 -49t49 -19q29 0 47.5 19.5t18.5 48.5q0 31 -18.5 50.5t-47.5 19.5q-31 0 -49.5 -19.5t-18.5 -50.5z" />
<glyph unicode="&#x170;" horiz-adv-x="1480" d="M190 502v938h142v-936q0 -184 110.5 -289.5t296.5 -105.5q188 0 299 106t111 293v932h143v-938q0 -238 -152.5 -382.5t-398.5 -144.5t-398.5 144.5t-152.5 382.5zM508 1540l133 244h139l-139 -244h-133zM782 1540l144 244h157l-178 -244h-123z" />
<glyph unicode="&#x171;" horiz-adv-x="1204" d="M154 375v655h141v-618q0 -55 4 -95t17.5 -82t37 -68.5t65 -43.5t99.5 -17q114 0 202.5 61.5t133.5 159t45 210.5v493h139v-1030h-137v162q0 20 2 40.5t4 31.5l2 10h-4q-13 -32 -35.5 -66.5t-59 -71.5t-81 -65.5t-104.5 -47t-125 -18.5q-181 0 -263.5 98t-82.5 302z M365 1198l133 244h139l-139 -244h-133zM639 1198l143 244h158l-178 -244h-123z" />
<glyph unicode="&#x172;" horiz-adv-x="1480" d="M190 502v938h142v-936q0 -184 110.5 -289.5t298.5 -105.5q187 0 298.5 106t111.5 293v932h141v-938q0 -94 -22.5 -170t-65 -131.5t-83.5 -91.5t-99 -74q-57 -38 -83 -57t-63.5 -52t-53 -64t-15.5 -65q0 -26 13 -46t31.5 -30t37.5 -16.5t32 -8.5l13 -1l-33 -115 q-5 0 -13 1t-31.5 6t-44.5 12.5t-47 22t-44.5 33.5t-31.5 48.5t-13 65.5q0 110 110 208q-33 -2 -49 -2q-155 0 -278 61.5t-196 182.5t-73 283z" />
<glyph unicode="&#x173;" horiz-adv-x="1204" d="M154 375v655h141v-618q0 -55 4 -95t17.5 -82t37 -68.5t65 -43.5t99.5 -17q114 0 202.5 61.5t133.5 159t45 210.5v493h139v-1030q-149 -116 -149 -203q0 -26 13 -46t31.5 -30t37.5 -16.5t32 -8.5l13 -1l-31 -115q-5 0 -13 1t-31.5 6t-44.5 12.5t-47 22t-44.5 33.5 t-31.5 48.5t-13 65.5q0 123 147 231h-6v162q0 20 2 40.5t4 31.5l2 10h-4q-13 -32 -35.5 -66.5t-59 -71.5t-81 -65.5t-104.5 -47t-125 -18.5q-181 0 -263.5 98t-82.5 302z" />
<glyph unicode="&#x174;" horiz-adv-x="1898" d="M72 1440h149l279 -1118l32 -154h5q13 78 36 154l308 1118h135l307 -1118l35 -154h4q13 80 31 154l293 1118h147l-385 -1440h-168l-279 1014q-12 41 -25 94.5t-20 87.5l-6 33h-6q-24 -123 -51 -215l-279 -1014h-170zM717 1540l170 244h153l172 -244h-135l-110 164h-4 l-111 -164h-135z" />
<glyph unicode="&#x175;" horiz-adv-x="1689" d="M59 1030h150l248 -766l30 -110h5q16 59 32 110l252 762h139l252 -762l33 -110h4q13 57 31 110l248 766h147l-346 -1030h-154l-251 733l-31 113h-4q-17 -62 -33 -113l-250 -733h-153zM596 1198l170 244h154l172 -244h-136l-110 164h-4l-111 -164h-135z" />
<glyph unicode="&#x176;" horiz-adv-x="1185" d="M35 1440h162l305 -522q19 -34 41 -77t35 -69l12 -27h4q45 97 88 173l305 522h162l-485 -822v-618h-142v618zM344 1540l170 244h154l172 -244h-135l-111 164h-4l-111 -164h-135z" />
<glyph unicode="&#x177;" horiz-adv-x="1077" d="M39 -369l53 111q6 -5 17.5 -13t44 -21t61.5 -13q64 0 114 46t83 122l61 147l-428 1020h154l301 -751l39 -109h4q15 58 35 109l296 751h150l-508 -1245q-41 -100 -117.5 -157.5t-177.5 -57.5q-47 0 -92.5 15t-67.5 31zM293 1196l170 244h153l172 -244h-135l-110 164h-4 l-111 -164h-135z" />
<glyph unicode="&#x178;" horiz-adv-x="1185" d="M35 1440h162l305 -522q19 -34 41 -77t35 -69l12 -27h4q45 97 88 173l305 522h162l-485 -822v-618h-142v618zM365 1608v176h124v-176h-124zM674 1608v176h127v-176h-127z" />
<glyph unicode="&#x179;" horiz-adv-x="1185" d="M72 0v100l745 1082q23 35 48 67.5t39 48.5l14 15v4q-35 -4 -107 -4h-698v127h981v-101l-746 -1081q-23 -35 -48 -67.5t-38 -48.5l-14 -15v-4q34 4 106 4h746v-127h-1028zM549 1540l141 244h162l-178 -244h-125z" />
<glyph unicode="&#x17a;" horiz-adv-x="1019" d="M76 0v90l575 723q17 22 37.5 45.5t32.5 35.5l12 13v4q-34 -4 -102 -4h-531v123h822v-92l-576 -721q-17 -23 -38 -46.5t-34 -35.5l-12 -12v-4q35 4 103 4h577v-123h-866zM438 1198l142 244h161l-178 -244h-125z" />
<glyph unicode="&#x17b;" horiz-adv-x="1185" d="M72 0v100l745 1082q23 35 48 67.5t39 48.5l14 15v4q-35 -4 -107 -4h-698v127h981v-101l-746 -1081q-23 -35 -48 -67.5t-38 -48.5l-14 -15v-4q34 4 106 4h746v-127h-1028zM549 1610v174h133v-174h-133z" />
<glyph unicode="&#x17c;" horiz-adv-x="1019" d="M76 0v90l575 723q17 22 37.5 45.5t32.5 35.5l12 13v4q-34 -4 -102 -4h-531v123h822v-92l-576 -721q-17 -23 -38 -46.5t-34 -35.5l-12 -12v-4q35 4 103 4h577v-123h-866zM442 1268v174h133v-174h-133z" />
<glyph unicode="&#x17d;" horiz-adv-x="1185" d="M72 0v100l745 1082q23 35 48 67.5t39 48.5l14 15v4q-35 -4 -107 -4h-698v127h981v-101l-746 -1081q-23 -35 -48 -67.5t-38 -48.5l-14 -15v-4q34 4 106 4h746v-127h-1028zM367 1784h135l110 -164h4l111 164h135l-172 -244h-153z" />
<glyph unicode="&#x17e;" horiz-adv-x="1019" d="M76 0v90l575 723q17 22 37.5 45.5t32.5 35.5l12 13v4q-34 -4 -102 -4h-531v123h822v-92l-576 -721q-17 -23 -38 -46.5t-34 -35.5l-12 -12v-4q35 4 103 4h577v-123h-866zM260 1442h135l111 -164h4l111 164h135l-172 -244h-154z" />
<glyph unicode="&#x17f;" horiz-adv-x="552" d="M76 905v117h129v47q0 70 14 127.5t36.5 96t54 68t63 46t68 27t64.5 13.5t56 3q17 0 33 -1.5t24 -2.5l7 -2v-123q-19 4 -50 4q-29 0 -55 -4.5t-59.5 -20.5t-57.5 -42.5t-40.5 -76t-16.5 -114.5v-1067h-141v905h-129z" />
<glyph unicode="&#x192;" horiz-adv-x="1163" d="M70 -82q68 -10 131 -10q29 0 55.5 4.5t61.5 21t61 43.5t47 77t27 116l49 578h-183v116h193l20 219q6 70 25 127.5t44.5 96t60 68t68 46t71 27t66 13.5t57.5 3q36 0 78 -3.5t66 -6.5l24 -4v-123q-92 14 -166 14q-28 0 -55 -5t-61.5 -21.5t-60.5 -43.5t-47 -77t-28 -117 l-21 -213h256v-116h-266l-51 -584q-9 -97 -42 -169.5t-74 -112t-94.5 -63t-94 -30t-82.5 -6.5q-33 0 -66.5 3t-50.5 6l-18 3v123z" />
<glyph unicode="&#x218;" horiz-adv-x="1093" d="M96 160l84 108q71 -69 170.5 -113t202.5 -44q129 0 210 67t81 178q0 73 -39.5 130t-103 94.5t-139.5 71t-152.5 70.5t-140 81.5t-103 115t-39.5 160.5q0 115 60.5 203.5t163 135t229.5 46.5q105 0 207.5 -36t173.5 -103l-70 -119q-59 56 -145.5 89.5t-172.5 33.5 q-128 0 -214.5 -65.5t-86.5 -176.5q0 -70 39.5 -123.5t103 -89t139.5 -68t152.5 -69t140 -82t103 -118t39.5 -166.5q0 -171 -118.5 -283.5t-321.5 -112.5q-126 0 -245.5 48.5t-207.5 136.5zM459 -414q39 95 39 166q0 54 -23 119h133q13 -60 13 -100q0 -80 -48 -185h-114z " />
<glyph unicode="&#x219;" horiz-adv-x="897" d="M76 125l74 98q58 -59 141.5 -92t169.5 -33q90 0 148.5 43.5t58.5 122.5q0 46 -30.5 81.5t-78.5 59.5t-106.5 46.5t-117.5 49t-107 59.5t-78.5 86t-30.5 122q0 135 100.5 211t249.5 76q198 0 317 -113l-65 -104q-43 43 -115 68.5t-143 25.5q-89 0 -148 -40t-59 -120 q0 -48 30.5 -84t79 -60.5t107 -46.5t117.5 -48t107.5 -59t79 -86t30.5 -122q0 -127 -98 -209t-250 -82q-108 0 -210 38t-173 112zM367 -414q39 95 39 166q0 54 -23 119h133q12 -55 12 -100q0 -82 -47 -185h-114z" />
<glyph unicode="&#x21a;" horiz-adv-x="1243" d="M35 1313v127h1175v-127h-518v-1313h-141v1313h-516zM535 -414q38 93 38 166q0 57 -22 119h133q12 -55 12 -100q0 -82 -47 -185h-114z" />
<glyph unicode="&#x21b;" horiz-adv-x="665" d="M68 905v117h137v293h137v-293h260v-117h-260v-516q0 -68 17 -120t41.5 -80t58.5 -45t61 -22t55 -5q30 0 48 4v-125q-24 -4 -60 -4q-43 0 -83.5 6.5t-93.5 30t-91 62.5t-65 112.5t-27 171.5v530h-135zM330 -414q39 95 39 166q0 54 -23 119h133q13 -60 13 -100 q0 -80 -48 -185h-114z" />
<glyph unicode="&#x2c6;" horiz-adv-x="1032" d="M268 1540l170 244h154l172 -244h-135l-111 164h-4l-111 -164h-135z" />
<glyph unicode="&#x2c7;" horiz-adv-x="1032" d="M268 1784h135l111 -164h4l111 164h135l-172 -244h-154z" />
<glyph unicode="&#x2d8;" horiz-adv-x="1034" d="M281 1753v31h112v-29q0 -63 35 -94t90 -31q51 0 87 32t36 95v27h113v-31q0 -103 -69.5 -161t-166.5 -58q-99 0 -168 58t-69 161z" />
<glyph unicode="&#x2d9;" horiz-adv-x="1034" d="M451 1610v174h133v-174h-133z" />
<glyph unicode="&#x2da;" horiz-adv-x="1034" d="M362 1663q0 63 45 104t111 41q63 0 108.5 -41t45.5 -104t-45.5 -103t-108.5 -40q-66 0 -111 40t-45 103zM451 1663q0 -30 18.5 -49t48.5 -19q29 0 47.5 19.5t18.5 48.5q0 31 -18.5 50.5t-47.5 19.5q-30 0 -48.5 -19.5t-18.5 -50.5z" />
<glyph unicode="&#x2db;" horiz-adv-x="1032" d="M367 -231q0 46 20.5 91.5t50 77t59 57t49.5 37.5l21 13l101 -27q-7 -5 -18.5 -13.5t-41 -34t-52.5 -51t-41.5 -59.5t-18.5 -63q0 -41 32 -66.5t64 -30.5l31 -5l-31 -115q-5 0 -13 1t-31.5 6t-44.5 12.5t-47 22t-44.5 33.5t-31.5 48.5t-13 65.5z" />
<glyph unicode="&#x2dc;" horiz-adv-x="1032" d="M197 1546q0 238 188 238q46 0 85 -23t61 -50t52 -50t60 -23q24 0 41 14t25.5 37t12 45t3.5 44h111q0 -238 -189 -238q-46 0 -85 23t-61 50t-52 50t-60 23q-24 0 -41 -14t-25 -37t-11 -44.5t-3 -44.5h-112z" />
<glyph unicode="&#x2dd;" horiz-adv-x="1032" d="M229 1540l133 244h140l-140 -244h-133zM504 1540l143 244h158l-178 -244h-123z" />
<glyph unicode="&#x3bc;" horiz-adv-x="1206" d="M182 -410v1440h140v-618q0 -54 4 -94.5t18 -82.5t37.5 -68.5t65 -43.5t98.5 -17q87 0 159.5 36t120.5 96t74.5 137.5t26.5 161.5v493h139v-1030h-135v158l4 78h-4q-2 -5 -6.5 -14.5t-21 -36.5t-36.5 -52t-54.5 -55t-73.5 -51.5t-95.5 -36.5t-118.5 -15q-66 0 -127 20.5 t-96 65.5h-4q14 -104 14 -155v-316h-129z" />
<glyph unicode="&#x400;" horiz-adv-x="1146" d="M207 0v1440h809v-127h-668v-525h547v-126h-547v-535h707v-127h-848zM426 1784h162l141 -244h-127z" />
<glyph unicode="&#x401;" horiz-adv-x="1146" d="M207 0v1440h809v-127h-668v-525h547v-126h-547v-535h707v-127h-848zM408 1608v176h124v-176h-124zM717 1608v176h127v-176h-127z" />
<glyph unicode="&#x402;" horiz-adv-x="1488" d="M33 1313v127h1040v-127h-489v-471l-2 -62h4q186 90 375 90q215 0 332.5 -119t117.5 -313q0 -93 -24 -170t-65.5 -131t-98.5 -91t-123 -54t-139 -17q-19 0 -97 5v122q36 -4 82 -4q61 0 115.5 17t103 53.5t77 104t28.5 159.5q0 140 -82 223.5t-246 83.5q-89 0 -178.5 -23.5 t-134.5 -47.5l-45 -23v-645h-142v1313h-409z" />
<glyph unicode="&#x403;" horiz-adv-x="993" d="M207 0v1440h756v-127h-615v-1313h-141zM494 1540l141 244h162l-179 -244h-124z" />
<glyph unicode="&#x404;" horiz-adv-x="1468" d="M113 729q0 206 92.5 374t258.5 264.5t372 96.5q96 0 185 -19t147.5 -46.5t103 -55t64.5 -46.5l20 -19l-76 -104q-7 6 -20 17t-57 38.5t-91.5 48.5t-121.5 38t-150 17q-236 0 -398.5 -156.5t-177.5 -394.5h811v-123h-811q21 -239 182 -396t400 -157q81 0 159.5 19.5 t132 48t95.5 56.5t62 48l20 19l78 -100q-8 -9 -23 -24t-68 -53.5t-112 -67.5t-153.5 -53t-194.5 -24q-209 0 -376.5 100.5t-260 273t-92.5 380.5z" />
<glyph unicode="&#x405;" horiz-adv-x="1093" d="M96 160l84 108q71 -69 170.5 -113t202.5 -44q129 0 210 67t81 178q0 73 -39.5 130t-103 94.5t-139.5 71t-152.5 70.5t-140 81.5t-103 115t-39.5 160.5q0 115 60.5 203.5t163 135t229.5 46.5q105 0 207.5 -36t173.5 -103l-70 -119q-59 56 -145.5 89.5t-172.5 33.5 q-128 0 -214.5 -65.5t-86.5 -176.5q0 -70 39.5 -123.5t103 -89t139.5 -68t152.5 -69t140 -82t103 -118t39.5 -166.5q0 -171 -118.5 -283.5t-321.5 -112.5q-126 0 -245.5 48.5t-207.5 136.5z" />
<glyph unicode="&#x406;" horiz-adv-x="555" d="M207 0v1440h141v-1440h-141z" />
<glyph unicode="&#x407;" horiz-adv-x="555" d="M63 1608v176h125v-176h-125zM207 0v1440h141v-1440h-141zM373 1608v176h127v-176h-127z" />
<glyph unicode="&#x408;" horiz-adv-x="1064" d="M66 403v58h141v-53q0 -128 65.5 -213.5t194.5 -85.5q112 0 188 71t76 223v910h-352v127h493v-1037q0 -112 -34.5 -197.5t-93 -134t-128 -72.5t-147.5 -24q-62 0 -118.5 14.5t-109 47.5t-91 81.5t-61.5 121.5t-23 163z" />
<glyph unicode="&#x409;" horiz-adv-x="1918" d="M43 -14v133q67 8 119.5 44t89.5 100t63 148t40.5 198t21 239t6.5 282v310h733v-615h291q199 0 321.5 -110.5t122.5 -302.5q0 -187 -123.5 -299.5t-310.5 -112.5h-442v1313h-451v-183q0 -130 -4 -235.5t-13 -213.5t-26 -192t-42 -163t-62 -136.5t-84.5 -102.5t-110 -70 t-139.5 -31zM1116 127h283q136 0 220.5 75t84.5 210q0 133 -85.5 209.5t-221.5 76.5h-281v-571z" />
<glyph unicode="&#x40a;" horiz-adv-x="2043" d="M207 0v1440h141v-619h744v619h141v-617h309q191 0 311.5 -110.5t120.5 -300.5q0 -187 -123.5 -299.5t-308.5 -112.5h-450v694h-744v-694h-141zM1233 127h289q136 0 220.5 75t84.5 210q0 132 -85 208t-222 76h-287v-569z" />
<glyph unicode="&#x40b;" horiz-adv-x="1480" d="M33 1313v127h1038v-127h-487v-477l-4 -68h4q71 38 177 70t218 32q200 0 297.5 -106.5t97.5 -304.5v-459h-143v436q0 152 -65.5 227.5t-211.5 75.5q-109 0 -211 -34.5t-159 -75.5v-629h-142v1313h-409z" />
<glyph unicode="&#x40c;" horiz-adv-x="1212" d="M207 0v1440h141v-625h242l389 625h162l-432 -680v-4l460 -756h-165l-414 688h-242v-688h-141zM559 1540l141 244h162l-178 -244h-125z" />
<glyph unicode="&#x40d;" horiz-adv-x="1538" d="M207 0v1440h141v-1037q0 -34 -3 -82.5t-6 -80.5l-3 -31h4q76 127 125 199l729 1032h137v-1440h-141v1036q0 34 3 82.5t6 80.5l3 32h-4q-72 -123 -121 -195l-733 -1036h-137zM545 1784h162l141 -244h-127z" />
<glyph unicode="&#x40e;" horiz-adv-x="1202" d="M14 1440h158l395 -803q19 -39 39.5 -86t31.5 -75l11 -27h4q33 100 64 186l299 805h151l-471 -1213q-99 -252 -288 -252q-112 0 -238 88l68 109q98 -70 168 -70q65 0 103.5 47t76.5 148zM328 1749v35h121v-31q0 -66 43.5 -103.5t105.5 -37.5q61 0 106.5 38t45.5 105v29 h118v-35q0 -111 -80 -176.5t-190 -65.5t-190 65.5t-80 176.5z" />
<glyph unicode="&#x40f;" horiz-adv-x="1480" d="M207 0v1440h141v-1313h785v1313h143v-1440h-469v-287h-133v287h-467z" />
<glyph unicode="&#x410;" horiz-adv-x="1294" d="M43 0l528 1440h152l528 -1440h-149l-166 459h-580l-163 -459h-150zM399 582h494l-188 522q-11 30 -25 77t-22 79l-9 32h-4q-30 -120 -55 -188z" />
<glyph unicode="&#x411;" horiz-adv-x="1216" d="M207 0v1440h815v-127h-674v-471h344q189 0 307.5 -110t118.5 -314q0 -189 -115.5 -303.5t-297.5 -114.5h-498zM348 127h336q134 0 211.5 77.5t77.5 213.5t-80.5 216.5t-210.5 80.5h-334v-588z" />
<glyph unicode="&#x412;" horiz-adv-x="1261" d="M207 0v1440h491q172 0 280.5 -98.5t108.5 -264.5q0 -110 -48.5 -190.5t-133.5 -122.5v-4q110 -31 176 -129t66 -228q0 -187 -122.5 -295t-309.5 -108h-508zM348 127h369q130 0 206 76t76 205q0 128 -78.5 206t-205.5 78h-367v-565zM348 815h350q109 0 176.5 70t67.5 182 q0 111 -67 178.5t-181 67.5h-346v-498z" />
<glyph unicode="&#x413;" horiz-adv-x="993" d="M207 0v1440h756v-127h-615v-1313h-141z" />
<glyph unicode="&#x414;" horiz-adv-x="1433" d="M10 127h146q77 104 128 232.5t73.5 272.5t30 261t7.5 266v281h791v-1313h162v-414h-134v287h-1069v-287h-135v414zM307 127h737v1186h-512v-158q0 -146 -9 -272.5t-32 -266t-69.5 -265.5t-114.5 -224z" />
<glyph unicode="&#x415;" horiz-adv-x="1146" d="M207 0v1440h809v-127h-668v-525h547v-126h-547v-535h707v-127h-848z" />
<glyph unicode="&#x416;" horiz-adv-x="1748" d="M45 0l430 756v4l-401 680h159l363 -625h207v625h141v-625h209l363 625h157l-401 -680v-4l432 -756h-162l-389 688h-209v-688h-141v688h-207l-389 -688h-162z" />
<glyph unicode="&#x417;" horiz-adv-x="1101" d="M66 162l84 102q61 -69 155.5 -113.5t194.5 -44.5q150 0 246 82.5t96 219.5q0 128 -86.5 202t-218.5 74h-183v123h146q123 0 209 74.5t86 191.5q0 113 -72 187.5t-217 74.5q-183 0 -332 -123l-65 111q172 141 411 141q194 0 307 -103t113 -274q0 -121 -62 -201.5 t-153 -123.5v-4q120 -33 192 -126t72 -229q0 -193 -137.5 -310.5t-345.5 -117.5q-124 0 -244.5 50t-195.5 137z" />
<glyph unicode="&#x418;" horiz-adv-x="1538" d="M207 0v1440h141v-1037q0 -34 -3 -82.5t-6 -80.5l-3 -31h4q76 127 125 199l729 1032h137v-1440h-141v1036q0 34 3 82.5t6 80.5l3 32h-4q-72 -123 -121 -195l-733 -1036h-137z" />
<glyph unicode="&#x419;" horiz-adv-x="1538" d="M207 0v1440h141v-1037q0 -34 -3 -82.5t-6 -80.5l-3 -31h4q76 127 125 199l729 1032h137v-1440h-141v1036q0 34 3 82.5t6 80.5l3 32h-4q-72 -123 -121 -195l-733 -1036h-137zM504 1749v35h121v-31q0 -66 43.5 -103.5t105.5 -37.5q61 0 106.5 38t45.5 105v29h118v-35 q0 -111 -80 -176.5t-190 -65.5t-190 65.5t-80 176.5z" />
<glyph unicode="&#x41a;" horiz-adv-x="1212" d="M207 0v1440h141v-625h242l389 625h162l-432 -680v-4l460 -756h-165l-414 688h-242v-688h-141z" />
<glyph unicode="&#x41b;" horiz-adv-x="1359" d="M23 -16v133q99 14 167 89t105.5 213.5t53.5 313.5t16 416v291h790v-1440h-143v1313h-510v-166q0 -153 -6 -278t-20.5 -245t-38.5 -212t-61 -171.5t-86.5 -132.5t-116.5 -85t-150 -39z" />
<glyph unicode="&#x41c;" horiz-adv-x="1724" d="M152 0l114 1440h146l379 -846q15 -33 32 -77t27 -71l10 -28h4q37 102 70 176l379 846h145l115 -1440h-141l-80 1008q-3 35 -4 85t0 83v32h-5q-42 -126 -75 -200l-340 -740h-131l-338 740q-15 32 -34.5 83t-31.5 86l-12 35h-4q2 -126 -4 -204l-80 -1008h-141z" />
<glyph unicode="&#x41d;" horiz-adv-x="1529" d="M207 0v1440h141v-656h834v656h143v-1440h-143v657h-834v-657h-141z" />
<glyph unicode="&#x41e;" horiz-adv-x="1689" d="M111 731q0 152 57.5 288t155.5 233.5t233.5 154.5t286.5 57t287 -57t233.5 -154.5t155 -233.5t57.5 -288q0 -156 -57.5 -296.5t-155 -241t-233.5 -159.5t-287 -59q-201 0 -369.5 100t-266 273.5t-97.5 382.5zM258 731q0 -173 78.5 -316t213 -224.5t294.5 -81.5 q161 0 295.5 81.5t212.5 224.5t78 316q0 167 -78 305t-212.5 216.5t-295.5 78.5q-160 0 -294.5 -78.5t-213 -216.5t-78.5 -305z" />
<glyph unicode="&#x41f;" horiz-adv-x="1511" d="M207 0v1440h1098v-1440h-142v1313h-815v-1313h-141z" />
<glyph unicode="&#x420;" horiz-adv-x="1220" d="M207 0v1440h498q195 0 319.5 -118.5t124.5 -315.5q0 -199 -125 -320t-319 -121h-357v-565h-141zM348 692h338q146 0 232 83.5t86 230.5q0 144 -86 225.5t-230 81.5h-340v-621z" />
<glyph unicode="&#x421;" horiz-adv-x="1470" d="M113 729q0 207 92 375t258 264t373 96q146 0 284 -46t236 -140l-76 -104q-84 73 -203 115t-237 42q-171 0 -304.5 -79.5t-204.5 -215.5t-71 -305q0 -171 71 -312t206.5 -225.5t308.5 -84.5q128 0 250.5 50t214.5 140l82 -100q-228 -224 -551 -224q-214 0 -381.5 101 t-257.5 272t-90 381z" />
<glyph unicode="&#x422;" horiz-adv-x="1245" d="M35 1313v127h1175v-127h-518v-1313h-141v1313h-516z" />
<glyph unicode="&#x423;" horiz-adv-x="1202" d="M14 1440h158l395 -803q19 -39 39.5 -86t31.5 -75l11 -27h4q33 100 64 186l299 805h151l-471 -1213q-99 -252 -288 -252q-112 0 -238 88l68 109q98 -70 168 -70q65 0 103.5 47t76.5 148z" />
<glyph unicode="&#x424;" horiz-adv-x="1679" d="M90 764q0 182 85.5 318.5t238.5 209t354 72.5v172h143v-172q304 0 491 -163t187 -437q0 -276 -186.5 -439t-491.5 -163v-187h-143v187q-305 0 -491.5 163t-186.5 439zM238 764q0 -226 143 -353.5t387 -127.5v958q-244 0 -387 -126t-143 -351zM911 283q246 0 389.5 127.5 t143.5 353.5q0 225 -143.5 351t-389.5 126v-958z" />
<glyph unicode="&#x425;" horiz-adv-x="1179" d="M39 0l459 752l-420 688h166l252 -426l92 -162h4q45 88 90 162l254 426h166l-422 -688l461 -752h-162l-301 498l-90 157h-4q-43 -83 -88 -159l-295 -496h-162z" />
<glyph unicode="&#x426;" horiz-adv-x="1523" d="M207 0v1440h141v-1313h785v1313h143v-1313h162v-414h-131v287h-1100z" />
<glyph unicode="&#x427;" horiz-adv-x="1265" d="M115 975v465h143v-436q0 -153 72.5 -229.5t232.5 -76.5q99 0 195 34.5t160 76.5v631h143v-1440h-143v606l4 68h-4q-74 -41 -174.5 -74t-200.5 -33q-217 0 -322.5 105t-105.5 303z" />
<glyph unicode="&#x428;" horiz-adv-x="2033" d="M207 0v1440h141v-1313h598v1313h141v-1313h599v1313h143v-1440h-1622z" />
<glyph unicode="&#x429;" horiz-adv-x="2086" d="M207 0v1440h141v-1313h598v1313h141v-1313h599v1313h143v-1313h176v-414h-133v287h-1665z" />
<glyph unicode="&#x42a;" horiz-adv-x="1370" d="M20 1313v127h521v-582h327q189 0 308.5 -112.5t119.5 -319.5q0 -193 -116.5 -309.5t-298.5 -116.5h-482v1313h-379zM541 127h319q134 0 211.5 79.5t77.5 219.5q0 141 -80 223t-211 82h-317v-604z" />
<glyph unicode="&#x42b;" horiz-adv-x="1665" d="M207 0v1440h141v-582h324q189 0 307.5 -112.5t118.5 -319.5q0 -193 -116 -309.5t-298 -116.5h-477zM348 127h316q134 0 211 79.5t77 219.5q0 141 -79.5 223t-210.5 82h-314v-604zM1317 0v1440h141v-1440h-141z" />
<glyph unicode="&#x42c;" horiz-adv-x="1177" d="M207 0v1440h141v-582h328q189 0 308.5 -112.5t119.5 -319.5q0 -192 -117 -309t-299 -117h-481zM348 127h320q134 0 211 79.5t77 219.5q0 141 -79.5 223t-210.5 82h-318v-604z" />
<glyph unicode="&#x42d;" horiz-adv-x="1468" d="M78 195l78 100q78 -83 207 -136t264 -53q234 0 395 158t182 395h-811v123h813q-15 239 -177 395t-400 156q-119 0 -234.5 -42.5t-208.5 -121.5l-75 107q94 91 234 139.5t286 48.5q208 0 374.5 -96.5t258.5 -264.5t92 -374q0 -208 -93.5 -380.5t-261 -273t-374.5 -100.5 q-155 0 -301 58t-248 162z" />
<glyph unicode="&#x42e;" horiz-adv-x="2150" d="M207 0v1440h141v-656h264q12 190 109.5 346t256 245t345.5 89q147 0 279 -57t227.5 -154.5t152 -233.5t56.5 -288q0 -208 -95.5 -382t-259.5 -274t-360 -100q-184 0 -340.5 89t-254 245t-112.5 348h-268v-657h-141zM758 731q0 -172 75.5 -315t205.5 -225t284 -82 t284.5 82t206.5 225t76 315q0 166 -76 303.5t-206 216t-285 78.5t-284.5 -78.5t-205 -216t-75.5 -303.5z" />
<glyph unicode="&#x42f;" horiz-adv-x="1251" d="M57 0l342 565l39 60v4q-145 42 -218 148t-73 259q0 128 58 222.5t155 140.5q90 41 265 41h422v-1440h-144v606h-319l-363 -606h-164zM295 1034q0 -137 76.5 -220t206.5 -83h325v582h-270q-135 0 -195 -31q-67 -32 -105 -98t-38 -150z" />
<glyph unicode="&#x430;" horiz-adv-x="1058" d="M76 276q0 359 626 359h62v29q0 266 -254 266q-157 0 -293 -99l-63 107q62 53 161.5 85t202.5 32q187 0 286 -101.5t99 -294.5v-659h-133v121q0 23 1.5 44.5t2.5 31.5l2 10h-4q-42 -99 -135.5 -165.5t-212.5 -66.5q-66 0 -127.5 19.5t-111.5 56t-79.5 95t-29.5 130.5z M217 289q0 -79 61.5 -138t170.5 -59q58 0 109 22.5t88 61t64 88t40.5 104.5t13.5 109v47h-59q-45 0 -78 -1t-87.5 -6t-94.5 -13.5t-85.5 -26t-74.5 -41.5t-48.5 -62t-19.5 -85z" />
<glyph unicode="&#x431;" horiz-adv-x="1179" d="M121 584q0 138 18.5 240t65 195t130.5 164.5t210 129.5l381 178l51 -117l-397 -182q-169 -81 -244 -193.5t-86 -281.5h4q120 217 385 217q193 0 314.5 -127.5t121.5 -347.5q0 -214 -131 -349t-338 -135q-124 0 -218 46t-151.5 128.5t-86.5 192t-29 242.5zM272 461 q0 -166 95 -264.5t235 -98.5q141 0 235.5 97.5t94.5 261.5q0 165 -93 262.5t-229 97.5q-149 0 -243.5 -101.5t-94.5 -254.5z" />
<glyph unicode="&#x432;" horiz-adv-x="1030" d="M166 0v1030h373q159 0 249.5 -68t90.5 -194q0 -80 -40.5 -139.5t-115.5 -87.5v-4q98 -20 153.5 -87.5t55.5 -160.5q0 -134 -100 -211.5t-273 -77.5h-393zM305 109h236q124 0 185.5 48t61.5 134q0 90 -64.5 138t-184.5 48h-234v-368zM305 584h219q103 0 157 46t54 130 q0 164 -219 164h-211v-340z" />
<glyph unicode="&#x433;" horiz-adv-x="827" d="M166 0v1030h614v-121h-475v-909h-139z" />
<glyph unicode="&#x434;" horiz-adv-x="1171" d="M23 119h127q180 235 180 743v168h637v-911h145v-365h-133v246h-823v-246h-133v365zM299 119h528v792h-360v-61q0 -479 -168 -731z" />
<glyph unicode="&#x435;" horiz-adv-x="1132" d="M96 514q0 124 40.5 227t110 171t162 105.5t197.5 37.5q137 0 236.5 -66t146.5 -172t47 -237q0 -24 -4 -70h-790q3 -127 58.5 -221t144 -140.5t196.5 -46.5q84 0 166.5 33t146.5 90l64 -106q-72 -66 -175.5 -105t-205.5 -39q-152 0 -275.5 68t-194.5 191.5t-71 279.5z M248 621h647q-6 154 -88.5 236.5t-204.5 82.5q-134 0 -232 -84t-122 -235z" />
<glyph unicode="&#x436;" horiz-adv-x="1476" d="M41 0l348 526v4l-315 500h151l279 -442h166v442h135v-442h166l278 442h154l-316 -500v-4l349 -526h-164l-301 465h-166v-465h-135v465h-164l-303 -465h-162z" />
<glyph unicode="&#x437;" horiz-adv-x="899" d="M61 125l74 96q121 -127 277 -127q102 0 174.5 52t72.5 149q0 88 -63.5 135t-185.5 47h-125v111h108q108 0 169 43.5t61 130.5q0 85 -57.5 129.5t-155.5 44.5q-135 0 -252 -92l-62 98q138 113 334 113q149 0 242.5 -72t93.5 -205q0 -172 -158 -235v-4q89 -23 142 -86 t53 -162q0 -100 -55 -173.5t-140.5 -108t-187.5 -34.5q-205 0 -359 150z" />
<glyph unicode="&#x438;" horiz-adv-x="1210" d="M166 0v1030h135v-676q0 -141 -6 -153h4q7 14 107 153l505 676h133v-1030h-137v678q0 26 1.5 61t3 60.5t1.5 27.5h-4q-1 -4 -17.5 -28t-44 -61.5t-42.5 -59.5l-506 -678h-133z" />
<glyph unicode="&#x439;" horiz-adv-x="1210" d="M166 0v1030h135v-676q0 -141 -6 -153h4q7 14 107 153l505 676h133v-1030h-137v678q0 26 1.5 61t3 60.5t1.5 27.5h-4q-1 -4 -17.5 -28t-44 -61.5t-42.5 -59.5l-506 -678h-133zM334 1407v35h121v-31q0 -66 43.5 -103.5t105.5 -37.5q61 0 106.5 38t45.5 105v29h118v-35 q0 -111 -80 -176.5t-190 -65.5t-190 65.5t-80 176.5z" />
<glyph unicode="&#x43a;" horiz-adv-x="1013" d="M166 0v1030h139v-436h164l309 436h164l-358 -489v-4l399 -537h-170l-342 471h-166v-471h-139z" />
<glyph unicode="&#x43b;" horiz-adv-x="1085" d="M41 -8v125q128 20 187 167t59 435v311h631v-1030h-140v909h-356v-190q0 -365 -91.5 -538.5t-289.5 -188.5z" />
<glyph unicode="&#x43c;" horiz-adv-x="1468" d="M127 0l84 1030h147l310 -635l63 -145h4q33 79 64 145l311 635h145l86 -1030h-137l-51 666v178h-4q-23 -66 -66 -150l-286 -575h-127l-285 571q-17 36 -34 74.5t-25 59.5l-9 20h-4q4 -123 0 -178l-51 -666h-135z" />
<glyph unicode="&#x43d;" horiz-adv-x="1212" d="M166 0v1030h139v-440h602v440h140v-1030h-140v467h-602v-467h-139z" />
<glyph unicode="&#x43e;" horiz-adv-x="1277" d="M96 520q0 150 72.5 273t197 192.5t273.5 69.5t274 -69.5t198 -192.5t73 -273q0 -114 -43 -216t-116.5 -173.5t-174 -113.5t-211.5 -42t-211.5 42t-173 113.5t-115.5 173.5t-43 216zM240 520q0 -180 115.5 -299t283.5 -119t284.5 119.5t116.5 298.5q0 174 -117 292 t-284 118t-283 -118t-116 -292z" />
<glyph unicode="&#x43f;" horiz-adv-x="1193" d="M166 0v1030h862v-1030h-139v907h-584v-907h-139z" />
<glyph unicode="&#x440;" horiz-adv-x="1206" d="M166 -410v1440h133v-108l-6 -80h4q47 100 142.5 156.5t215.5 56.5q207 0 328 -149t121 -390q0 -244 -129 -392.5t-332 -148.5q-109 0 -199 54t-141 151h-4q6 -37 6 -90v-500h-139zM301 512q0 -106 37 -198.5t113.5 -153t177.5 -60.5q142 0 238 112t96 302q0 188 -91 301 t-237 113q-67 0 -125.5 -24.5t-106 -73t-75 -130.5t-27.5 -188z" />
<glyph unicode="&#x441;" horiz-adv-x="1110" d="M96 514q0 155 72 279.5t195.5 193t273.5 68.5q106 0 208.5 -38t168.5 -110l-72 -104q-55 57 -136 92t-165 35q-171 0 -286 -117t-115 -299q0 -180 116 -296t289 -116q91 0 180 38t150 104l63 -105q-68 -75 -175.5 -119.5t-225.5 -44.5q-152 0 -275 67.5t-194.5 191.5 t-71.5 280z" />
<glyph unicode="&#x442;" horiz-adv-x="985" d="M47 907v123h891v-123h-377v-907h-139v907h-375z" />
<glyph unicode="&#x443;" horiz-adv-x="1077" d="M39 -369l53 111q6 -5 17.5 -13t44 -21t61.5 -13q64 0 114 46t83 122l61 147l-428 1020h154l301 -751l39 -109h4q15 58 35 109l296 751h150l-508 -1245q-41 -100 -117.5 -157.5t-177.5 -57.5q-47 0 -92.5 15t-67.5 31z" />
<glyph unicode="&#x444;" horiz-adv-x="1441" d="M98 520q0 232 155 377t400 156v381h135v-381q245 -11 400 -156t155 -377q0 -236 -155 -384t-400 -159v-387h-135v387q-245 11 -400 159t-155 384zM240 520q0 -185 113.5 -298t299.5 -124v832q-186 -9 -299.5 -118.5t-113.5 -291.5zM788 98q186 11 300 124t114 298 q0 182 -114 291.5t-300 118.5v-832z" />
<glyph unicode="&#x445;" horiz-adv-x="980" d="M41 0l360 537l-331 493h163l222 -346l34 -59h5q18 32 34 59l222 346h161l-331 -493l362 -537h-164l-250 387l-34 57h-5q-16 -28 -34 -57l-252 -387h-162z" />
<glyph unicode="&#x446;" horiz-adv-x="1220" d="M166 0v1030h139v-907h569v907h142v-907h143v-369h-131v246h-862z" />
<glyph unicode="&#x447;" horiz-adv-x="1028" d="M96 702v328h137v-313q0 -46 9 -80.5t32.5 -67t72 -50t120.5 -17.5q78 0 146 26t110 58v444h139v-1030h-139v391l4 66h-4q-54 -33 -134 -56.5t-147 -23.5q-175 0 -260.5 85t-85.5 240z" />
<glyph unicode="&#x448;" horiz-adv-x="1619" d="M166 0v1030h135v-907h442v907h136v-907h440v907h135v-1030h-1288z" />
<glyph unicode="&#x449;" horiz-adv-x="1660" d="M166 0v1030h135v-907h442v907h136v-907h440v907h135v-907h145v-369h-131v246h-1302z" />
<glyph unicode="&#x44a;" horiz-adv-x="1099" d="M25 909v121h424v-393h223q73 0 134.5 -16.5t113 -52.5t81 -100.5t29.5 -152.5q0 -145 -91 -230t-271 -85h-359v909h-284zM449 111h204q121 0 178.5 54.5t57.5 151.5q0 98 -57.5 153.5t-174.5 55.5h-208v-415z" />
<glyph unicode="&#x44b;" horiz-adv-x="1366" d="M166 0v1030h139v-393h221q73 0 134.5 -16.5t114 -52.5t82.5 -100.5t30 -152.5q0 -145 -92.5 -230t-272.5 -85h-356zM305 111h205q120 0 176.5 54.5t56.5 151.5q0 98 -57 153.5t-174 55.5h-207v-415zM1061 0v1030h139v-1030h-139z" />
<glyph unicode="&#x44c;" horiz-adv-x="958" d="M166 0v1030h139v-393h223q73 0 134.5 -16.5t114 -52.5t82.5 -100.5t30 -152.5q0 -145 -92.5 -230t-272.5 -85h-358zM305 111h207q120 0 176.5 54.5t56.5 151.5q0 98 -57 153.5t-174 55.5h-209v-415z" />
<glyph unicode="&#x44d;" horiz-adv-x="1107" d="M72 133l61 105q65 -71 155.5 -106.5t180.5 -35.5q158 0 271 101t130 262h-530v110h530q-17 163 -129.5 264t-267.5 101q-179 0 -309 -127l-72 102q64 70 168.5 108t214.5 38q228 0 382.5 -153t154.5 -388q0 -157 -71 -280.5t-194.5 -191t-275.5 -67.5q-113 0 -218 40 t-181 118z" />
<glyph unicode="&#x44e;" horiz-adv-x="1648" d="M166 0v1030h139v-455h205q20 207 167.5 343.5t350.5 136.5q144 0 264.5 -69.5t191 -192.5t70.5 -273q0 -114 -41.5 -216t-112 -173.5t-167 -113.5t-203.5 -42q-202 0 -349 136.5t-169 343.5h-207v-455h-139zM649 520q0 -180 110.5 -299t270.5 -119q159 0 269 119t110 299 q0 174 -110.5 292t-268.5 118q-159 0 -270 -118t-111 -292z" />
<glyph unicode="&#x44f;" horiz-adv-x="1013" d="M61 0l248 354q9 15 20.5 30.5t18.5 23.5l8 8v4q-98 20 -167.5 99t-69.5 198q0 151 99.5 232t264.5 81h363v-1030h-139v395h-213l-271 -395h-162zM262 717q0 -101 67 -157t171 -56h207v420h-197q-248 0 -248 -207z" />
<glyph unicode="&#x450;" horiz-adv-x="1132" d="M96 514q0 124 40.5 227t110 171t162 105.5t197.5 37.5q137 0 236.5 -66t146.5 -172t47 -237q0 -24 -4 -70h-790q3 -127 58.5 -221t144 -140.5t196.5 -46.5q84 0 166.5 33t146.5 90l64 -106q-72 -66 -175.5 -105t-205.5 -39q-152 0 -275.5 68t-194.5 191.5t-71 279.5z M248 621h647q-6 154 -88.5 236.5t-204.5 82.5q-134 0 -232 -84t-122 -235zM391 1442h162l141 -244h-127z" />
<glyph unicode="&#x451;" horiz-adv-x="1132" d="M96 514q0 124 40.5 227t110 171t162 105.5t197.5 37.5q137 0 236.5 -66t146.5 -172t47 -237q0 -24 -4 -70h-790q3 -127 58.5 -221t144 -140.5t196.5 -46.5q84 0 166.5 33t146.5 90l64 -106q-72 -66 -175.5 -105t-205.5 -39q-152 0 -275.5 68t-194.5 191.5t-71 279.5z M248 621h647q-6 154 -88.5 236.5t-204.5 82.5q-134 0 -232 -84t-122 -235zM375 1266v176h125v-176h-125zM684 1266v176h127v-176h-127z" />
<glyph unicode="&#x452;" horiz-adv-x="1216" d="M35 1157v111h131v172h139v-172h457v-111h-457v-383l-4 -86h4q17 41 49.5 82.5t82 82.5t122.5 67t156 26q185 0 265.5 -100.5t80.5 -298.5v-580q0 -72 -13.5 -132t-36 -100t-53.5 -71t-62.5 -48.5t-67.5 -28t-64.5 -14t-56.5 -3.5l-66 4v123q22 -4 51 -4t55.5 4.5t60 22 t57.5 45.5t40.5 80t16.5 122v543q0 54 -4 94.5t-18 82.5t-38 68t-66 43t-100 17q-131 0 -234.5 -82.5t-137.5 -210.5q-19 -58 -19 -137v-385h-139v1157h-131z" />
<glyph unicode="&#x453;" horiz-adv-x="827" d="M166 0v1030h614v-121h-475v-909h-139zM371 1198l141 244h162l-178 -244h-125z" />
<glyph unicode="&#x454;" horiz-adv-x="1110" d="M96 514q0 155 72 279.5t195.5 193t273.5 68.5q71 0 136.5 -15t107.5 -36.5t74 -43t47 -36.5l14 -15l-72 -102l-13.5 13.5t-38.5 30t-63 38t-84 30t-104 13.5q-159 0 -271 -95.5t-132 -256.5h530v-111h-530q12 -166 126.5 -269.5t278.5 -103.5q60 0 116.5 15t94.5 36.5 t67 43t43 36.5l13 15l61 -107q-6 -7 -17 -17.5t-49 -38t-81 -48.5t-112 -38.5t-142 -17.5q-152 0 -275 67.5t-194.5 191.5t-71.5 280z" />
<glyph unicode="&#x455;" horiz-adv-x="897" d="M76 125l74 98q58 -59 141.5 -92t169.5 -33q90 0 148.5 43.5t58.5 122.5q0 46 -30.5 81.5t-78.5 59.5t-106.5 46.5t-117.5 49t-107 59.5t-78.5 86t-30.5 122q0 135 100.5 211t249.5 76q198 0 317 -113l-65 -104q-43 43 -115 68.5t-143 25.5q-89 0 -148 -40t-59 -120 q0 -48 30.5 -84t79 -60.5t107 -46.5t117.5 -48t107.5 -59t79 -86t30.5 -122q0 -127 -98 -209t-250 -82q-108 0 -210 38t-173 112z" />
<glyph unicode="&#x456;" horiz-adv-x="471" d="M160 1266v174h151v-174h-151zM166 0v1030h139v-1030h-139z" />
<glyph unicode="&#x457;" horiz-adv-x="471" d="M20 1266v176h125v-176h-125zM166 0v1030h139v-1030h-139zM330 1266v176h127v-176h-127z" />
<glyph unicode="&#x458;" horiz-adv-x="471" d="M-113 -293q16 -4 45 -4q28 0 54.5 4.5t61 21t59 43.5t42 77.5t17.5 117.5v1063h139v-1067q0 -98 -26.5 -171.5t-65 -113t-91 -63.5t-93 -30.5t-82.5 -6.5q-30 0 -60 6v123zM160 1266v174h151v-174h-151z" />
<glyph unicode="&#x459;" horiz-adv-x="1490" d="M59 -8v125q129 20 188.5 166t59.5 432v315h533v-399h221q58 0 108.5 -10t97.5 -33.5t80.5 -59t53.5 -91.5t20 -126q0 -143 -91.5 -227t-270.5 -84h-359v909h-258v-192q0 -368 -91 -539t-292 -186zM840 111h209q120 0 176.5 53t56.5 147q0 98 -57 153.5t-174 55.5h-211 v-409z" />
<glyph unicode="&#x45a;" horiz-adv-x="1632" d="M166 0v1030h139v-409h539v409h139v-409h211q73 0 136.5 -16.5t117.5 -51t85.5 -95.5t31.5 -143q0 -144 -92.5 -229.5t-272.5 -85.5h-356v502h-539v-502h-139zM983 111h209q233 0 233 204q0 94 -60.5 144.5t-180.5 50.5h-201v-399z" />
<glyph unicode="&#x45b;" horiz-adv-x="1216" d="M35 1157v111h131v172h139v-172h457v-111h-457v-383l-4 -86h4q17 41 49.5 82.5t82 82.5t122.5 67t156 26q185 0 265.5 -100t80.5 -299v-547h-139v510q0 54 -4 94.5t-18 82.5t-38 68t-66 43t-100 17q-132 0 -235 -82t-137 -211q-19 -56 -19 -137v-385h-139v1157h-131z" />
<glyph unicode="&#x45c;" horiz-adv-x="1013" d="M166 0v1030h139v-436h164l309 436h164l-358 -489v-4l399 -537h-170l-342 471h-166v-471h-139zM440 1198l142 244h161l-178 -244h-125z" />
<glyph unicode="&#x45d;" horiz-adv-x="1210" d="M166 0v1030h135v-676q0 -141 -6 -153h4q7 14 107 153l505 676h133v-1030h-137v678q0 26 1.5 61t3 60.5t1.5 27.5h-4q-1 -4 -17.5 -28t-44 -61.5t-42.5 -59.5l-506 -678h-133zM414 1442h161l142 -244h-127z" />
<glyph unicode="&#x45e;" horiz-adv-x="1077" d="M39 -369l53 111q6 -5 17.5 -13t44 -21t61.5 -13q64 0 114 46t83 122l61 147l-428 1020h154l301 -751l39 -109h4q15 58 35 109l296 751h150l-508 -1245q-41 -100 -117.5 -157.5t-177.5 -57.5q-47 0 -92.5 15t-67.5 31zM268 1407v35h121v-31q0 -66 44 -103.5t106 -37.5 q61 0 106 38t45 105v29h119v-35q0 -111 -80 -176.5t-190 -65.5t-190.5 66t-80.5 176z" />
<glyph unicode="&#x45f;" horiz-adv-x="1150" d="M166 0v1030h139v-907h539v907h139v-1030h-342v-246h-131v246h-344z" />
<glyph unicode="&#x462;" horiz-adv-x="1388" d="M29 1106v119h379v229h139v-229h418v-119h-418v-264h334q190 0 313 -112t123 -302q0 -194 -124 -311t-310 -117h-477v1106h-377zM547 127h315q137 0 222 80t85 221q0 133 -86 210t-221 77h-315v-588z" />
<glyph unicode="&#x463;" horiz-adv-x="1046" d="M0 944v111h248v385h141v-385h344v-111h-344v-307h225q73 0 134.5 -16.5t114 -52.5t82.5 -100.5t30 -152.5q0 -145 -92.5 -230t-272.5 -85h-360v944h-250zM389 111h209q120 0 176.5 54.5t56.5 151.5q0 98 -57 153.5t-174 55.5h-211v-415z" />
<glyph unicode="&#x472;" horiz-adv-x="1689" d="M111 731q0 203 95.5 371t263.5 265t374 97t374 -97t263.5 -265t95.5 -371q0 -209 -95.5 -382.5t-264 -273.5t-373.5 -100t-373.5 100t-264 273.5t-95.5 382.5zM258 668q22 -244 187.5 -404t400.5 -160q234 0 398 160t186 404h-1172zM258 788h1172q-20 236 -184.5 390.5 t-399.5 154.5q-156 0 -286 -70.5t-209.5 -195t-92.5 -279.5z" />
<glyph unicode="&#x473;" horiz-adv-x="1277" d="M96 520q0 150 72.5 273t197 192.5t273.5 69.5t274 -69.5t198 -192.5t73 -273q0 -114 -43 -216t-116.5 -173.5t-174 -113.5t-211.5 -42t-211.5 42t-173 113.5t-115.5 173.5t-43 216zM233 469q19 -164 134 -270.5t272 -106.5t272.5 106.5t132.5 270.5h-811zM233 571h811 q-17 159 -132.5 263t-272.5 104t-272 -104t-134 -263z" />
<glyph unicode="&#x474;" horiz-adv-x="1400" d="M39 1440h154l397 -1094l55 -184h4q31 110 56 184l311 914q21 63 43 99t56 54t69 22.5t100 4.5h90v-129h-45h-20q-33 0 -47.5 -1t-35.5 -6.5t-33 -18.5t-25.5 -36.5t-26.5 -60.5l-418 -1188h-152z" />
<glyph unicode="&#x475;" horiz-adv-x="1128" d="M51 1030h148l286 -756q8 -23 16.5 -54t13.5 -50l5 -20h4q19 73 37 124l197 574q34 102 89 142t161 40h77v-127h-43q-72 0 -104 -22.5t-59 -96.5l-279 -784h-154z" />
<glyph unicode="&#x48a;" horiz-adv-x="1593" d="M207 0v1440h141v-1037q0 -34 -3 -82.5t-6 -80.5l-3 -31h4q76 127 125 199l729 1032h137v-1313h203v-92l-135 -322h-113l94 287h-190v1036q0 34 3 82.5t6 80.5l3 32h-4q-72 -123 -121 -195l-733 -1036h-137zM506 1749v35h121v-31q0 -66 43.5 -103.5t105.5 -37.5 q61 0 106.5 38t45.5 105v29h119v-35q0 -110 -80.5 -176t-190.5 -66t-190 65.5t-80 176.5z" />
<glyph unicode="&#x48b;" horiz-adv-x="1265" d="M166 0v1030h135v-676q0 -141 -6 -153h4q7 14 107 153l505 676h133v-909h164v-88l-114 -279h-109l82 246h-160v678q0 26 1.5 61t3 60.5t1.5 27.5h-4q-1 -4 -17.5 -28t-44 -61.5t-42.5 -59.5l-506 -678h-133zM342 1407v35h121v-31q0 -66 43.5 -103.5t105.5 -37.5 q61 0 106.5 38t45.5 105v29h119v-35q0 -110 -80.5 -176t-190.5 -66t-190 65.5t-80 176.5z" />
<glyph unicode="&#x48c;" horiz-adv-x="1355" d="M25 1184v119h335v233h142v-233h362v-119h-362v-326h350q189 0 311.5 -116.5t122.5 -313.5q0 -193 -123.5 -310.5t-308.5 -117.5h-494v1184h-335zM502 127h332q136 0 220.5 80t84.5 221q0 140 -86 221.5t-222 81.5h-329v-604z" />
<glyph unicode="&#x48d;" horiz-adv-x="1062" d="M14 944v111h248v385h141v-385h345v-111h-345v-307h226q73 0 134.5 -16.5t114 -52.5t82 -100.5t29.5 -152.5q0 -145 -92 -230t-272 -85h-361v944h-250zM403 111h209q120 0 177 54.5t57 151.5q0 98 -57.5 153.5t-174.5 55.5h-211v-415z" />
<glyph unicode="&#x48e;" horiz-adv-x="1259" d="M207 0v1440h498q195 0 319.5 -118.5t124.5 -315.5q0 -208 -137 -332l125 -172l-88 -68l-129 178q-96 -47 -215 -47h-357v-565h-141zM348 684h342q86 0 156 31l-146 200l88 68l146 -203q76 82 76 221q0 148 -86 230t-234 82h-342v-629z" />
<glyph unicode="&#x48f;" horiz-adv-x="1224" d="M166 -410v1440h133v-108l-6 -80h4q4 9 11 23t36.5 51t66.5 65t102.5 51t141.5 23q207 0 328 -149t121 -390q0 -240 -127 -389l117 -137l-84 -74l-113 135q-112 -76 -254 -76q-69 0 -130 21t-97.5 51t-63.5 60.5t-38 51.5l-11 21h-4q6 -37 6 -90v-500h-139zM301 510 q0 -107 37 -199.5t114 -152.5t179 -60q103 0 180 56l-143 174l84 71l137 -166q80 111 80 279q0 189 -92 302.5t-238 113.5q-68 0 -127.5 -24.5t-107.5 -73.5t-75.5 -131t-27.5 -189z" />
<glyph unicode="&#x490;" horiz-adv-x="1001" d="M207 0v1440h639v180h127v-307h-625v-1313h-141z" />
<glyph unicode="&#x491;" horiz-adv-x="817" d="M166 0v1030h485v164h119v-285h-465v-909h-139z" />
<glyph unicode="&#x492;" horiz-adv-x="1017" d="M88 653v113h129v674h758v-127h-617v-547h332v-113h-332v-653h-141v653h-129z" />
<glyph unicode="&#x493;" horiz-adv-x="839" d="M41 451v104h129v475h614v-121h-475v-354h271v-104h-271v-451h-139v451h-129z" />
<glyph unicode="&#x494;" horiz-adv-x="1220" d="M207 0v1440h758v-127h-617v-527q47 26 132.5 49t162.5 23q81 0 146.5 -14t129.5 -53t107 -101.5t69.5 -166t26.5 -240.5q0 -136 -24.5 -244t-68.5 -181.5t-106.5 -122t-135 -70t-158.5 -21.5v120q55 0 102.5 13.5t94 49.5t79 93t52.5 149.5t20 213.5q0 242 -86.5 345 t-265.5 103q-130 0 -277 -67v-664h-141z" />
<glyph unicode="&#x495;" horiz-adv-x="997" d="M166 0v1030h620v-119h-481v-391q124 62 244 62q84 0 150 -25.5t107 -67.5t68 -100t37.5 -118t10.5 -126q0 -374 -293 -567l-70 103q225 152 225 458q0 66 -12.5 120.5t-40 101t-79 72.5t-122.5 26q-125 0 -225 -64v-395h-139z" />
<glyph unicode="&#x496;" horiz-adv-x="1841" d="M45 0l430 756v4l-401 680h159l363 -625h207v625h141v-625h209l363 625h157l-401 -680v-4l358 -629h182v-414h-133v287h-137l-389 688h-209v-688h-141v688h-207l-389 -688h-162z" />
<glyph unicode="&#x497;" horiz-adv-x="1548" d="M41 0l348 526v4l-315 500h151l279 -442h166v442h135v-442h166l278 442h154l-316 -500v-4l267 -403h155v-369h-133v246h-104l-301 465h-166v-465h-135v465h-164l-303 -465h-162z" />
<glyph unicode="&#x498;" horiz-adv-x="1105" d="M66 162l84 102q61 -69 155.5 -113.5t194.5 -44.5q150 0 246 82.5t96 219.5q0 128 -86.5 202t-218.5 74h-183v123h146q123 0 209 74.5t86 191.5q0 113 -72 187.5t-217 74.5q-183 0 -332 -123l-65 111q172 141 411 141q194 0 307 -103t113 -274q0 -121 -62 -201.5 t-153 -123.5v-4q120 -33 192 -126t72 -229q0 -174 -113.5 -287t-293.5 -134v-269h-131v267q-112 9 -215.5 57t-169.5 125z" />
<glyph unicode="&#x499;" horiz-adv-x="903" d="M61 125l74 96q121 -127 277 -127q102 0 174.5 52t72.5 149q0 88 -63.5 135t-185.5 47h-125v111h108q108 0 169 43.5t61 130.5q0 85 -57.5 129.5t-155.5 44.5q-135 0 -252 -92l-62 98q138 113 334 113q149 0 242.5 -72t93.5 -205q0 -172 -158 -235v-4q89 -23 142 -86 t53 -162q0 -127 -84 -207t-213 -100v-230h-129v223q-184 16 -316 148z" />
<glyph unicode="&#x49a;" horiz-adv-x="1304" d="M207 0v1440h141v-625h242l389 625h162l-432 -680v-4l383 -629h182v-414h-131v287h-139l-414 688h-242v-688h-141z" />
<glyph unicode="&#x49b;" horiz-adv-x="1081" d="M166 0v1030h139v-436h164l309 436h164l-358 -489v-4l307 -414h151v-369h-131v246h-98l-342 471h-166v-471h-139z" />
<glyph unicode="&#x49c;" horiz-adv-x="1359" d="M207 0v1440h141v-625h162v256h117v-256h110l389 625h162l-430 -680v-4l459 -756h-166l-414 688h-110v-256h-117v256h-162v-688h-141z" />
<glyph unicode="&#x49d;" horiz-adv-x="1153" d="M166 0v1030h139v-436h129v217h111v-217h63l310 436h163l-358 -489v-4l399 -537h-170l-342 471h-65v-221h-111v221h-129v-471h-139z" />
<glyph unicode="&#x49e;" horiz-adv-x="1220" d="M23 1083v113h192v244h141v-244h213v-113h-213v-268h242l389 625h162l-432 -680v-4l461 -756h-166l-414 688h-242v-688h-141v1083h-192z" />
<glyph unicode="&#x49f;" horiz-adv-x="1015" d="M39 1083v109h127v248h139v-248h258v-109h-258v-450h166l307 397h168l-358 -452v-5l395 -573h-168l-342 510h-168v-510h-139v1083h-127z" />
<glyph unicode="&#x4a0;" horiz-adv-x="1497" d="M37 1313v127h596v-625h244l387 625h161l-430 -680v-4l459 -756h-166l-411 688h-244v-688h-141v1313h-455z" />
<glyph unicode="&#x4a1;" horiz-adv-x="1155" d="M25 909v121h424v-436h161l312 436h161l-356 -489v-4l399 -537h-170l-344 471h-163v-471h-140v909h-284z" />
<glyph unicode="&#x4a2;" horiz-adv-x="1587" d="M207 0v1440h141v-656h834v656h143v-1313h186v-414h-131v287h-198v657h-834v-657h-141z" />
<glyph unicode="&#x4a3;" horiz-adv-x="1261" d="M166 0v1030h139v-440h602v440h140v-907h161v-369h-131v246h-170v467h-602v-467h-139z" />
<glyph unicode="&#x4a4;" horiz-adv-x="1888" d="M207 0v1440h141v-656h752v656h758v-127h-617v-1313h-141v657h-752v-657h-141z" />
<glyph unicode="&#x4a5;" horiz-adv-x="1466" d="M166 0v1030h139v-440h537v440h577v-121h-438v-909h-139v467h-537v-467h-139z" />
<glyph unicode="&#x4a6;" horiz-adv-x="2035" d="M207 0v1440h967v-633q47 26 132 49t162 23q80 0 146.5 -15t130 -55t107 -105t70 -172t26.5 -249q0 -169 -37 -294.5t-104.5 -199.5t-155.5 -109.5t-197 -35.5v120q55 0 102.5 13.5t94 49.5t79 93t52.5 149.5t20 213.5q0 256 -86 364.5t-266 108.5q-122 0 -276 -70v-686 h-142v1315h-684v-1315h-141z" />
<glyph unicode="&#x4a7;" horiz-adv-x="1634" d="M166 0v1030h754v-459q124 62 243 62q107 0 186.5 -39.5t123.5 -107t65 -146t21 -168.5q0 -392 -293 -594l-70 103q227 159 227 487q0 72 -14.5 131t-45.5 107.5t-86 75t-130 26.5q-122 0 -227 -64v-444h-140v907h-475v-907h-139z" />
<glyph unicode="&#x4a8;" horiz-adv-x="1908" d="M115 739q0 125 33 236t87.5 191.5t127 143t147.5 100t152 54.5l32 -131q-64 -18 -124.5 -50t-117.5 -84.5t-99 -117.5t-67.5 -154t-25.5 -190q0 -173 64.5 -313.5t195.5 -227.5t309 -87q140 0 279 51q-170 113 -265 286.5t-95 387.5q0 120 31.5 221.5t83.5 171 t120.5 118.5t142 72t148.5 23q105 0 196 -37.5t161.5 -109.5t111.5 -188.5t41 -264.5q0 -197 -107 -375t-284 -303q134 -39 284 -39h88v-123h-88q-224 0 -420 80q-208 -105 -428 -105q-319 0 -516.5 210t-197.5 554zM895 834q0 -195 91.5 -356.5t258.5 -252.5 q175 102 283 265.5t108 349.5q0 123 -30.5 216t-83 146t-115 79t-133.5 26q-64 0 -128 -27.5t-121.5 -82t-93.5 -149t-36 -214.5z" />
<glyph unicode="&#x4a9;" horiz-adv-x="1572" d="M98 528q0 108 34.5 200.5t92 156t121.5 106t133 64.5l45 -119q-52 -18 -100 -51.5t-91.5 -83t-70 -121t-26.5 -154.5q0 -89 26 -165t78 -136t139 -94.5t201 -34.5q113 0 223 37q-132 81 -208.5 207t-76.5 283q0 179 123.5 305.5t307.5 126.5t296.5 -116t112.5 -304 q0 -141 -76 -269.5t-206 -224.5q93 -22 192 -22h96v-119h-92q-177 0 -332 61q-177 -86 -362 -86q-143 0 -255.5 43.5t-182.5 120t-106 175.5t-36 214zM756 625q0 -141 76 -253t206 -179q128 73 205.5 186t77.5 250q0 145 -75.5 226t-198.5 81q-122 0 -206.5 -88t-84.5 -223z " />
<glyph unicode="&#x4aa;" horiz-adv-x="1472" d="M113 729q0 207 92 375t258 264t373 96q146 0 284 -46t236 -140l-76 -104q-84 73 -203 115t-237 42q-171 0 -304.5 -79.5t-204.5 -215.5t-71 -305q0 -171 71 -312t206.5 -225.5t308.5 -84.5q128 0 250.5 50t214.5 140l82 -100q-208 -204 -496 -222v-264h-133v267 q-194 17 -343 120.5t-228.5 267.5t-79.5 361z" />
<glyph unicode="&#x4ab;" horiz-adv-x="1114" d="M96 514q0 155 72 279.5t195.5 193t273.5 68.5q106 0 208.5 -38t168.5 -110l-72 -104q-55 57 -136 92t-165 35q-171 0 -286 -117t-115 -299q0 -180 116 -296t289 -116q91 0 180 38t150 104l63 -105q-61 -67 -155 -110t-199 -52v-223h-129v228q-202 27 -330.5 172 t-128.5 360z" />
<glyph unicode="&#x4ac;" horiz-adv-x="1245" d="M33 1313v127h1175v-127h-518v-1186h187v-414h-132v287h-198l2 4v1309h-516z" />
<glyph unicode="&#x4ad;" horiz-adv-x="993" d="M47 907v123h891v-123h-377v-784h164v-369h-131v246h-172v907h-375z" />
<glyph unicode="&#x4ae;" horiz-adv-x="1161" d="M23 1440h161l305 -522q19 -34 41.5 -77t35.5 -69l12 -27h4q45 97 88 173l305 522h162l-486 -822v-618h-141v618z" />
<glyph unicode="&#x4af;" horiz-adv-x="1046" d="M49 1030h148l284 -692q10 -24 20 -54t15 -48l4 -17h4q19 64 39 119l287 692h145l-403 -967v-473h-135v473z" />
<glyph unicode="&#x4b0;" horiz-adv-x="1161" d="M23 1440h161l305 -522q19 -34 41.5 -77t35.5 -69l12 -27h4q45 97 88 173l305 522h162l-482 -815h256v-113h-260v-512h-141v512h-264v113h260z" />
<glyph unicode="&#x4b1;" horiz-adv-x="1044" d="M53 1030h148l280 -692q10 -24 20 -54t15 -48l4 -17h4q19 64 39 119l283 692h147l-383 -919h217v-111h-235v-410h-135v410h-238v111h217z" />
<glyph unicode="&#x4b2;" horiz-adv-x="1271" d="M39 0l459 752l-420 688h166l252 -426l94 -166h4q43 92 88 166l254 426h166l-422 -688l383 -625h182v-414h-131v287h-135l-301 498l-90 159h-4q-43 -85 -88 -161l-295 -496h-162z" />
<glyph unicode="&#x4b3;" horiz-adv-x="1048" d="M41 0l360 537l-331 493h163l222 -346l34 -59h5q18 32 34 59l222 346h161l-331 -493l278 -414h148v-369h-132v246h-96l-250 387l-34 57h-5q-16 -28 -34 -57l-252 -387h-162z" />
<glyph unicode="&#x4b4;" horiz-adv-x="1824" d="M37 1313v127h1050v-127h-454v-1186h792v1313h142v-1313h180v-414h-131v287h-1124v1313h-455z" />
<glyph unicode="&#x4b5;" horiz-adv-x="1472" d="M47 907v123h844v-123h-352v-784h585v907h140v-907h149v-369h-133v246h-881v907h-352z" />
<glyph unicode="&#x4b6;" horiz-adv-x="1323" d="M115 975v465h143v-436q0 -153 72.5 -229.5t232.5 -76.5q99 0 195 34.5t160 76.5v631h143v-1313h186v-414h-131v287h-198v606l4 68h-4q-74 -41 -174.5 -74t-200.5 -33q-217 0 -322.5 105t-105.5 303z" />
<glyph unicode="&#x4b7;" horiz-adv-x="1085" d="M96 702v328h137v-313q0 -46 9 -80.5t32.5 -67t72 -50t120.5 -17.5q78 0 146 26t110 58v444h139v-907h176v-369h-131v246h-184v391l4 66h-4q-54 -33 -134 -56.5t-147 -23.5q-175 0 -260.5 85t-85.5 240z" />
<glyph unicode="&#x4b8;" horiz-adv-x="1280" d="M111 979v461h143v-436q0 -149 68.5 -225.5t220.5 -80.5v295h116v-286q153 24 271 102v631h143v-1440h-143v608l4 68h-4q-119 -67 -271 -94v-236h-116v225q-219 1 -325.5 106t-106.5 302z" />
<glyph unicode="&#x4b9;" horiz-adv-x="1052" d="M96 702v328h137v-313q0 -43 8.5 -76.5t30.5 -65.5t67 -50.5t110 -22.5v256h110v-250q112 22 189 78v444h139v-1030h-139v395l4 66h-4q-74 -49 -189 -72v-176h-110v164q-178 0 -265.5 85.5t-87.5 239.5z" />
<glyph unicode="&#x4ba;" horiz-adv-x="1259" d="M207 0v1440h141v-535l-4 -67h4q72 39 177 70.5t218 31.5q200 0 298 -107t98 -305v-528h-144v506q0 152 -66 228.5t-212 76.5q-108 0 -209.5 -35t-159.5 -76v-700h-141z" />
<glyph unicode="&#x4bb;" horiz-adv-x="1216" d="M166 0v1440h139v-566q0 -21 -1.5 -41.5t-3.5 -30.5l-1 -11h4q16 40 49 82.5t83 85t124 69.5t156 27q185 0 265.5 -100.5t80.5 -299.5v-655h-139v618q0 54 -4 94.5t-18 82.5t-38 68.5t-66 43.5t-100 17q-165 0 -278 -121t-113 -305v-498h-139z" />
<glyph unicode="&#x4bc;" horiz-adv-x="1761" d="M90 1042q0 98 14 164l19 86h135l-18 -86q-15 -76 -15 -153q0 -90 42.5 -147.5t127.5 -57.5h23q18 132 72 245t136.5 195t195.5 129t243 47q263 0 420 -175t157 -484l-2 -76h-1085q-1 -146 43.5 -266t120.5 -196t174 -117t205 -41q76 0 152 18.5t123.5 39t98.5 54t62 42 t29 24.5l71 -115l-3 -3q-18 -16 -36 -31t-71.5 -47.5t-110 -55.5t-144.5 -41.5t-182 -18.5q-194 0 -348.5 91.5t-242.5 260.5t-88 386v16h-17q-141 0 -221 84t-80 229zM561 848h936q0 76 -15.5 146t-50 132.5t-84 108.5t-122 73t-160.5 27q-104 0 -193 -39t-151.5 -106.5 t-103.5 -154.5t-56 -187z" />
<glyph unicode="&#x4bd;" horiz-adv-x="1361" d="M80 782q0 69 26 158h123q-26 -70 -26 -147q0 -89 31.5 -130.5t95.5 -41.5h6q32 200 171 317t329 117q138 0 237.5 -66t147 -172t47.5 -237l-6 -70h-791q3 -127 59 -221t145 -140.5t197 -46.5q52 0 103.5 12.5t87.5 31t64.5 36.5t42.5 30l14 13l63 -106q-6 -6 -17.5 -15.5 t-50 -34.5t-80 -44t-105 -34.5t-128.5 -15.5q-152 0 -274.5 67.5t-192.5 190t-71 277.5h-9q-239 0 -239 272zM477 621h647q-6 154 -88.5 235.5t-204.5 81.5q-133 0 -231.5 -84t-122.5 -233z" />
<glyph unicode="&#x4be;" horiz-adv-x="1763" d="M90 1042q0 98 14 164l19 86h135l-18 -86q-15 -76 -15 -153q0 -90 42.5 -147.5t127.5 -57.5h23q18 132 72 245t136.5 195t195.5 129t243 47q263 0 420 -175t157 -484l-2 -76h-1085q-1 -146 43.5 -266t120.5 -196t174 -117t205 -41q76 0 152 18.5t123.5 39t98.5 54t62 42 t29 24.5l71 -115q-1 0 -4 -3q-22 -21 -49.5 -41t-91.5 -57.5t-157.5 -63t-198.5 -30.5v-264h-132v269q-264 30 -428.5 228.5t-164.5 502.5v16h-17q-141 0 -221 84t-80 229zM561 848h936q0 76 -15.5 146t-50 132.5t-84 108.5t-122 73t-160.5 27q-104 0 -193 -39 t-151.5 -106.5t-103.5 -154.5t-56 -187z" />
<glyph unicode="&#x4bf;" horiz-adv-x="1363" d="M80 782q0 69 26 158h123q-26 -70 -26 -147q0 -89 31.5 -130.5t95.5 -41.5h6q32 200 171 317t329 117q138 0 237.5 -66t147 -172t47.5 -237l-6 -70h-791q3 -127 59 -221t145 -140.5t197 -46.5q52 0 103.5 12.5t87.5 31t64.5 36.5t42.5 30l14 13l63 -106q-6 -6 -16.5 -15 t-47 -33t-76 -42.5t-100 -35t-122.5 -18.5v-221h-131v232q-189 36 -307 178t-119 346h-9q-239 0 -239 272zM477 621h647q-6 154 -88.5 235.5t-204.5 81.5q-133 0 -231.5 -84t-122.5 -233z" />
<glyph unicode="&#x4c0;" horiz-adv-x="552" d="M207 0v1440h139v-1440h-139z" />
<glyph unicode="&#x4c1;" horiz-adv-x="1748" d="M45 0l430 756v4l-401 680h159l363 -625h207v625h141v-625h209l363 625h157l-401 -680v-4l432 -756h-162l-389 688h-209v-688h-141v688h-207l-389 -688h-162zM604 1749v35h121v-31q0 -66 43.5 -103.5t105.5 -37.5q61 0 106.5 38t45.5 105v29h119v-35q0 -110 -80.5 -176 t-190.5 -66t-190 65.5t-80 176.5z" />
<glyph unicode="&#x4c2;" horiz-adv-x="1476" d="M41 0l348 526v4l-315 500h151l279 -442h166v442h135v-442h166l278 442h154l-316 -500v-4l349 -526h-164l-301 465h-166v-465h-135v465h-164l-303 -465h-162zM467 1407v35h121v-31q0 -66 43.5 -103.5t105.5 -37.5q61 0 106.5 38t45.5 105v29h119v-35q0 -110 -80.5 -176 t-190.5 -66t-190 65.5t-80 176.5z" />
<glyph unicode="&#x4c3;" horiz-adv-x="1259" d="M207 0v1440h141v-625h242l389 625h162l-410 -656q99 -24 176 -71t122 -101.5t73.5 -122t38.5 -125.5t10 -118q0 -285 -135.5 -443.5t-349.5 -158.5v123q51 0 97.5 14t91.5 49t78 87.5t53 135.5t20 187q0 96 -26 172.5t-71.5 128t-110.5 85.5t-139 49t-161 15h-150v-690 h-141z" />
<glyph unicode="&#x4c4;" horiz-adv-x="1032" d="M166 0v1030h139v-440h160l313 440h164l-340 -465v-4q334 -91 334 -463q0 -99 -25.5 -185t-70 -149t-94 -108t-107.5 -78l-68 107q101 53 164.5 155t63.5 258q0 186 -104 277.5t-289 91.5h-101v-467h-139z" />
<glyph unicode="&#x4c5;" horiz-adv-x="1417" d="M23 -16v133q99 14 167 89t105.5 213.5t53.5 313.5t16 416v291h790v-1313h203v-92l-135 -322h-113l94 287h-192v1313h-510v-166q0 -153 -6 -278t-20.5 -245t-38.5 -212t-61 -171.5t-86.5 -132.5t-116.5 -85t-150 -39z" />
<glyph unicode="&#x4c6;" horiz-adv-x="1138" d="M41 -8v125q128 20 187 167t59 435v311h631v-909h161v-88l-114 -279h-109l82 246h-160v909h-356v-190q0 -365 -91.5 -538.5t-289.5 -188.5z" />
<glyph unicode="&#x4c7;" horiz-adv-x="1529" d="M207 0v1440h141v-656h834v656h143v-1374q0 -107 -26.5 -187.5t-65.5 -124.5t-92.5 -70.5t-98 -33.5t-92.5 -6v123q30 0 57 5t60.5 23.5t57.5 49t40.5 86.5t16.5 130v596h-834v-657h-141z" />
<glyph unicode="&#x4c8;" horiz-adv-x="1214" d="M166 0v1030h139v-440h602v440h142v-948q0 -86 -16.5 -158t-42.5 -122t-67 -93.5t-79.5 -71.5t-91.5 -59l-72 109q109 55 168 146t59 249v385h-602v-467h-139z" />
<glyph unicode="&#x4c9;" horiz-adv-x="1587" d="M207 0v1440h141v-656h834v656h143v-1313h203v-92l-135 -322h-113l92 287h-190v657h-834v-657h-141z" />
<glyph unicode="&#x4ca;" horiz-adv-x="1265" d="M166 0v1030h139v-440h602v440h140v-909h161v-88l-116 -279h-107l80 246h-158v467h-602v-467h-139z" />
<glyph unicode="&#x4cb;" horiz-adv-x="1265" d="M115 975v465h143v-436q0 -153 72.5 -229.5t232.5 -76.5q99 0 195 34.5t160 76.5v631h143v-1440h-201v-287h-131v414h189v479l4 68h-4q-74 -41 -174.5 -74t-200.5 -33q-217 0 -322.5 105t-105.5 303z" />
<glyph unicode="&#x4cc;" horiz-adv-x="1040" d="M96 709v321h137v-307q0 -44 9 -79t31.5 -67.5t68.5 -50.5t113 -18q82 0 159 26.5t121 57.5v438h139v-1030h-169v-246h-134v352h164v295l4 66h-4q-55 -34 -146.5 -58t-162.5 -24q-166 0 -248 85.5t-82 238.5z" />
<glyph unicode="&#x4cd;" horiz-adv-x="1785" d="M152 0l114 1440h146l379 -846q15 -33 32 -77t27 -71l10 -28h4q37 102 70 176l379 846h145l105 -1313h200v-92l-133 -322h-112l92 287h-178l-80 1008q-3 35 -4 85t0 83v32h-5q-42 -126 -75 -200l-340 -740h-131l-338 740q-15 32 -34.5 83t-31.5 86l-12 35h-4 q2 -126 -4 -204l-80 -1008h-141z" />
<glyph unicode="&#x4ce;" horiz-adv-x="1525" d="M127 0l84 1030h147l310 -635l63 -145h4q33 79 64 145l311 635h145l76 -909h162v-88l-115 -279h-108l80 246h-146l-51 666v178h-4q-23 -66 -66 -150l-286 -575h-127l-285 571q-17 36 -34 74.5t-25 59.5l-9 20h-4q4 -123 0 -178l-51 -666h-135z" />
<glyph unicode="&#x4cf;" horiz-adv-x="471" d="M166 0v1440h139v-1440h-139z" />
<glyph unicode="&#x4d0;" horiz-adv-x="1294" d="M43 0l528 1440h152l528 -1440h-149l-166 459h-580l-163 -459h-150zM375 1749v35h121v-31q0 -66 43.5 -103.5t105.5 -37.5q61 0 106.5 38t45.5 105v29h118v-35q0 -111 -80 -176.5t-190 -65.5t-190 65.5t-80 176.5zM399 582h494l-188 522q-11 30 -25 77t-22 79l-9 32h-4 q-30 -120 -55 -188z" />
<glyph unicode="&#x4d1;" horiz-adv-x="1060" d="M76 276q0 359 626 359h62v29q0 266 -254 266q-157 0 -293 -99l-63 107q62 53 161.5 85t202.5 32q187 0 286 -101.5t99 -294.5v-659h-133v121q0 23 1.5 44.5t2.5 31.5l2 10h-4q-42 -99 -135.5 -165.5t-212.5 -66.5q-66 0 -127.5 19.5t-111.5 56t-79.5 95t-29.5 130.5z M217 289q0 -79 61.5 -138t170.5 -59q58 0 109 22.5t88 61t64 88t40.5 104.5t13.5 109v47h-59q-45 0 -78 -1t-87.5 -6t-94.5 -13.5t-85.5 -26t-74.5 -41.5t-48.5 -62t-19.5 -85zM272 1407v35h121v-31q0 -66 44 -103.5t106 -37.5q61 0 106 38t45 105v29h119v-35 q0 -111 -80 -176.5t-190 -65.5t-190.5 66t-80.5 176z" />
<glyph unicode="&#x4d2;" horiz-adv-x="1294" d="M43 0l528 1440h152l528 -1440h-149l-166 459h-580l-163 -459h-150zM399 582h494l-188 522q-11 30 -25 77t-22 79l-9 32h-4q-30 -120 -55 -188zM430 1608v176h125v-176h-125zM739 1608v176h127v-176h-127z" />
<glyph unicode="&#x4d3;" horiz-adv-x="1060" d="M76 276q0 359 626 359h62v29q0 266 -254 266q-157 0 -293 -99l-63 107q62 53 161.5 85t202.5 32q187 0 286 -101.5t99 -294.5v-659h-133v121q0 23 1.5 44.5t2.5 31.5l2 10h-4q-42 -99 -135.5 -165.5t-212.5 -66.5q-66 0 -127.5 19.5t-111.5 56t-79.5 95t-29.5 130.5z M217 289q0 -79 61.5 -138t170.5 -59q58 0 109 22.5t88 61t64 88t40.5 104.5t13.5 109v47h-59q-45 0 -78 -1t-87.5 -6t-94.5 -13.5t-85.5 -26t-74.5 -41.5t-48.5 -62t-19.5 -85zM307 1266v176h125v-176h-125zM616 1266v176h127v-176h-127z" />
<glyph unicode="&#x4d4;" horiz-adv-x="1736" d="M33 0l592 1440h985v-127h-670v-525h547v-126h-547v-535h707v-127h-848v664h-350l-267 -664h-149zM500 786h299v527h-84z" />
<glyph unicode="&#x4d5;" horiz-adv-x="1775" d="M78 281q0 55 14 100.5t37 78.5t59 59.5t71.5 44t85 30t89 18.5t93 10t87.5 4.5t82 0.5h68v37q0 142 -68.5 204t-193.5 62q-152 0 -285 -99l-65 105q62 55 160 87t198 32q277 0 348 -213h4q63 105 162.5 159t226.5 54q134 0 232.5 -64.5t147 -169.5t48.5 -235q0 -1 -6 -70 h-774q4 -197 111 -305.5t274 -108.5q84 0 167 32.5t144 90.5l64 -106q-67 -64 -172.5 -104t-208.5 -40q-157 0 -276.5 76.5t-176.5 210.5h-4q-7 -22 -20 -50.5t-45 -72.5t-73 -78.5t-107.5 -60t-143.5 -25.5q-149 0 -251.5 81.5t-102.5 224.5zM221 289q0 -81 61 -139 t169 -58q58 0 109 23t88 61.5t64 88.5t40.5 105t13.5 109v37h-121q-51 0 -92.5 -2.5t-94 -9.5t-91.5 -23t-74 -40t-53.5 -63t-18.5 -89zM907 627h629q-6 151 -89.5 230t-201.5 79q-133 0 -223.5 -79.5t-114.5 -229.5z" />
<glyph unicode="&#x4d6;" horiz-adv-x="1146" d="M207 0v1440h809v-127h-668v-525h547v-126h-547v-535h707v-127h-848zM350 1749v35h121v-31q0 -66 44 -103.5t106 -37.5q61 0 106 38t45 105v29h119v-35q0 -111 -80 -176.5t-190 -65.5t-190.5 66t-80.5 176z" />
<glyph unicode="&#x4d7;" horiz-adv-x="1132" d="M96 514q0 124 40.5 227t110 171t162 105.5t197.5 37.5q137 0 236.5 -66t146.5 -172t47 -237q0 -24 -4 -70h-790q3 -127 58.5 -221t144 -140.5t196.5 -46.5q84 0 166.5 33t146.5 90l64 -106q-72 -66 -175.5 -105t-205.5 -39q-152 0 -275.5 68t-194.5 191.5t-71 279.5z M248 621h647q-6 154 -88.5 236.5t-204.5 82.5q-134 0 -232 -84t-122 -235zM324 1407v35h120v-31q0 -66 44 -103.5t106 -37.5q61 0 106 38t45 105v29h119v-35q0 -111 -80 -176.5t-190 -65.5t-190 65.5t-80 176.5z" />
<glyph unicode="&#x4d8;" horiz-adv-x="1474" d="M113 698l4 80h1091q-4 244 -150 398.5t-372 154.5q-76 0 -151 -15.5t-124.5 -35.5t-95.5 -46t-62.5 -38.5t-27.5 -21.5l-75 104q9 9 26.5 23t68.5 45t110 55.5t151.5 43.5t191.5 19q291 0 475.5 -205t184.5 -532q0 -160 -44.5 -298t-126 -238.5t-203.5 -158t-269 -57.5 q-135 0 -244 44t-189.5 131t-124.5 226.5t-44 321.5zM260 657q0 -551 469 -551q209 0 342 151t133 400h-944z" />
<glyph unicode="&#x4d9;" horiz-adv-x="1134" d="M96 477l4 74h793q-4 168 -110 274.5t-259 106.5q-58 0 -114.5 -12.5t-96.5 -31t-71 -36.5t-46 -30l-16 -13l-63 104q1 0 12.5 8.5t25.5 18t37.5 23t49 25.5t59.5 24.5t69.5 21.5t79 15t87.5 6q219 0 359 -150.5t140 -388.5q0 -129 -38.5 -232.5t-106 -170.5t-156 -102.5 t-190.5 -35.5q-217 0 -333 137.5t-116 364.5zM242 440q3 -95 28.5 -164.5t68.5 -108.5t95 -57t115 -18t120 21t104.5 62t77.5 109.5t34 155.5h-643z" />
<glyph unicode="&#x4da;" horiz-adv-x="1474" d="M113 698l4 80h1091q-4 244 -150 398.5t-372 154.5q-76 0 -151 -15.5t-124.5 -35.5t-95.5 -46t-62.5 -38.5t-27.5 -21.5l-75 104q9 9 26.5 23t68.5 45t110 55.5t151.5 43.5t191.5 19q291 0 475.5 -205t184.5 -532q0 -160 -44.5 -298t-126 -238.5t-203.5 -158t-269 -57.5 q-135 0 -244 44t-189.5 131t-124.5 226.5t-44 321.5zM260 657q0 -551 469 -551q209 0 342 151t133 400h-944zM510 1608v176h125v-176h-125zM819 1608v176h127v-176h-127z" />
<glyph unicode="&#x4db;" horiz-adv-x="1134" d="M96 477l4 74h793q-4 168 -110 274.5t-259 106.5q-58 0 -114.5 -12.5t-96.5 -31t-71 -36.5t-46 -30l-16 -13l-63 104q1 0 12.5 8.5t25.5 18t37.5 23t49 25.5t59.5 24.5t69.5 21.5t79 15t87.5 6q219 0 359 -150.5t140 -388.5q0 -129 -38.5 -232.5t-106 -170.5t-156 -102.5 t-190.5 -35.5q-217 0 -333 137.5t-116 364.5zM242 440q3 -95 28.5 -164.5t68.5 -108.5t95 -57t115 -18t120 21t104.5 62t77.5 109.5t34 155.5h-643zM326 1266v176h125v-176h-125zM635 1266v176h127v-176h-127z" />
<glyph unicode="&#x4dc;" horiz-adv-x="1748" d="M45 0l430 756v4l-401 680h159l363 -625h207v625h141v-625h209l363 625h157l-401 -680v-4l432 -756h-162l-389 688h-209v-688h-141v688h-207l-389 -688h-162zM659 1608v176h125v-176h-125zM969 1608v176h127v-176h-127z" />
<glyph unicode="&#x4dd;" horiz-adv-x="1476" d="M41 0l348 526v4l-315 500h151l279 -442h166v442h135v-442h166l278 442h154l-316 -500v-4l349 -526h-164l-301 465h-166v-465h-135v465h-164l-303 -465h-162zM518 1266v176h125v-176h-125zM827 1266v176h127v-176h-127z" />
<glyph unicode="&#x4de;" horiz-adv-x="1101" d="M66 162l84 102q61 -69 155.5 -113.5t194.5 -44.5q150 0 246 82.5t96 219.5q0 128 -86.5 202t-218.5 74h-183v123h146q123 0 209 74.5t86 191.5q0 113 -72 187.5t-217 74.5q-183 0 -332 -123l-65 111q172 141 411 141q194 0 307 -103t113 -274q0 -121 -62 -201.5 t-153 -123.5v-4q120 -33 192 -126t72 -229q0 -193 -137.5 -310.5t-345.5 -117.5q-124 0 -244.5 50t-195.5 137zM324 1608v176h125v-176h-125zM633 1608v176h127v-176h-127z" />
<glyph unicode="&#x4df;" horiz-adv-x="899" d="M61 125l74 96q121 -127 277 -127q102 0 174.5 52t72.5 149q0 88 -63.5 135t-185.5 47h-125v111h108q108 0 169 43.5t61 130.5q0 85 -57.5 129.5t-155.5 44.5q-135 0 -252 -92l-62 98q138 113 334 113q149 0 242.5 -72t93.5 -205q0 -172 -158 -235v-4q89 -23 142 -86 t53 -162q0 -100 -55 -173.5t-140.5 -108t-187.5 -34.5q-205 0 -359 150zM223 1266v176h125v-176h-125zM532 1266v176h127v-176h-127z" />
<glyph unicode="&#x4e0;" horiz-adv-x="1067" d="M74 104l57 111q64 -51 155 -81t177 -30q159 0 256.5 84t97.5 218q0 118 -60.5 184t-197.5 84q-41 6 -309 6v100l409 453q19 21 41.5 42t35.5 31l12 11v4q-55 -4 -125 -4h-514v123h813v-105l-439 -481l-57 -51v-4q139 -3 195 -13q337 -52 337 -370q0 -196 -136.5 -316 t-354.5 -120q-217 0 -393 124z" />
<glyph unicode="&#x4e1;" horiz-adv-x="980" d="M25 -305l57 110q64 -50 155 -80t177 -30q159 0 256.5 83.5t97.5 217.5q0 118 -60.5 184t-197.5 84q-41 6 -309 6v101l409 452q19 21 41 42t35 31l12 11v4q-55 -4 -125 -4h-514v123h813v-104l-438 -482l-57 -51v-4q144 -3 194 -12q84 -13 146.5 -43.5t98.5 -67.5t57.5 -85 t28.5 -88.5t7 -86.5q0 -196 -136.5 -316t-354.5 -120q-215 0 -393 125z" />
<glyph unicode="&#x4e2;" horiz-adv-x="1538" d="M207 0v1440h141v-1037q0 -34 -3 -82.5t-6 -80.5l-3 -31h4q76 127 125 199l729 1032h137v-1440h-141v1036q0 34 3 82.5t6 80.5l3 32h-4q-72 -123 -121 -195l-733 -1036h-137zM526 1608v112h504v-112h-504z" />
<glyph unicode="&#x4e3;" horiz-adv-x="1210" d="M166 0v1030h135v-676q0 -141 -6 -153h4q7 14 107 153l505 676h133v-1030h-137v678q0 26 1.5 61t3 60.5t1.5 27.5h-4q-1 -4 -17.5 -28t-44 -61.5t-42.5 -59.5l-506 -678h-133zM356 1266v112h504v-112h-504z" />
<glyph unicode="&#x4e4;" horiz-adv-x="1538" d="M207 0v1440h141v-1037q0 -34 -3 -82.5t-6 -80.5l-3 -31h4q76 127 125 199l729 1032h137v-1440h-141v1036q0 34 3 82.5t6 80.5l3 32h-4q-72 -123 -121 -195l-733 -1036h-137zM551 1608v176h125v-176h-125zM860 1608v176h127v-176h-127z" />
<glyph unicode="&#x4e5;" horiz-adv-x="1210" d="M166 0v1030h135v-676q0 -141 -6 -153h4q7 14 107 153l505 676h133v-1030h-137v678q0 26 1.5 61t3 60.5t1.5 27.5h-4q-1 -4 -17.5 -28t-44 -61.5t-42.5 -59.5l-506 -678h-133zM395 1266v176h125v-176h-125zM705 1266v176h126v-176h-126z" />
<glyph unicode="&#x4e6;" horiz-adv-x="1689" d="M111 731q0 204 95 371.5t263.5 264.5t374.5 97q207 0 375.5 -97t263 -264.5t94.5 -371.5q0 -210 -94.5 -383t-263 -273t-375.5 -100q-206 0 -374.5 100t-263.5 273t-95 383zM258 731q0 -174 76 -316.5t210.5 -224t299.5 -81.5q166 0 300.5 81.5t210 224t75.5 316.5 q0 168 -75.5 305.5t-210 216t-300.5 78.5q-165 0 -299.5 -78.5t-210.5 -216t-76 -305.5zM623 1608v176h125v-176h-125zM932 1608v176h127v-176h-127z" />
<glyph unicode="&#x4e7;" horiz-adv-x="1277" d="M96 520q0 150 72.5 273t197 192.5t273.5 69.5t274 -69.5t198 -192.5t73 -273q0 -114 -43 -216t-116.5 -173.5t-174 -113.5t-211.5 -42t-211.5 42t-173 113.5t-115.5 173.5t-43 216zM240 520q0 -180 115.5 -299t283.5 -119t284.5 119.5t116.5 298.5q0 174 -117 292 t-284 118t-283 -118t-116 -292zM424 1266v176h125v-176h-125zM733 1266v176h127v-176h-127z" />
<glyph unicode="&#x4e8;" horiz-adv-x="1689" d="M111 731q0 203 95.5 371t263.5 265t374 97t374 -97t263.5 -265t95.5 -371q0 -209 -95.5 -382.5t-264 -273.5t-373.5 -100t-373.5 100t-264 273.5t-95.5 382.5zM258 668q22 -244 187.5 -404t400.5 -160q234 0 398 160t186 404h-1172zM258 788h1172q-20 236 -184.5 390.5 t-399.5 154.5q-156 0 -286 -70.5t-209.5 -195t-92.5 -279.5z" />
<glyph unicode="&#x4e9;" horiz-adv-x="1277" d="M96 520q0 150 72.5 273t197 192.5t273.5 69.5t274 -69.5t198 -192.5t73 -273q0 -114 -43 -216t-116.5 -173.5t-174 -113.5t-211.5 -42t-211.5 42t-173 113.5t-115.5 173.5t-43 216zM233 469q19 -164 134 -270.5t272 -106.5t272.5 106.5t132.5 270.5h-811zM233 571h811 q-17 159 -132.5 263t-272.5 104t-272 -104t-134 -263z" />
<glyph unicode="&#x4ea;" horiz-adv-x="1689" d="M111 731q0 203 95.5 371t263.5 265t374 97t374 -97t263.5 -265t95.5 -371q0 -209 -95.5 -382.5t-264 -273.5t-373.5 -100t-373.5 100t-264 273.5t-95.5 382.5zM258 668q22 -244 187.5 -404t400.5 -160q234 0 398 160t186 404h-1172zM258 788h1172q-20 236 -184.5 390.5 t-399.5 154.5q-156 0 -286 -70.5t-209.5 -195t-92.5 -279.5zM627 1608v176h125v-176h-125zM936 1608v176h127v-176h-127z" />
<glyph unicode="&#x4eb;" horiz-adv-x="1277" d="M96 520q0 150 72.5 273t197 192.5t273.5 69.5t274 -69.5t198 -192.5t73 -273q0 -114 -43 -216t-116.5 -173.5t-174 -113.5t-211.5 -42t-211.5 42t-173 113.5t-115.5 173.5t-43 216zM233 469q19 -164 134 -270.5t272 -106.5t272.5 106.5t132.5 270.5h-811zM233 571h811 q-17 159 -132.5 263t-272.5 104t-272 -104t-134 -263zM416 1266v176h125v-176h-125zM725 1266v176h127v-176h-127z" />
<glyph unicode="&#x4ec;" horiz-adv-x="1468" d="M78 195l78 100q78 -83 207 -136t264 -53q234 0 395 158t182 395h-811v123h813q-15 239 -177 395t-400 156q-119 0 -234.5 -42.5t-208.5 -121.5l-75 107q94 91 234 139.5t286 48.5q208 0 374.5 -96.5t258.5 -264.5t92 -374q0 -208 -93.5 -380.5t-261 -273t-374.5 -100.5 q-155 0 -301 58t-248 162zM451 1608v176h124v-176h-124zM760 1608v176h127v-176h-127z" />
<glyph unicode="&#x4ed;" horiz-adv-x="1107" d="M72 133l61 105q65 -71 155.5 -106.5t180.5 -35.5q158 0 271 101t130 262h-530v110h530q-17 163 -129.5 264t-267.5 101q-179 0 -309 -127l-72 102q64 70 168.5 108t214.5 38q228 0 382.5 -153t154.5 -388q0 -157 -71 -280.5t-194.5 -191t-275.5 -67.5q-113 0 -218 40 t-181 118zM299 1266v176h125v-176h-125zM608 1266v176h127v-176h-127z" />
<glyph unicode="&#x4ee;" horiz-adv-x="1202" d="M14 1440h158l395 -803q19 -39 39.5 -86t31.5 -75l11 -27h4q33 100 64 186l299 805h151l-471 -1213q-99 -252 -288 -252q-112 0 -238 88l68 109q98 -70 168 -70q65 0 103.5 47t76.5 148zM350 1608v112h504v-112h-504z" />
<glyph unicode="&#x4ef;" horiz-adv-x="1077" d="M39 -369l53 111q6 -5 17.5 -13t44 -21t61.5 -13q64 0 114 46t83 122l61 147l-428 1020h154l301 -751l39 -109h4q15 58 35 109l296 751h150l-508 -1245q-41 -100 -117.5 -157.5t-177.5 -57.5q-47 0 -92.5 15t-67.5 31zM285 1266v112h503v-112h-503z" />
<glyph unicode="&#x4f0;" horiz-adv-x="1202" d="M14 1440h158l395 -803q19 -39 39.5 -86t31.5 -75l11 -27h4q33 100 64 186l299 805h151l-471 -1213q-99 -252 -288 -252q-112 0 -238 88l68 109q98 -70 168 -70q65 0 103.5 47t76.5 148zM389 1608v176h125v-176h-125zM698 1608v176h127v-176h-127z" />
<glyph unicode="&#x4f1;" horiz-adv-x="1077" d="M39 -369l53 111q6 -5 17.5 -13t44 -21t61.5 -13q64 0 114 46t83 122l61 147l-428 1020h154l301 -751l39 -109h4q15 58 35 109l296 751h150l-508 -1245q-41 -100 -117.5 -157.5t-177.5 -57.5q-47 0 -92.5 15t-67.5 31zM319 1266v176h125v-176h-125zM629 1266v176h127v-176 h-127z" />
<glyph unicode="&#x4f2;" horiz-adv-x="1202" d="M14 1440h158l395 -803q19 -39 39.5 -86t31.5 -75l11 -27h4q33 100 64 186l299 805h151l-471 -1213q-99 -252 -288 -252q-112 0 -238 88l68 109q98 -70 168 -70q65 0 103.5 47t76.5 148zM397 1540l133 244h140l-140 -244h-133zM672 1540l143 244h158l-178 -244h-123z" />
<glyph unicode="&#x4f3;" horiz-adv-x="1077" d="M39 -369l53 111q6 -5 17.5 -13t44 -21t61.5 -13q64 0 114 46t83 122l61 147l-428 1020h154l301 -751l39 -109h4q15 58 35 109l296 751h150l-508 -1245q-41 -100 -117.5 -157.5t-177.5 -57.5q-47 0 -92.5 15t-67.5 31zM317 1198l134 244h139l-139 -244h-134zM592 1198 l143 244h158l-178 -244h-123z" />
<glyph unicode="&#x4f4;" horiz-adv-x="1265" d="M115 975v465h143v-436q0 -153 72.5 -229.5t232.5 -76.5q99 0 195 34.5t160 76.5v631h143v-1440h-143v606l4 68h-4q-74 -41 -174.5 -74t-200.5 -33q-217 0 -322.5 105t-105.5 303zM383 1608v176h125v-176h-125zM692 1608v176h127v-176h-127z" />
<glyph unicode="&#x4f5;" horiz-adv-x="1028" d="M96 702v328h137v-313q0 -46 9 -80.5t32.5 -67t72 -50t120.5 -17.5q78 0 146 26t110 58v444h139v-1030h-139v391l4 66h-4q-54 -33 -134 -56.5t-147 -23.5q-175 0 -260.5 85t-85.5 240zM279 1266v176h124v-176h-124zM588 1266v176h127v-176h-127z" />
<glyph unicode="&#x4f6;" horiz-adv-x="999" d="M207 0v1440h756v-127h-615v-1186h187v-414h-132v287h-196z" />
<glyph unicode="&#x4f7;" horiz-adv-x="833" d="M166 0v1030h614v-121h-475v-786h164v-369h-131v246h-172z" />
<glyph unicode="&#x4f8;" horiz-adv-x="1665" d="M207 0v1440h141v-582h324q189 0 307.5 -112.5t118.5 -319.5q0 -193 -116 -309.5t-298 -116.5h-477zM348 127h316q134 0 211 79.5t77 219.5q0 141 -79.5 223t-210.5 82h-314v-604zM614 1608v176h125v-176h-125zM924 1608v176h127v-176h-127zM1317 0v1440h141v-1440h-141z " />
<glyph unicode="&#x4f9;" horiz-adv-x="1366" d="M166 0v1030h139v-393h221q73 0 134.5 -16.5t114 -52.5t82.5 -100.5t30 -152.5q0 -145 -92.5 -230t-272.5 -85h-356zM305 111h205q120 0 176.5 54.5t56.5 151.5q0 98 -57 153.5t-174 55.5h-207v-415zM463 1266v176h125v-176h-125zM772 1266v176h127v-176h-127zM1061 0 v1030h139v-1030h-139z" />
<glyph unicode="&#x524;" horiz-adv-x="1566" d="M207 0v1440h1098v-1313h188v-414h-131v287h-199v1313h-815v-1313h-141z" />
<glyph unicode="&#x525;" horiz-adv-x="1243" d="M166 0v1030h862v-907h162v-369h-131v246h-170v907h-584v-907h-139z" />
<glyph unicode="&#x1e9e;" horiz-adv-x="1363" d="M195 0v1057q0 163 110.5 273t274.5 110h622v-99l-321 -456l-54 -72v-4h64q158 -6 264.5 -123t106.5 -276q0 -169 -120 -289.5t-290 -120.5h-330v127h320q119 0 196.5 82.5t77.5 200.5q0 117 -76.5 198.5t-193.5 81.5h-184v101l276 401q27 41 50 71t32 40l10 10v4 q-14 -4 -88 -4h-352q-111 0 -181.5 -73t-70.5 -181v-1059h-143z" />
<glyph unicode="&#x2009;" horiz-adv-x="24" />
<glyph unicode="&#x2013;" horiz-adv-x="1329" d="M154 522v119h1024v-119h-1024z" />
<glyph unicode="&#x2014;" horiz-adv-x="1738" d="M154 522v119h1433v-119h-1433z" />
<glyph unicode="&#x2018;" horiz-adv-x="487" d="M137 1108l117 350h111l-80 -350h-148z" />
<glyph unicode="&#x2019;" horiz-adv-x="479" d="M143 1108l80 350h148l-115 -350h-113z" />
<glyph unicode="&#x201a;" horiz-adv-x="512" d="M121 -184l80 352h143l-115 -352h-108z" />
<glyph unicode="&#x201c;" horiz-adv-x="733" d="M137 1108l117 350h111l-80 -350h-148zM383 1108l115 350h112l-80 -350h-147z" />
<glyph unicode="&#x201d;" horiz-adv-x="722" d="M143 1108l80 350h148l-115 -350h-113zM389 1108l78 350h147l-114 -350h-111z" />
<glyph unicode="&#x201e;" horiz-adv-x="755" d="M121 -184l80 352h143l-115 -352h-108zM362 -184l80 352h146l-115 -352h-111z" />
<glyph unicode="&#x2020;" horiz-adv-x="821" d="M98 911v119h240v410h137v-410h248v-119h-248v-1013h-137v1013h-240z" />
<glyph unicode="&#x2021;" horiz-adv-x="874" d="M125 367v118h240v426h-240v119h240v410h137v-410h248v-119h-248v-426h248v-118h-248v-469h-137v469h-240z" />
<glyph unicode="&#x2022;" horiz-adv-x="940" d="M178 596q0 122 86 207.5t207 85.5t206 -85.5t85 -207.5t-85 -207.5t-206 -85.5t-207 85.5t-86 207.5z" />
<glyph unicode="&#x2026;" horiz-adv-x="1431" d="M152 0v170h163v-170h-163zM633 0v170h164v-170h-164zM1114 0v170h166v-170h-166z" />
<glyph unicode="&#x2030;" horiz-adv-x="2146" d="M115 1180q0 118 83.5 201t202.5 83q120 0 204.5 -83.5t84.5 -200.5q0 -118 -84.5 -201.5t-204.5 -83.5t-203 83t-83 202zM127 0l1096 1440h147l-1096 -1440h-147zM236 1180q0 -71 47.5 -120.5t117.5 -49.5t118 49.5t48 120.5q0 70 -48 120t-118 50t-117.5 -50t-47.5 -120 zM807 258q0 119 83.5 203t203.5 84q119 0 203.5 -84.5t84.5 -202.5q0 -117 -84.5 -200t-203.5 -83q-120 0 -203.5 83t-83.5 200zM928 260q0 -71 48 -120.5t118 -49.5t118 49.5t48 120.5q0 70 -48 120t-118 50t-118 -50t-48 -120zM1495 258q0 118 84.5 202.5t202.5 84.5 q120 0 204.5 -84t84.5 -203q0 -117 -84.5 -200t-204.5 -83q-119 0 -203 83t-84 200zM1618 260q0 -71 47 -120.5t117 -49.5t119 49.5t49 120.5q0 70 -49 120t-119 50t-117 -50t-47 -120z" />
<glyph unicode="&#x2039;" horiz-adv-x="708" d="M102 578l336 421h152l-336 -421l336 -420h-152z" />
<glyph unicode="&#x203a;" horiz-adv-x="708" d="M119 158l336 420l-336 421h151l336 -421l-336 -420h-151z" />
<glyph unicode="&#x2044;" horiz-adv-x="325" d="M-240 0l689 1440h118l-686 -1440h-121z" />
<glyph unicode="&#x2070;" d="M78 1313q0 467 311 467q313 0 313 -467t-313 -467q-311 0 -311 467zM193 1313q0 -361 196 -361q197 0 197 361q0 360 -197 360q-196 0 -196 -360z" />
<glyph unicode="&#x2074;" d="M45 1100v78l434 581h111v-557h133v-102h-133v-234h-113v234h-432zM184 1202h293v279q0 24 2 56t4 51l2 20h-4q-32 -56 -67 -101l-230 -301v-4z" />
<glyph unicode="&#x2075;" d="M88 987l78 72q29 -47 83.5 -77t112.5 -30q86 0 146.5 56.5t60.5 138.5q0 83 -61 139.5t-148 56.5q-88 0 -159 -49l-70 27l51 438h447v-104h-353l-18 -160q-2 -21 -5 -40t-5 -27l-2 -9h4q66 25 125 25q133 0 221 -87t88 -210q0 -125 -91 -213t-226 -88q-83 0 -156 37.5 t-123 103.5z" />
<glyph unicode="&#x2076;" d="M88 1257q0 71 14 142.5t44.5 140.5t75 122t111 85.5t146.5 32.5q92 0 180 -43l-45 -97q-64 33 -133 33q-109 0 -179 -90.5t-89 -224.5h4q32 36 87.5 59t107.5 23q129 0 209.5 -80t80.5 -209q0 -141 -81.5 -223t-208.5 -82q-146 0 -235 114.5t-89 296.5zM207 1210 q0 -93 58.5 -175.5t146.5 -82.5q83 0 129.5 56.5t46.5 142.5q0 88 -52 141.5t-135 53.5q-76 0 -135 -43.5t-59 -92.5z" />
<glyph unicode="&#x2077;" d="M104 1655v104h594v-78l-432 -815h-125l357 672l67 117v4q-39 -4 -102 -4h-359z" />
<glyph unicode="&#x2078;" d="M78 1120q0 46 17 88t45 72t48 47.5t41 30.5q-106 75 -106 190q0 108 82 170t194 62q71 0 133 -25.5t104 -81.5t42 -131q0 -120 -117 -237q133 -81 133 -203q0 -108 -89 -182t-216 -74q-80 0 -149 30t-115.5 94t-46.5 150zM190 1124q0 -79 59.5 -127.5t139.5 -48.5 q74 0 132.5 45t58.5 111q0 32 -14.5 58.5t-46.5 48t-58.5 35.5t-76 35.5t-73.5 33.5q-121 -86 -121 -191zM236 1544q0 -22 6 -41t22 -36t28 -28.5t40.5 -26.5t42.5 -21.5t51 -22.5t49 -22q92 99 92 192q0 65 -50.5 101t-119.5 36q-68 0 -114.5 -33.5t-46.5 -97.5z" />
<glyph unicode="&#x2079;" d="M78 1475q0 139 82.5 222t208.5 83q145 0 234 -116t89 -298q0 -71 -13.5 -141.5t-44.5 -139.5t-75.5 -121.5t-112 -85t-147.5 -32.5q-42 0 -93 12t-85 31l43 96q64 -33 133 -33q109 0 179.5 90.5t90.5 223.5h-4q-32 -35 -88 -58.5t-108 -23.5q-128 0 -208.5 81t-80.5 210z M190 1473q0 -86 52 -140.5t135 -54.5q77 0 135.5 43t58.5 94q0 58 -24 116.5t-72 100t-106 41.5q-84 0 -131.5 -57t-47.5 -143z" />
<glyph unicode="&#x2080;" d="M78 125q0 467 311 467q313 0 313 -467t-313 -467q-311 0 -311 467zM193 125q0 -361 196 -361q197 0 197 361q0 360 -197 360q-196 0 -196 -360z" />
<glyph unicode="&#x2081;" d="M158 369l202 202h107v-790h188v-103h-495v103h194v592l2 49h-2q-8 -16 -43 -49l-82 -80z" />
<glyph unicode="&#x2082;" d="M98 -258q0 69 24.5 127t64 98.5t86.5 75.5t94.5 66t87 62t64 71t24.5 86q0 65 -48 111t-120 46q-100 0 -185 -100l-71 72q38 57 109.5 96t148.5 39q127 0 203.5 -74t76.5 -186q0 -61 -23.5 -113t-61.5 -88.5t-84 -69t-92.5 -62t-85 -60t-64 -71t-27.5 -87.5h455v-103 h-570q-6 34 -6 64z" />
<glyph unicode="&#x2083;" d="M78 -207l72 78q31 -44 90 -75.5t129 -31.5q73 0 131.5 53t58.5 130q0 79 -61 125.5t-140 46.5h-67l-29 61l203 238l51 51v4q-37 -6 -76 -6h-313v104h537v-75l-244 -285q47 -5 90 -21.5t81.5 -47t61.5 -81t23 -114.5q0 -119 -88.5 -204t-216.5 -85q-84 0 -164 34.5 t-129 100.5z" />
<glyph unicode="&#x2084;" d="M45 -10l434 581h111v-557h133v-102h-133v-234h-113v234h-432v78zM184 14h293v279q0 24 2 56t4 51l2 20h-4q-32 -56 -67 -101l-230 -301v-4z" />
<glyph unicode="&#x2085;" d="M88 -201l78 72q29 -47 83.5 -77t112.5 -30q86 0 146.5 56.5t60.5 138.5q0 83 -61 140t-148 57q-86 0 -159 -50l-70 27l51 438h447v-104h-353l-18 -160q-2 -21 -5 -40t-5 -27l-2 -9h4q66 25 125 25q133 0 221 -87t88 -210q0 -125 -91 -213t-226 -88q-83 0 -156 37.5 t-123 103.5z" />
<glyph unicode="&#x2086;" d="M88 70q0 71 14 142.5t44.5 140t75 121.5t111 85.5t146.5 32.5q92 0 180 -43l-45 -96q-62 32 -133 32q-109 0 -179 -90.5t-89 -224.5h4q32 36 87.5 59t107.5 23q129 0 209.5 -80t80.5 -209q0 -141 -81.5 -223t-208.5 -82q-146 0 -235 115t-89 297zM207 23q0 -93 58.5 -176 t146.5 -83q83 0 129.5 56.5t46.5 142.5q0 88 -52 141.5t-135 53.5q-76 0 -135 -43t-59 -92z" />
<glyph unicode="&#x2087;" d="M104 467v104h594v-77l-432 -816h-125l357 672l67 117v4q-39 -4 -102 -4h-359z" />
<glyph unicode="&#x2088;" d="M78 -66q0 46 17 88t45 72t48 47.5t41 30.5q-106 75 -106 190q0 108 82 170t194 62q71 0 133 -25.5t104 -81.5t42 -131q0 -120 -117 -237q133 -81 133 -203q0 -108 -89 -182t-216 -74q-80 0 -149 30t-115.5 94t-46.5 150zM190 -61q0 -80 59.5 -128.5t139.5 -48.5 q74 0 132.5 45t58.5 111q0 32 -14.5 58.5t-46.5 48t-58.5 35.5t-76 35.5t-73.5 33.5q-121 -86 -121 -190zM236 358q0 -22 6 -41t22 -36t28 -28.5t40.5 -26.5t42.5 -21.5t51 -22.5t49 -22q92 99 92 192q0 65 -50.5 101t-119.5 36q-68 0 -114.5 -33.5t-46.5 -97.5z" />
<glyph unicode="&#x2089;" d="M78 287q0 139 82.5 222t208.5 83q145 0 234 -116t89 -298q0 -71 -13.5 -141.5t-44.5 -139.5t-75.5 -121.5t-112 -85t-147.5 -32.5q-42 0 -93 12t-85 31l43 96q64 -33 133 -33q109 0 179.5 90.5t90.5 223.5h-4q-32 -35 -88 -58.5t-108 -23.5q-128 0 -208.5 81t-80.5 210z M190 285q0 -86 52 -140.5t135 -54.5q77 0 135.5 43t58.5 94q0 58 -24 116.5t-72 100t-106 41.5q-84 0 -131.5 -57t-47.5 -143z" />
<glyph unicode="&#x20ac;" horiz-adv-x="1163" d="M55 545v104h111q-5 27 -4.5 78.5t6.5 87.5h-113v105h131q61 241 249.5 392.5t438.5 151.5q99 0 193 -24l-33 -133q-74 22 -162 22q-195 0 -338 -111.5t-196 -297.5h627l-23 -105h-627q-12 -77 -2 -166h598l-18 -104h-557q46 -194 192.5 -313t345.5 -119q104 0 183 26 l33 -133q-98 -31 -216 -31q-260 0 -448.5 158.5t-243.5 411.5h-127z" />
<glyph unicode="&#x2116;" horiz-adv-x="2121" d="M193 0v1440h139l735 -1037q22 -32 51 -80.5t48 -80.5l18 -33h4q-10 118 -10 194v1037h141v-1440h-137l-736 1036q-22 32 -51.5 81t-48.5 81l-18 33h-4q12 -119 12 -195v-1036h-143zM1475 973q0 113 78.5 190.5t191.5 77.5q114 0 192 -77t78 -191q0 -115 -78 -194 t-192 -79q-113 0 -191.5 79t-78.5 194zM1493 453v108h502v-108h-502zM1589 973q0 -69 45.5 -116.5t110.5 -47.5q66 0 111 47.5t45 116.5q0 67 -45 112t-111 45q-65 0 -110.5 -45t-45.5 -112z" />
<glyph unicode="&#x2122;" horiz-adv-x="2007" d="M131 1333v107h756v-107h-322v-790h-114v790h-320zM963 543l71 897h105l237 -514l29 -84h4q11 45 27 84l237 514h105l71 -897h-114l-49 608l2 59h-5l-229 -499h-96l-230 499h-4l2 -59l-49 -608h-114z" />
<glyph unicode="&#x2212;" horiz-adv-x="1163" d="M63 522v119h1037v-119h-1037z" />
<glyph unicode="&#x221e;" horiz-adv-x="962" d="M127 715q0 147 103.5 249.5t250.5 102.5q148 0 251.5 -102.5t103.5 -249.5t-104 -251t-251 -104q-146 0 -250 104.5t-104 250.5z" />
<glyph unicode="&#x2248;" horiz-adv-x="1163" d="M80 391q60 60 137 100.5t162 40.5q65 0 124 -22.5t96.5 -49t87 -49t97.5 -22.5q62 0 124.5 33t107.5 82l67 -90q-57 -59 -135.5 -100.5t-163.5 -41.5q-65 0 -124 22.5t-96.5 49.5t-87 49.5t-97.5 22.5q-62 0 -124 -33t-108 -80zM80 748q60 60 137 100.5t162 40.5 q65 0 124 -22.5t96.5 -49.5t87 -49.5t97.5 -22.5q62 0 124.5 33t107.5 82l67 -90q-57 -59 -135.5 -100t-163.5 -41q-65 0 -124 22.5t-96.5 49t-87 49t-97.5 22.5q-61 0 -123.5 -33.5t-108.5 -81.5z" />
<glyph unicode="&#x2260;" horiz-adv-x="1163" d="M102 344v119h326l176 237h-502v119h586l174 238l86 -60l-133 -178h242v-119h-324l-176 -237h500v-119h-582l-172 -233l-84 59l127 174h-244z" />
<glyph unicode="&#x2264;" horiz-adv-x="1163" d="M104 530v103l926 414v-138l-754 -325v-4l754 -326v-137zM106 -213h924v-119h-924v119z" />
<glyph unicode="&#x2265;" horiz-adv-x="1163" d="M131 -213h924v-119h-924v119zM133 117v137l752 326v4l-752 325v138l926 -414v-103z" />
<glyph unicode="&#xe000;" horiz-adv-x="1034" d="M0 0v1034h1034v-1034h-1034z" />
<glyph unicode="&#xf6c3;" horiz-adv-x="686" d="M260 -414q39 95 39 166q0 54 -23 119h134q12 -55 12 -100q0 -82 -47 -185h-115z" />
<glyph unicode="&#xf6d4;" horiz-adv-x="624" d="M41 1749v35h121v-31q0 -66 43.5 -103.5t105.5 -37.5q61 0 106.5 38t45.5 105v29h119v-35q0 -110 -80.5 -176t-190.5 -66t-190 65.5t-80 176.5z" />
<glyph unicode="&#xf8ff;" horiz-adv-x="2314" d="M86 449v569l258 145v310l543 290l274 -145l271 145l542 -290v-310l254 -145v-569l-254 -148v-311l-542 -289l-271 145l-274 -145l-543 289v311zM193 477l233 -131v-285l487 -258l248 136l242 -136l487 258v285l234 131v510l-234 135v279l-487 258l-242 -131l-248 131 l-487 -258v-279l-233 -135v-510zM293 502v461l203 118v252l440 234l225 -121l219 121l439 -234v-252l204 -118v-461l-204 -123v-248l-439 -233l-219 118l-225 -118l-440 233v248zM782 1128h133v-942h89v467h466v82h-466v393h407q34 0 46.5 -13t12.5 -46v-86h86v111 q0 61 -26.5 88.5t-91.5 27.5h-656v-82z" />
<glyph horiz-adv-x="1163" d="M86 721q0 129 15.5 237t52 203t92.5 161t141.5 104t194.5 38q110 0 195.5 -38t141.5 -104t92.5 -161t52 -203t15.5 -237t-15.5 -237.5t-52 -204.5t-92.5 -162t-141.5 -104t-195.5 -38q-109 0 -194.5 38t-141.5 104.5t-92.5 162t-52 204t-15.5 237.5zM233 721 q0 -109 10 -197t34.5 -167t64 -132.5t100 -84.5t140.5 -31t141.5 31t100.5 84.5t63.5 132.5t34.5 167t10 197q0 108 -10 195.5t-34.5 166t-63.5 131.5t-100.5 84t-141.5 31t-141 -31t-100 -84t-63.5 -131.5t-34.5 -166.5t-10 -195z" />
<glyph horiz-adv-x="1163" d="M213 0v127h324v1057l2 80h-4q-15 -29 -72 -86l-154 -152l-90 90l326 324h131v-1313h317v-127h-780z" />
<glyph horiz-adv-x="1163" d="M121 92q0 103 41 191.5t106 153t143.5 123t157.5 112t144 108.5t106 124.5t41 148.5q0 120 -83 198t-216 78q-98 0 -183 -54t-140 -142l-105 71q63 114 179 187t257 73q199 0 319 -115t120 -288q0 -77 -25 -146t-67 -122.5t-97 -102.5t-115 -91.5t-121 -83t-115.5 -83.5 t-97 -88t-68 -100.5t-26.5 -116.5h754v-127h-901q-8 66 -8 92z" />
<glyph horiz-adv-x="1163" d="M104 172l89 109q65 -72 163.5 -120t204.5 -48q133 0 230.5 87.5t97.5 221.5q0 97 -52 168.5t-132.5 105t-176.5 33.5h-100l-35 84l361 422l75 80v4q-40 -6 -116 -6h-541v127h842v-94l-428 -496q58 -3 116 -17t119 -46.5t107.5 -79t76 -119.5t29.5 -162q0 -122 -61 -225 t-170 -164.5t-242 -61.5q-126 0 -247 52.5t-210 144.5z" />
<glyph horiz-adv-x="1163" d="M43 399v93l707 948h153v-918h205v-123h-205v-399h-141v399h-719zM213 522h549v604q0 27 2 61.5t4 55.5l2 21h-4q-35 -60 -72 -111l-481 -627v-4z" />
<glyph horiz-adv-x="1163" d="M121 178l92 101q48 -70 130.5 -118t193.5 -48q151 0 254.5 95t103.5 241q0 147 -104.5 243t-260.5 96q-66 0 -137 -21t-125 -58l-90 32l78 699h696v-127h-571l-43 -369l-12 -82h4q33 21 95.5 38.5t121.5 17.5q214 0 354.5 -136.5t140.5 -332.5q0 -131 -65.5 -240 t-180.5 -171.5t-253 -62.5q-126 0 -238.5 53.5t-183.5 149.5z" />
<glyph horiz-adv-x="1163" d="M104 649q0 112 22.5 224t72.5 219t121.5 189.5t179 132.5t235.5 50q148 0 266 -59l-53 -125q-84 49 -213 49q-107 0 -195 -50t-145 -133.5t-91 -183.5t-44 -208h4q52 76 152 122t213 46q197 0 321.5 -130.5t124.5 -340.5q0 -214 -128.5 -345t-321.5 -131q-154 0 -273 88 t-183.5 241t-64.5 345zM258 532q0 -46 15 -100.5t46 -112t74 -104t106 -76.5t134 -30q134 0 216.5 97.5t82.5 248.5q0 155 -89 247.5t-237 92.5q-137 0 -242.5 -75t-105.5 -188z" />
<glyph horiz-adv-x="1163" d="M131 1313v127h936v-99l-668 -1341h-147l582 1180q17 35 36.5 68t29.5 49l11 16v4q-34 -4 -106 -4h-674z" />
<glyph horiz-adv-x="1163" d="M92 406q0 66 21 128t48.5 104.5t65.5 81t62 56.5t47 33q-174 115 -174 287q0 74 28 139.5t80.5 117t137 81.5t190.5 30q199 0 319.5 -103t120.5 -269q0 -68 -22 -136t-56 -120.5t-59.5 -84t-48.5 -53.5q63 -37 106 -76.5t71 -99t28 -131.5q0 -172 -135 -294t-342 -122 q-130 0 -240.5 52t-179 152t-68.5 227zM240 416q0 -134 102.5 -222t235.5 -88q132 0 232.5 81t100.5 202q0 47 -21 88t-50.5 69t-81 57t-94 47t-108 46t-105.5 47q-22 -14 -41.5 -28.5t-53 -46.5t-57 -65.5t-41.5 -83.5t-18 -103zM305 1098q0 -46 19.5 -85.5t46 -66.5 t76.5 -56.5t86.5 -45.5t102.5 -44.5t99 -43.5q160 160 160 325q0 116 -83 184t-216 68q-134 0 -212.5 -67.5t-78.5 -167.5z" />
<glyph horiz-adv-x="1163" d="M86 985q0 217 129.5 348t323.5 131q153 0 271.5 -87.5t182.5 -241.5t64 -347q0 -92 -16.5 -185.5t-48.5 -185t-84.5 -171t-120.5 -140.5t-161.5 -96t-201.5 -35q-141 0 -264 60l55 125q92 -51 209 -51q108 0 197 50t146 134t91 183.5t45 209.5h-4q-54 -76 -153.5 -122 t-210.5 -46q-198 0 -323.5 130.5t-125.5 336.5zM229 985q0 -154 89 -247t237 -93q142 0 246 77.5t104 168.5q0 99 -45 198.5t-131 169.5t-188 70q-145 0 -228.5 -95.5t-83.5 -248.5z" />
<glyph horiz-adv-x="884" d="M152 651v125h581v-125h-581z" />
<glyph horiz-adv-x="569" d="M119 752q0 425 229 804h131q-231 -385 -231 -806q0 -474 231 -883h-131q-108 188 -168.5 417.5t-60.5 467.5z" />
<glyph horiz-adv-x="569" d="M90 -133q232 416 232 883q0 411 -232 806h129q232 -379 232 -804q0 -239 -61.5 -468t-170.5 -417h-129z" />
<glyph horiz-adv-x="577" d="M188 -133v1689h279v-114h-150v-1460h150v-115h-279z" />
<glyph horiz-adv-x="577" d="M111 -18h149v1460h-149v114h278v-1689h-278v115z" />
<glyph horiz-adv-x="696" d="M90 659v127q83 17 128.5 79t45.5 157v168q0 96 24.5 167.5t58.5 108t80 58.5t78 27t64 5h31v-114h-18q-20 0 -39.5 -3.5t-48.5 -18.5t-49.5 -40.5t-36 -75.5t-15.5 -118v-201q0 -87 -43.5 -157t-120.5 -103v-4q75 -29 119.5 -95.5t44.5 -164.5v-225q0 -68 15.5 -118 t36 -75.5t49.5 -40.5t48.5 -18.5t39.5 -3.5h18v-115q-13 -2 -31 -2q-32 0 -64 5t-78 27t-80 59t-58.5 109t-24.5 168v195q0 92 -44.5 154t-129.5 79z" />
<glyph horiz-adv-x="696" d="M96 -20h19q20 0 39 3.5t48 18.5t49.5 40.5t36 76t15.5 117.5v225q0 93 42.5 162t121.5 98v4q-71 28 -117.5 97.5t-46.5 162.5v201q0 67 -15.5 117.5t-36 76t-49.5 40.5t-48 18.5t-39 3.5h-19v114h31q32 0 64 -5t78 -27t80 -58.5t58.5 -108t24.5 -167.5v-168 q0 -93 44.5 -157t129.5 -79v-127q-83 -13 -128.5 -77.5t-45.5 -155.5v-195q0 -96 -24.5 -168t-58.5 -109t-80 -59t-78 -27t-64 -5l-31 2v115z" />
<glyph horiz-adv-x="1593" d="M123 717q0 205 97.5 378.5t265 274t364.5 100.5q108 0 195 -21.5t143.5 -58t94 -87t53.5 -105.5t16 -117v-645h145v-114h-551q-174 0 -290.5 115.5t-116.5 277.5t116 277.5t291 115.5h266q-3 104 -92 173t-260 69q-123 0 -234 -51t-190 -136.5t-125.5 -202t-46.5 -243.5 q0 -172 77.5 -315.5t217 -227.5t311.5 -84v-123q-209 0 -381 100t-269 271.5t-97 378.5zM682 717q0 -118 79 -199.5t197 -81.5h254v563h-249q-120 0 -200.5 -82.5t-80.5 -199.5z" />
<glyph horiz-adv-x="1077" d="M102 700l336 422h152l-336 -422l336 -419h-152zM471 700l336 422h151l-335 -422l335 -419h-151z" />
<glyph horiz-adv-x="1077" d="M119 281l336 419l-336 422h151l336 -422l-336 -419h-151zM487 281l336 419l-336 422h152l336 -422l-336 -419h-152z" />
<glyph horiz-adv-x="710" d="M102 700l336 422h152l-336 -422l336 -419h-152z" />
<glyph horiz-adv-x="710" d="M119 281l336 419l-336 422h151l336 -422l-336 -419h-151z" />
<glyph horiz-adv-x="1327" d="M152 645v119h1024v-119h-1024z" />
<glyph horiz-adv-x="1736" d="M152 645v119h1433v-119h-1433z" />
<glyph horiz-adv-x="462" d="M152 627v164h157v-164h-157z" />
<glyph horiz-adv-x="921" d="M94 334q0 69 20 128t52.5 101t72 80t78.5 73t71.5 71t52.5 83.5t20 102.5v88h137v-92q0 -66 -19.5 -122.5t-51 -97.5t-69.5 -78t-76 -72t-69.5 -71.5t-51 -84.5t-19.5 -103q0 -100 75.5 -168t192.5 -68q131 0 246 86l78 -102q-57 -51 -147 -84t-183 -33q-176 0 -293 102 t-117 261zM449 1276v162h161v-162h-161z" />
<glyph horiz-adv-x="532" d="M184 1276v162h160v-162h-160zM195 -2l6 1063h131l6 -1063h-143z" />
<glyph horiz-adv-x="935" d="M176 719q0 121 86 207t207 86t206 -85.5t85 -207.5t-85 -207.5t-206 -85.5t-207 86t-86 207z" />
<glyph horiz-adv-x="1196" d="M117 553q0 112 30 214.5t87.5 186t151.5 133.5t212 50t212 -50t151.5 -133.5t87.5 -186t30 -214.5t-30 -213.5t-87 -184t-151 -131.5t-213 -49q-95 0 -175.5 32.5t-136 88t-94.5 129.5t-57 157t-18 171zM260 557q0 -87 21 -167t61.5 -145t106.5 -104t149 -39t149 39 t106.5 103.5t61.5 144t21 166.5t-21 167.5t-61.5 146t-106.5 104.5t-149 39t-149 -39t-106.5 -104.5t-61.5 -145t-21 -166.5z" />
<glyph horiz-adv-x="958" d="M104 883l369 229h129v-989h285v-123h-742v123h320v737l2 109h-4q-33 -27 -80 -56l-213 -129z" />
<glyph horiz-adv-x="1095" d="M115 946q65 79 179 135t238 56q96 0 174 -29t126.5 -77.5t75 -109t26.5 -126.5q0 -89 -35 -170.5t-111 -164t-180 -162t-256 -175.5v-4q41 4 117 4h518v-123h-856v100q172 115 285 199.5t203 170t131 160.5t41 148q0 115 -78 173.5t-197 58.5q-168 0 -321 -160z" />
<glyph horiz-adv-x="1085" d="M82 -78l84 96q57 -63 143 -108t195 -45q134 0 230.5 80t96.5 211q0 94 -53.5 160.5t-133 96t-173.5 29.5h-100l-35 84l352 396q16 18 34 35t28 25l10 7v4q-41 -4 -117 -4h-475v123h786v-86l-430 -469q48 -2 95.5 -11.5t100 -27.5t97 -49t81 -72.5t57 -102t20.5 -132.5 q0 -187 -134 -305.5t-337 -118.5q-118 0 -230 47.5t-192 136.5z" />
<glyph horiz-adv-x="1198" d="M70 76v92l675 944h152v-913h221v-123h-221v-314h-139v314h-688zM238 199h520v604q0 27 2 61.5t4 55.5l2 20h-4q-35 -70 -72 -121z" />
<glyph horiz-adv-x="1095" d="M98 -57l86 90q52 -69 138.5 -110.5t177.5 -41.5q69 0 132 20.5t113.5 59t80.5 99.5t30 135q0 97 -51 169t-129 106t-170 34q-67 0 -132.5 -18t-97.5 -36l-32 -18l-86 31l75 649h674v-123h-553l-41 -338l-12 -76h4q11 6 30 14t77.5 22t115.5 14q128 0 233.5 -48 t171.5 -146.5t66 -229.5q0 -202 -140 -323.5t-351 -121.5q-119 0 -229.5 48.5t-180.5 138.5z" />
<glyph horiz-adv-x="1204" d="M127 594q0 107 22 213.5t72 209.5t121 181.5t177.5 127t234.5 48.5q142 0 264 -55l-53 -117q-92 47 -209 47q-87 0 -162 -32t-129 -85.5t-95 -125.5t-63.5 -150.5t-30.5 -161.5h5q53 78 152 122t214 44q196 0 321.5 -120.5t125.5 -311.5q0 -137 -61 -241t-162.5 -158 t-227.5 -54q-153 0 -271 80t-181.5 220.5t-63.5 318.5zM276 508q0 -67 27 -138.5t73 -131t116 -98t149 -38.5q145 0 227 90t82 236q0 140 -89 225.5t-236 85.5q-140 0 -244.5 -73t-104.5 -158z" />
<glyph horiz-adv-x="1038" d="M82 989v123h907v-92l-637 -1258h-147l555 1104q16 33 34 63.5t28 44.5l9 15v4q-34 -4 -106 -4h-643z" />
<glyph horiz-adv-x="1196" d="M121 387q0 59 20.5 115t48.5 95t66 74.5t62 53t47 31.5q-179 108 -179 276q0 141 112 241.5t312 100.5q194 0 312 -96.5t118 -253.5q0 -185 -182 -367q99 -56 153 -124t54 -166q0 -161 -134 -276.5t-333 -115.5q-96 0 -182.5 29t-152 81t-104 130.5t-38.5 171.5zM262 393 q0 -131 100 -212t236 -81q128 0 226 76t98 191q0 43 -20 80t-48.5 62.5t-78 53t-90 44.5t-104.5 43t-102 44q-217 -132 -217 -301zM326 1030q0 -32 10.5 -60.5t26 -50t43.5 -43.5t53 -37t64.5 -33.5t68.5 -30t75 -30t74 -30.5q160 139 160 303q0 107 -81.5 169t-211.5 62 q-129 0 -205.5 -62t-76.5 -157z" />
<glyph horiz-adv-x="1169" d="M96 684q0 137 61 241t162.5 158t227.5 54q153 0 271 -80t181.5 -220.5t63.5 -318.5q0 -107 -22 -213.5t-72 -209.5t-121 -181.5t-177.5 -127t-234.5 -48.5q-148 0 -264 55l53 117q38 -21 97.5 -33t111.5 -12q108 0 197 48t146 128t91.5 176t44.5 201h-4 q-53 -78 -153 -122t-213 -44q-196 0 -321.5 120.5t-125.5 311.5zM240 686q0 -141 89 -227t236 -86q141 0 244.5 72.5t103.5 158.5q0 67 -26.5 138.5t-72.5 132t-116 99t-149 38.5q-144 0 -226.5 -90.5t-82.5 -235.5z" />
<glyph horiz-adv-x="1163" d="M100 553q0 112 30 214.5t88 186t152 133.5t212 50t212 -50t151.5 -133.5t87.5 -186t30 -214.5t-30 -213.5t-87 -184t-151 -131.5t-213 -49t-213 49t-151.5 132t-87.5 184.5t-30 212.5zM244 557q0 -87 21 -167t61.5 -145t106.5 -104t149 -39t149 39t106.5 103.5t61.5 144 t21 166.5t-21 167.5t-61.5 146t-106.5 104.5t-149 39t-149 -39t-106.5 -104.5t-61.5 -145t-21 -166.5z" />
<glyph horiz-adv-x="1163" d="M205 883l368 229h129v-989h285v-123h-741v123h319v737l2 109h-4q-33 -27 -80 -56l-213 -129z" />
<glyph horiz-adv-x="1163" d="M147 946q65 78 179.5 134.5t238.5 56.5q96 0 174 -29t126.5 -77.5t75 -109t26.5 -126.5q0 -89 -35 -170.5t-111 -164t-180 -162t-256 -175.5v-4q41 4 117 4h518v-123h-856v100q172 115 285 200t202.5 170t130.5 160t41 148q0 115 -77.5 173.5t-196.5 58.5 q-87 0 -170.5 -44t-151.5 -116z" />
<glyph horiz-adv-x="1163" d="M121 -78l84 96q57 -63 143 -108t195 -45q134 0 230.5 80t96.5 211q0 94 -53.5 160.5t-133 96t-173.5 29.5h-100l-35 84l352 396q16 18 34 35t28 25l10 7v4q-41 -4 -117 -4h-475v123h786v-86l-430 -469q48 -2 95.5 -11.5t100 -27.5t97 -49t81 -72.5t57 -102t20.5 -132.5 q0 -187 -134 -305.5t-337 -118.5q-118 0 -230 47.5t-192 136.5z" />
<glyph horiz-adv-x="1163" d="M53 76v92l676 944h152v-913h221v-123h-221v-314h-140v314h-688zM221 199h520v604q0 27 2.5 61.5t4.5 55.5l2 20h-5q-34 -70 -71 -121z" />
<glyph horiz-adv-x="1163" d="M131 -57l86 90q53 -69 138.5 -110.5t176.5 -41.5q69 0 132 20.5t113.5 59t81 99.5t30.5 135q0 97 -51 169t-129 106t-170 34q-67 0 -132.5 -18t-98.5 -36l-32 -18l-86 31l76 649h674v-123h-553l-41 -338l-12 -76h4q11 6 30 14t77.5 22t115.5 14q128 0 233.5 -48 t171.5 -146.5t66 -229.5q0 -202 -140 -323.5t-351 -121.5q-119 0 -229.5 48.5t-180.5 138.5z" />
<glyph horiz-adv-x="1163" d="M109 594q0 107 22 213.5t71.5 209.5t120.5 181.5t177.5 127t234.5 48.5q142 0 264 -55l-53 -117q-92 47 -209 47q-87 0 -162 -32t-129 -85.5t-94.5 -125.5t-63 -150.5t-30.5 -161.5h4q53 78 152.5 122t214.5 44q196 0 321 -120.5t125 -311.5q0 -137 -60.5 -241t-162 -158 t-227.5 -54q-153 0 -271 80t-181.5 220.5t-63.5 318.5zM258 508q0 -67 27 -138.5t73 -131t116 -98t149 -38.5q145 0 227 90t82 236q0 140 -89.5 225.5t-236.5 85.5q-140 0 -244 -73t-104 -158z" />
<glyph horiz-adv-x="1163" d="M143 989v123h908v-92l-637 -1258h-148l555 1104q16 33 34 63.5t28 44.5l10 15v4q-35 -4 -107 -4h-643z" />
<glyph horiz-adv-x="1163" d="M106 387q0 59 20.5 115t48.5 95t66 74.5t62 53t47 31.5q-178 108 -178 276q0 141 112 241.5t312 100.5q194 0 312 -96.5t118 -253.5q0 -185 -182 -367q99 -56 153 -124t54 -166q0 -161 -134 -276.5t-333 -115.5q-129 0 -237 48.5t-174.5 144t-66.5 219.5zM248 393 q0 -131 100 -212t236 -81q128 0 225.5 76t97.5 191q0 43 -20 80t-48.5 62.5t-78 53t-89.5 44.5t-104 43t-102 44q-217 -132 -217 -301zM311 1030q0 -32 10.5 -60.5t26 -50t43.5 -43.5t53.5 -37t65 -33.5t68.5 -30t75 -30t74 -30.5q160 139 160 303q0 107 -81.5 169 t-211.5 62q-129 0 -206 -62t-77 -157z" />
<glyph horiz-adv-x="1163" d="M94 684q0 137 61 241t162.5 158t227.5 54q153 0 271 -80t181.5 -220.5t63.5 -318.5q0 -107 -22 -213.5t-72 -209.5t-121 -181.5t-177.5 -127t-234.5 -48.5q-148 0 -264 55l53 117q38 -21 97.5 -33t111.5 -12q108 0 197 48t146 128t91.5 176t44.5 201h-4 q-53 -78 -153 -122t-213 -44q-196 0 -321.5 120.5t-125.5 311.5zM238 686q0 -141 89 -227t236 -86q141 0 244.5 72.5t103.5 158.5q0 67 -26.5 138.5t-72.5 132t-116 99t-149 38.5q-144 0 -226.5 -90.5t-82.5 -235.5z" />
<glyph horiz-adv-x="1036" d="M94 174l86 100q57 -71 154 -120.5t198 -49.5q106 0 178 53t72 146q0 53 -35 94.5t-90.5 70t-123 54.5t-135 56.5t-123 68t-90.5 97t-35 135.5q0 139 93.5 222t239.5 99v174h117v-174q190 -18 297 -125l-70 -110q-51 51 -129 79.5t-157 28.5q-67 0 -120.5 -18t-89.5 -63 t-36 -111q0 -54 35 -95.5t90.5 -69t123.5 -53.5t135.5 -56t123 -68t90.5 -98t35 -138q0 -133 -97 -222.5t-251 -100.5v-191h-115v191q-106 12 -206 64t-165 130z" />
<glyph horiz-adv-x="1132" d="M100 610q0 198 123.5 333.5t317.5 160.5v176h116v-172q97 -8 189 -48.5t158 -109.5l-70 -108q-50 63 -135.5 101t-173.5 38q-163 0 -273 -104t-110 -265q0 -162 110 -266t273 -104q88 0 169.5 36.5t139.5 102.5l67 -109q-57 -67 -152.5 -110t-191.5 -49v-166h-116v170 q-194 25 -317.5 159.5t-123.5 333.5z" />
<glyph horiz-adv-x="1206" d="M111 0v123h131v379h-92v106h92v217q0 161 123 269t311 108q195 0 336 -106l-78 -107q-49 38 -120.5 61t-137.5 23q-135 0 -215 -74.5t-80 -181.5v-209h473v-106h-473v-379h694v-123h-964z" />
<glyph horiz-adv-x="1232" d="M113 1182h161l252 -428q19 -34 41 -76.5t35 -67.5l12 -26h4q46 94 89 170l254 428h161l-307 -504h213v-105h-274l-66 -108v-55h340v-105h-340v-305h-141v305h-342v105h342v55l-66 108h-276v105h215z" />
<glyph horiz-adv-x="1015" d="M-45 -127q66 -10 129 -10q29 0 56 4.5t62 21t61.5 43.5t47.5 77.5t27 117.5l45 524h-182v117h192l21 227q6 70 25 127.5t44.5 96t59.5 68t67 46t70 27t65.5 13.5t57.5 3q36 0 78 -4t66 -8l24 -4v-123q-92 14 -166 14q-29 0 -55.5 -4.5t-61.5 -21t-61 -43.5t-47 -77 t-27 -116l-23 -221h258v-117h-266l-47 -530q-9 -97 -41.5 -170.5t-73.5 -112.5t-95 -63t-94.5 -30.5t-82.5 -6.5q-33 0 -66 3t-50 6l-17 3v123z" />
<glyph horiz-adv-x="1239" d="M111 416v100h133q-9 62 -2 139h-131v101h147q23 92 72.5 171t125.5 141.5t185.5 98t241.5 35.5q100 0 192 -24l-33 -121q-72 20 -161 20q-188 0 -308.5 -89.5t-164.5 -231.5h569l-23 -101h-571q-12 -69 2 -139h547l-21 -100h-497q46 -139 166.5 -226.5t304.5 -87.5 q93 0 178 27l31 -123q-98 -31 -211 -31q-246 0 -406 124t-215 317h-151z" />
<glyph d="M78 995q0 467 311 467q313 0 313 -467t-313 -467q-311 0 -311 467zM193 995q0 -360 196 -360q197 0 197 360q0 361 -197 361q-196 0 -196 -361z" />
<glyph d="M158 1239l202 203h107v-791h188v-102h-495v102h194v592l2 49h-2q-8 -16 -43 -49l-82 -80z" />
<glyph d="M98 612q0 69 24.5 127t64 98.5t86.5 75.5t94.5 66t87 62t64 71t24.5 86q0 66 -48 112t-120 46q-99 0 -185 -101l-71 72q38 57 109.5 96t148.5 39q127 0 203.5 -74t76.5 -186q0 -61 -23.5 -113t-61.5 -88.5t-84 -69t-92.5 -62t-85 -60t-64 -71t-27.5 -87.5h455v-102h-570 q-6 35 -6 63z" />
<glyph d="M78 664l72 77q30 -44 89.5 -75t129.5 -31q73 0 131.5 52.5t58.5 129.5q0 79 -61 125.5t-140 46.5h-67l-29 62l203 237l51 51v4q-37 -6 -76 -6h-313v105h537v-76l-244 -285q47 -5 90 -21.5t81.5 -47t61.5 -81t23 -114.5q0 -119 -88.5 -204t-216.5 -85q-84 0 -164 35 t-129 101z" />
<glyph d="M45 782v78l434 582h111v-557h133v-103h-133v-233h-113v233h-432zM184 885h293v278q0 24 2 56t4 51l2 20h-4q-32 -55 -67 -100l-230 -301v-4z" />
<glyph d="M88 670l78 71q29 -47 83.5 -76.5t112.5 -29.5q86 0 146.5 56t60.5 138q0 83 -61 140t-148 57q-88 0 -159 -49l-70 27l51 438h447v-105h-353l-18 -159q-2 -21 -5 -40t-5 -28l-2 -8h4q63 24 125 24q133 0 221 -87t88 -210q0 -125 -91 -213t-226 -88q-83 0 -156 37.5 t-123 104.5z" />
<glyph d="M88 940q0 71 14 142.5t44.5 140t75 121.5t111 85.5t146.5 32.5q92 0 180 -43l-45 -96q-64 33 -133 33q-109 0 -179 -91t-89 -225h4q32 36 87.5 59t107.5 23q129 0 209.5 -79.5t80.5 -208.5q0 -141 -82 -223.5t-208 -82.5q-146 0 -235 115t-89 297zM207 893 q0 -93 58.5 -175.5t146.5 -82.5q83 0 129.5 56.5t46.5 142.5q0 87 -51.5 140.5t-135.5 53.5q-76 0 -135 -43t-59 -92z" />
<glyph d="M104 1337v105h594v-78l-432 -815h-125l357 672l67 116v4q-39 -4 -102 -4h-359z" />
<glyph d="M78 801q0 46 17 87.5t45 72t48 47.5t41 30q-106 75 -106 191q0 108 82 169.5t194 61.5q71 0 133 -25.5t104 -81t42 -130.5q0 -121 -117 -238q133 -81 133 -203q0 -108 -89 -182t-216 -74q-59 0 -114 18t-99 51.5t-71 87t-27 118.5zM190 805q0 -79 59.5 -127.5 t139.5 -48.5q74 0 132.5 44.5t58.5 110.5q0 32 -14.5 58.5t-46.5 48t-58.5 35.5t-76 35.5t-73.5 33.5q-121 -86 -121 -190zM236 1225q0 -19 6 -37t14 -31t25.5 -27.5t29.5 -23.5t37.5 -22t39 -19.5t44 -19.5t43.5 -19q92 99 92 193q0 65 -50.5 101t-119.5 36 q-68 0 -114.5 -33.5t-46.5 -97.5z" />
<glyph d="M78 1157q0 139 82.5 222t208.5 83q145 0 234 -115.5t89 -297.5q0 -90 -23 -178t-68 -166.5t-123.5 -127.5t-178.5 -49q-42 0 -93 12t-85 31l43 97q64 -33 133 -33q109 0 179.5 90t90.5 223h-4q-32 -35 -88 -58.5t-108 -23.5q-128 0 -208.5 81t-80.5 210zM190 1155 q0 -86 52 -140t135 -54q77 0 135.5 43t58.5 94q0 58 -24 116.5t-72 100t-106 41.5q-83 0 -131 -57t-48 -144z" />
<glyph d="M78 446q0 467 311 467q313 0 313 -467q0 -466 -313 -466q-311 0 -311 466zM193 446q0 -360 196 -360q197 0 197 360q0 361 -197 361q-196 0 -196 -361z" />
<glyph d="M158 690l202 203h107v-791h188v-102h-495v102h194v592l2 49h-2q-8 -16 -43 -49l-82 -80z" />
<glyph d="M98 63q0 69 24.5 127t64 98.5t86.5 75.5t94.5 66t87 62t64 71t24.5 86q0 66 -48 112t-120 46q-100 0 -185 -100l-71 71q38 57 109.5 96t148.5 39q127 0 203.5 -74t76.5 -186q0 -61 -23.5 -113t-61.5 -88.5t-84 -69t-92.5 -62t-85 -60t-64 -71t-27.5 -87.5h455v-102h-570 q-6 34 -6 63z" />
<glyph d="M78 115l72 78q31 -44 90 -75.5t129 -31.5q73 0 131.5 52.5t58.5 129.5q0 79 -61 125.5t-140 46.5h-67l-29 62l203 237l51 52v4q-37 -7 -76 -7h-313v105h537v-76l-244 -285q47 -5 90 -21.5t81.5 -47t61.5 -81t23 -114.5q0 -119 -88.5 -203.5t-216.5 -84.5q-84 0 -164 34.5 t-129 100.5z" />
<glyph d="M45 233v78l434 582h111v-557h133v-103h-133v-233h-113v233h-432zM184 336h293v278q0 24 2 56t4 52l2 19h-4q-32 -55 -67 -100l-230 -301v-4z" />
<glyph d="M88 121l78 72q29 -47 83.5 -77t112.5 -30q86 0 146.5 56.5t60.5 138.5q0 83 -61 139.5t-148 56.5q-88 0 -159 -49l-70 27l51 438h447v-105h-353l-18 -159q-2 -21 -5 -40t-5 -27l-2 -9h4q66 25 125 25q133 0 221 -87t88 -210q0 -125 -91 -213t-226 -88q-83 0 -156 37.5 t-123 103.5z" />
<glyph d="M88 391q0 71 14 142.5t44.5 140t75 121.5t111 85.5t146.5 32.5q92 0 180 -43l-45 -96q-64 33 -133 33q-109 0 -179 -90.5t-89 -224.5h4q32 36 87.5 58.5t107.5 22.5q129 0 209.5 -79.5t80.5 -208.5q0 -141 -81.5 -223t-208.5 -82q-146 0 -235 114.5t-89 296.5zM207 344 q0 -93 58.5 -175.5t146.5 -82.5q83 0 129.5 56.5t46.5 142.5q0 87 -51.5 140.5t-135.5 53.5q-76 0 -135 -43t-59 -92z" />
<glyph d="M104 788v105h594v-78l-432 -815h-125l357 672l67 116v5q-39 -5 -102 -5h-359z" />
<glyph d="M78 254q0 46 17 88t45 72t48 47.5t41 30.5q-106 75 -106 190q0 108 82 169.5t194 61.5q71 0 133 -25.5t104 -81t42 -130.5q0 -121 -117 -238q133 -81 133 -202q0 -108 -89 -182t-216 -74q-80 0 -149 30t-115.5 94t-46.5 150zM190 258q0 -79 59.5 -127.5t139.5 -48.5 q74 0 132.5 45t58.5 111q0 32 -14.5 58.5t-46.5 48t-58.5 35.5t-76 35.5t-73.5 33.5q-121 -86 -121 -191zM236 678q0 -19 6 -37t14 -31t25.5 -27.5t29.5 -23.5t37.5 -22t39 -19.5t44 -19.5t43.5 -19q92 99 92 193q0 65 -50.5 101t-119.5 36q-68 0 -114.5 -33.5t-46.5 -97.5z " />
<glyph d="M78 608q0 139 82.5 222t208.5 83q145 0 234 -115.5t89 -297.5q0 -71 -13.5 -141.5t-44.5 -139.5t-75.5 -121.5t-112 -85t-147.5 -32.5q-42 0 -93 12t-85 31l43 96q64 -33 133 -33q109 0 179.5 90t90.5 223h-4q-32 -35 -88 -58.5t-108 -23.5q-128 0 -208.5 81t-80.5 210z M190 606q0 -86 52 -140t135 -54q77 0 135.5 43t58.5 94q0 58 -24 116.5t-72 100t-106 41.5q-83 0 -131 -57t-48 -144z" />
<glyph horiz-adv-x="897" d="M88 238q0 69 30.5 124t80 91.5t109 67.5t118.5 57.5t108.5 55t80 67.5t30.5 87q0 73 -55 107.5t-139 34.5q-156 0 -269 -94l-65 106l11 8q11 8 18.5 13t24 15.5t32 17.5t37 17t44.5 16.5t49.5 13t56.5 9.5t61 3q148 0 239.5 -65.5t91.5 -192.5q0 -70 -30.5 -126.5 t-80 -93.5t-109 -68.5t-118.5 -58.5t-108.5 -54.5t-80 -65.5t-30.5 -84q0 -71 59.5 -108.5t149.5 -37.5q170 0 306 120l3 3l74 -98q-63 -54 -115 -83q-124 -67 -270 -67q-155 0 -249.5 70.5t-94.5 192.5z" />
<glyph horiz-adv-x="1191" d="M102 535q0 234 121 377t326 143q110 0 203.5 -45.5t138.5 -135.5h4q-4 12 -4 35v121h135v-1005q0 -95 -27.5 -172.5t-74 -129.5t-110.5 -87t-135 -50.5t-149 -15.5q-177 0 -335 84l51 113q137 -70 280 -70q161 0 260 79t99 242v103q0 17 2 36t4 29l2 11h-4 q-100 -191 -328 -191q-206 0 -332.5 148t-126.5 381zM244 537q0 -185 92.5 -295.5t245.5 -110.5q64 0 117.5 21t97 66.5t68 126t24.5 190.5q0 395 -326 395q-151 0 -235 -104t-84 -289z" />
<glyph horiz-adv-x="1476" d="M41 0l348 526v4l-315 500h151l279 -442h166v852h135v-852h166l278 442h154l-316 -500v-4l349 -526h-164l-301 465h-166v-465h-135v465h-164l-303 -465h-162z" />
<glyph horiz-adv-x="1204" d="M154 375v655h141v-618q0 -55 4 -95t17.5 -82t37 -68.5t65 -43.5t99.5 -17q114 0 202.5 61.5t133.5 159t45 210.5v493h139v-1030h-137v162q0 20 2 40.5t4 31.5l2 10h-4q-13 -32 -35.5 -66.5t-59 -71.5t-81 -65.5t-104.5 -47t-125 -18.5q-181 0 -263.5 98t-82.5 302z" />
<glyph horiz-adv-x="1204" d="M154 375v655h141v-618q0 -55 4 -95t17.5 -82t37 -68.5t65 -43.5t99.5 -17q114 0 202.5 61.5t133.5 159t45 210.5v493h139v-1030h-137v162q0 20 2 40.5t4 31.5l2 10h-4q-13 -32 -35.5 -66.5t-59 -71.5t-81 -65.5t-104.5 -47t-125 -18.5q-181 0 -263.5 98t-82.5 302z M324 1407v35h120v-31q0 -66 44 -103.5t106 -37.5q61 0 106 38t45 105v29h119v-35q0 -111 -80 -176.5t-190 -65.5t-190 65.5t-80 176.5z" />
<glyph horiz-adv-x="1015" d="M166 0v1440h139v-803h166l307 393h168l-358 -448v-4l395 -578h-168l-342 514h-168v-514h-139z" />
<glyph horiz-adv-x="1044" d="M51 0l395 1030h152l391 -1030h-145l-285 756q-9 24 -18 54.5t-14 49.5l-5 19h-4q-17 -72 -35 -123l-284 -756h-148z" />
<glyph horiz-adv-x="1216" d="M166 0v1030h137v-162q0 -20 -2 -40.5t-4 -31.5l-2 -10h4q13 31 35 64.5t59 71t82 66.5t108 48t132 19q185 0 265.5 -100.5t80.5 -299.5v-655h-139v618q0 54 -4 94.5t-18 82.5t-38 68.5t-66 43.5t-100 17q-165 0 -278 -120.5t-113 -299.5v-504h-139z" />
<glyph horiz-adv-x="1875" d="M166 0v1030h137v-162q0 -20 -2 -40.5t-4 -31.5l-2 -10h4q39 107 149.5 188t229.5 81q140 0 217.5 -65t99.5 -193h4q46 105 151 181.5t228 76.5q181 0 261.5 -101t80.5 -299v-655h-139v621q0 55 -5 97.5t-19.5 83t-38.5 66.5t-64 42t-94 16q-100 0 -180.5 -63t-123 -160 t-42.5 -205v-498h-140v621q0 53 -3.5 92t-16.5 82t-36 69.5t-63.5 44t-97.5 17.5q-100 0 -182.5 -63.5t-126 -161t-43.5 -203.5v-498h-139z" />
<glyph horiz-adv-x="1251" d="M154 375v655h141v-618q0 -55 4 -95t17.5 -82t37 -68.5t65 -43.5t99.5 -17q114 0 202.5 61.5t133.5 159t45 210.5v493h139v-907h160v-369h-131v246h-166v162q0 20 2 40.5t4 31.5l2 10h-4q-13 -32 -35.5 -66.5t-59 -71.5t-81 -65.5t-104.5 -47t-125 -18.5q-181 0 -263.5 98 t-82.5 302z" />
<glyph horiz-adv-x="1873" d="M154 373v655h139v-620q0 -70 9 -120.5t31.5 -95t68 -67.5t112.5 -23q100 0 180.5 63t123 160t42.5 205v498h139v-620q0 -53 4 -92.5t17 -82t36 -69.5t63.5 -44.5t97.5 -17.5q100 0 182.5 63.5t126 161t43.5 203.5v498h139v-1030h-137v162q0 20 2 40.5t4 31.5l2 10h-4 q-39 -107 -149.5 -188t-229.5 -81q-140 0 -217.5 65t-99.5 193h-5q-46 -105 -150.5 -181.5t-227.5 -76.5q-181 0 -261.5 101t-80.5 299z" />
<glyph horiz-adv-x="1916" d="M154 373v655h139v-620q0 -70 9 -120.5t31.5 -95t68 -67.5t112.5 -23q100 0 180.5 63t123 160t42.5 205v498h139v-620q0 -53 4 -92.5t17 -82t36 -69.5t63.5 -44.5t97.5 -17.5q100 0 182.5 63.5t126 161t43.5 203.5v498h139v-905h156v-369h-131v246h-25v-2h-137v162 q0 20 2 40.5t4 31.5l2 10h-4q-39 -107 -149.5 -188t-229.5 -81q-140 0 -217.5 65t-99.5 193h-5q-46 -105 -150.5 -181.5t-227.5 -76.5q-181 0 -261.5 101t-80.5 299z" />
<glyph horiz-adv-x="1163" d="M59 909v121h369v-297q0 -76 -4 -104h4q41 58 120.5 94.5t174.5 36.5q160 0 262 -101t102 -292q0 -166 -108 -279t-297 -113q-101 0 -178.5 31.5t-123 87t-68.5 124.5t-23 149v542h-230zM428 362q0 -118 68 -194t186 -76q117 0 188.5 74t71.5 199q0 74 -19.5 128.5 t-53.5 85.5t-76 45.5t-93 14.5q-125 0 -198.5 -75t-73.5 -202z" />
<glyph horiz-adv-x="1028" d="M154 367v663h141v-297q0 -76 -4 -104h4q41 58 120 94.5t173 36.5q160 0 262 -101t102 -292q0 -166 -108 -279t-297 -113q-101 0 -178.5 31.5t-123 87t-68.5 124.5t-23 149zM293 362q0 -118 68 -194t186 -76q117 0 189.5 74t72.5 199q0 143 -68 208.5t-176 65.5 q-125 0 -198.5 -75t-73.5 -202z" />
<glyph horiz-adv-x="1648" d="M166 0v1440h139v-865h205q20 207 167.5 343.5t350.5 136.5q144 0 264.5 -69.5t191 -192.5t70.5 -273q0 -114 -41.5 -216t-112 -173.5t-167 -113.5t-203.5 -42q-202 0 -349 136.5t-169 343.5h-207v-455h-139zM649 520q0 -180 110.5 -299t270.5 -119q159 0 269 119t110 299 q0 174 -110.5 292t-268.5 118q-159 0 -270 -118t-111 -292z" />
<glyph horiz-adv-x="1191" d="M150 489v400q0 160 53.5 288t165.5 207.5t268 79.5q142 0 240 -75t98 -193q0 -207 -268 -330v-4q50 -3 100.5 -17t103.5 -44.5t93.5 -73.5t66 -110t25.5 -148q0 -215 -133 -354.5t-353 -139.5q-214 0 -337 136t-123 378zM285 707h4q23 44 70.5 83.5t99.5 65.5l145 72 q128 65 181 123.5t53 136.5q0 75 -65.5 118.5t-147.5 43.5q-88 0 -155 -35.5t-106.5 -97.5t-59 -138t-19.5 -164v-208zM287 451q0 -167 91.5 -260t229.5 -93q147 0 245.5 95.5t98.5 269.5q0 80 -30 141t-79.5 95t-105.5 50.5t-116 16.5q-59 0 -116.5 -19.5t-107 -56t-80 -99 t-30.5 -140.5z" />
<glyph horiz-adv-x="894" d="M33 -338l61 115q117 -82 244 -82q150 0 241 87.5t91 225.5q0 141 -95 218t-262 77h-104v117h106q128 0 214.5 73t86.5 197q0 111 -68 176.5t-177 65.5q-140 0 -254 -105l-68 97q143 131 340 131q173 0 271.5 -97.5t101.5 -236.5q1 -115 -58.5 -207t-160.5 -139v-4 q137 -43 203.5 -138.5t66.5 -226.5q0 -185 -126.5 -310.5t-334.5 -125.5q-183 0 -319 92z" />
<glyph horiz-adv-x="1437" d="M33 127h147l463 1313h150l462 -1313h150v-414h-133v287h-1106v-287h-133v414zM330 127h776l-334 958q-10 30 -23 76.5t-21 77.5l-7 31h-4q-30 -117 -53 -185z" />
<glyph horiz-adv-x="1269" d="M45 0l516 1440h150l516 -1440h-152l-385 1085q-11 30 -24.5 76.5t-21.5 77.5l-7 31h-4q-28 -117 -51 -185l-385 -1085h-152z" />
<glyph horiz-adv-x="1191" d="M49 119h115l354 911h156l350 -911h119v-365h-131v246h-832v-246h-131v365zM307 119h576l-248 645l-37 123h-4q-19 -72 -37 -123z" />
<glyph horiz-adv-x="1044" d="M51 0l395 1030h152l391 -1030h-145l-285 756q-9 24 -18 54.5t-14 49.5l-5 19h-4q-17 -72 -35 -123l-284 -756h-148z" />
<glyph horiz-adv-x="1759" d="M37 0l600 1440h317v-615h293q197 0 320 -110.5t123 -302.5q0 -187 -124 -299.5t-309 -112.5h-444v1313h-78l-547 -1313h-151zM954 127h283q137 0 222 75t85 210q0 132 -86 209t-223 77h-281v-571z" />
<glyph horiz-adv-x="1456" d="M49 0l440 1030h316v-399h221q58 0 108.5 -10t97.5 -33.5t80.5 -59t53.5 -91.5t20 -126q0 -143 -92 -227t-272 -84h-356v915h-86l-390 -915h-141zM805 111h209q120 0 176.5 53t56.5 147q0 98 -57 153.5t-174 55.5h-211v-409z" />
<glyph horiz-adv-x="1392" d="M45 0l516 1440h150l471 -1313h202v-92l-133 -322h-112l92 287h-156l-385 1085q-11 30 -24.5 76.5t-21.5 77.5l-7 31h-4q-28 -117 -51 -185l-385 -1085h-152z" />
<glyph horiz-adv-x="1146" d="M51 0l395 1030h152l344 -909h191v-88l-117 -279h-107l80 246h-145l-285 756q-9 24 -18 54.5t-14 49.5l-5 19h-4q-17 -72 -35 -123l-284 -756h-148z" />
</font>
</defs>
</svg>
